<svg id="Grupo_129054" data-name="Grupo 129054" xmlns="http://www.w3.org/2000/svg" width="400" height="270" viewBox="0 0 400 270">
  <rect id="Rectángulo_40235" data-name="Rectángulo 40235" width="400" height="269" rx="16" transform="translate(0 0)" fill="#0ca4ca"/>
  <g id="Grupo_129055" data-name="Grupo 129055" transform="translate(19.5 13.597)">
    <g id="Grupo_129074" data-name="Grupo 129074" transform="translate(51.237 1.878)">
      <g id="Grupo_129055-2" data-name="Grupo 129055">
        <path id="Trazado_169017" data-name="Trazado 169017" d="M321.97,293.035q-1.158-22.4-4.338-44.626c-1.459-10.19-3.257-20.414-6.98-30.012s-9.51-18.612-17.758-24.772c-9.283-6.933-20.9-9.772-31.471-14.509s-21.058-12.673-23.122-24.074c-1.52-8.4,1.846-16.794,3.643-25.138,1.921-8.918,2.055-18.11,2.182-27.232q.111-8.033.222-16.067c.1-7.4.167-15.008-2.534-21.893-5.869-14.958-25.145-20.537-41.1-18.609-3.8-5.106-9.95-6.478-16.306-6.776a85.216,85.216,0,0,0-26.157,2.847c-6.507,1.757-12.791,4.283-19.33,5.915a73.5,73.5,0,0,1-25.005,1.826A61.494,61.494,0,0,0,122.7,70.739l-6.717-.292a36.509,36.509,0,0,0,5.692,12.172c-7.1,2.979-14.7,6.379-18.533,13.06A28.633,28.633,0,0,0,100,106.828a73.486,73.486,0,0,0,.014,16.524c.422,3.7,1.161,7.457,3.1,10.632,2.553,4.174,6.894,6.89,11.21,9.2a124.451,124.451,0,0,0,22.639,9.356c2,6.369,3.806,13.441,5.8,19.81a57.271,57.271,0,0,0-32.1,10.155c-8.14,5.653-15.081,13.577-24.582,16.4a108.022,108.022,0,0,0-26.413-40.887c-3.113-2.959-6.629-5.841-10.865-6.556a39.937,39.937,0,0,1-4.472-.643c-2.083-.6-3.791-2.057-5.665-3.148-8.271-4.817-20.281-1.2-24.518,7.38-3.442,6.971-1.878,15.442,1.357,22.511s8.006,13.351,11.244,20.419c5.52,12.049,6.552,26.26,14.634,36.764a515.668,515.668,0,0,0-7.255,56.8c-.024.366-.015,1.122-.015,1.488Z" transform="translate(-12.207 -39.236)" fill="#f43b86" opacity="0.26"/>
        <path id="Trazado_169018" data-name="Trazado 169018" d="M319.531,297.985q-3.175-22.937-6.349-45.874c-1.935-13.98-4.356-28.99-14.244-39.062-3.605-3.672-8.006-6.45-12.419-9.1a360.134,360.134,0,0,0-34.888-18.407c-6.085-2.8-12.6-5.715-16.223-11.347-4.5-6.993-3.257-16.071-1.855-24.265,1.61-9.4,6.537-18.826,3.209-27.766C239,117.4,239.1,111.056,239,105.789c-.156-8.022-.526-16.118-2.618-23.863s-6.054-15.2-12.32-20.207-15.043-7.231-22.589-4.5c-1.915-2.81-4.9-5.951-8.2-6.776-11.555-2.893-23.6.984-34.92,4.688s-23.533,7.293-34.939,3.861c-1.028,4.088.24,8.482,2.49,12.046s5.41,6.447,8.529,9.282a18.959,18.959,0,0,1-7.967.953c2.521,4.388,4.474,5.461,6.995,9.85a66.134,66.134,0,0,0-16.666,5.3A14.35,14.35,0,0,0,111.9,99.7c-1.818,2.08-2.43,4.929-2.845,7.66a85.424,85.424,0,0,0-.532,21.422c.4,3.935,1.15,8.027,3.587,11.143,2.6,3.331,6.741,5.048,10.781,6.294a78.121,78.121,0,0,0,21.74,3.45c.5,5.716,3.144,11.3,4.824,16.79,1.54,5.03,3.241,10.318,7.145,13.844-7.079,1.272-13.664,1.845-20.743,3.117-5.1.916-10.252,1.85-14.976,3.971-13.291,5.971-22.269,20.863-36.7,22.837a270.812,270.812,0,0,0-27.794-44.1c-2.439-3.215-5.392-6.63-9.407-7.04-1.087-.111-2.191.014-3.271-.149-2.033-.307-3.763-1.583-5.618-2.471-4.011-1.92-9.087-1.915-12.694.687s-5.163,7.985-2.882,11.8c-3.036,4.084-2,9.9.089,14.541,3.794,8.435,10.5,15.407,13.6,24.12,2.035,5.713,2.445,11.991,5.178,17.406,1.487,2.946,3.639,5.583,4.593,8.742a21.885,21.885,0,0,1,.677,6.627c-.25,19.187-6.78,38.137-4.9,57.233l59.81.718a163.535,163.535,0,0,0,16.758-18.3c.943-1.153,1.7-2.812,2.551-4.036.722,7.052,1.766,14.147,1.918,21.234Z" transform="translate(-14.393 -43.818)" fill="#f43b86" opacity="0.26"/>
      </g>
      <g id="Grupo_129073" data-name="Grupo 129073" transform="translate(10.852 12.916)">
        <path id="Trazado_169019" data-name="Trazado 169019" d="M282.766,368.03q-2.872-24.257-7.877-48.2c-2.673-12.782-6.2-26.2-15.6-35.27-5.463-5.274-12.462-8.607-19.328-11.85-13.356-6.308-26.818-13.2-40.14-19.581a13.691,13.691,0,0,1-6.9-7.668,22.82,22.82,0,0,1-1.071-6.572,71.083,71.083,0,0,1,5.5-30.964,32.728,32.728,0,0,0-24.689,2.812c-15.948,8.875-23.171,27.041-34.809,41.1a19.659,19.659,0,0,1-4.647,4.5c-2.367,1.443-5.211,1.815-7.962,2.155L110.5,260.314a65.907,65.907,0,0,0-12.847,2.463A47.525,47.525,0,0,0,83.846,270.6c-11.633,9-23.517,20.05-32.357,31.806-4.882,6.492-6.942,13.825-10.7,21.027-7.18,13.768-9.971,29.335-12.669,44.627H61.05a266.615,266.615,0,0,0,31.086-28.45c.528,9.614,1.653,18.623,2.423,28.22Z" transform="translate(7.384 -127.425)" fill="#fff"/>
        <path id="Trazado_169020" data-name="Trazado 169020" d="M481.574,438.194l-4.246-20.831c-.731-3.584-1.463-7.174-1.861-10.811-1.214-11.09.7-22.251,2.293-33.294.239-1.655.389-3.58-.793-4.764a4.683,4.683,0,0,0-3.837-.932c-3.757.38-7.4,2.163-11.146,1.7-3.47-.427-6.388-2.7-9.573-4.136a20.925,20.925,0,0,0-10.076-1.791.772.772,0,0,0-.578.215.8.8,0,0,0,.014.748c4.253,11.744,2.752,24.733.449,37.009s-5.371,24.677-4.077,37.1Z" transform="translate(-416.962 -197.819)" fill="#ffc59a"/>
        <g id="Grupo_129056" data-name="Grupo 129056" transform="translate(24.705 165.465)">
          <path id="Trazado_169021" data-name="Trazado 169021" d="M468.352,420.663c-.122-7.351-1.863-14.577-2.436-21.906-.272-3.48-.281-6.977-.6-10.454a12.879,12.879,0,0,0-1.748-6.139,10.705,10.705,0,0,0-6.448-3.965c-2.5-.623-5.106-.759-7.632-1.286a25.284,25.284,0,0,1-9.441-4.137,43.724,43.724,0,0,0-2.108-8.477.8.8,0,0,1-.014-.748.772.772,0,0,1,.578-.215,20.925,20.925,0,0,1,10.076,1.791c3.186,1.439,6.1,3.709,9.573,4.136,3.748.461,7.389-1.323,11.146-1.7a4.683,4.683,0,0,1,3.837.932c1.182,1.184,1.033,3.109.793,4.764-1.595,11.043-3.508,22.2-2.293,33.294.4,3.636,1.13,7.227,1.861,10.811l4.246,20.831-14.06.069C467.214,433.324,468.454,426.829,468.352,420.663Z" transform="translate(-437.836 -363.283)" fill="#f2ab88"/>
        </g>
        <g id="Grupo_129057" data-name="Grupo 129057" transform="translate(105.105)">
          <path id="Trazado_169022" data-name="Trazado 169022" d="M258.661,145.9c4.321.046,9.037-.039,12.376-2.782a15.237,15.237,0,0,0,3.579-4.778,41.955,41.955,0,0,0,4.788-21.814,58.926,58.926,0,0,1-.351-8.648c.233-2.513,1.014-4.954,1.2-7.471.517-6.985-2.183-13.962-6.059-19.8A32.275,32.275,0,0,0,264,71.39c-4.4-2.613-9.791-2.778-14.908-2.7-2.755-3.376-7.542-5.454-11.879-5.873s-8.694.346-12.962,1.224q-8.739,1.8-17.328,4.24c-9.631,2.738-19.813,6.095-29.423,3.285a33.017,33.017,0,0,0,14.72,15.571c-2.878,2.8-6.519,4.448-10.452,3.638,4.18,3.462,7.531,8.308,10.586,12.793,2.985,4.383,5.478,9.3,9.708,12.5,3.524,2.665,7.925,3.87,12.261,4.715a95.356,95.356,0,0,0,22.381,1.666,19.123,19.123,0,0,1,6.82.44,16.583,16.583,0,0,1,5.645,3.758c2.805,2.519,5.624,5.27,6.863,8.831C257.229,138.916,256.733,142.814,258.661,145.9Z" transform="translate(-177.502 -62.7)" fill="#7267cb"/>
        </g>
        <path id="Trazado_169023" data-name="Trazado 169023" d="M236.223,80.446c6.4-.408,12.523-2.672,18.47-5.073s11.894-4.982,18.212-6.081,13.176-.57,18.572,2.9c-5.553-2.345-13.4-1.183-18.3,2.331A24.813,24.813,0,0,1,295.1,80.65a31.111,31.111,0,0,0-30.231,1.815,45.585,45.585,0,0,1,23.146,1.585,42.706,42.706,0,0,0-19.353,3.016,49.856,49.856,0,0,1,22.069,3.983,59.569,59.569,0,0,0-30.453,2.237c-7.518,2.608-15.369,6.8-22.979,4.469A28.849,28.849,0,0,0,248.26,95.5a57.473,57.473,0,0,0,7.97-4.394l9.388-5.842a39.505,39.505,0,0,0-20.534,3.737,124.159,124.159,0,0,1,22.983-12.572c-5.788.767-11.351,2.7-17.061,3.926S241.672,82.544,236.223,80.446Z" transform="translate(-119.503 -65.432)" fill="#fff" opacity="0.25"/>
        <path id="Trazado_169024" data-name="Trazado 169024" d="M205.615,97.536a26.1,26.1,0,0,1,2.157,18.538A22,22,0,0,0,199.9,98.67a26.032,26.032,0,0,1,4.376,16.024,44.13,44.13,0,0,1-4.21,16.273,32.157,32.157,0,0,0-.553-21.364,36.379,36.379,0,0,1-3.847,19.418,46.4,46.4,0,0,0-9.776-31.613,33.621,33.621,0,0,1,14.61,10.32A45.61,45.61,0,0,0,189.68,91.52a26.871,26.871,0,0,1,14.239,7.387c-1.727-1.722-2.909-4.36-4.526-6.257s-3.628-3.528-5.233-5.4C198.478,86.344,203.931,94.345,205.615,97.536Z" transform="translate(-5.28 -73.705)" fill="#fff" opacity="0.25"/>
        <g id="Grupo_129058" data-name="Grupo 129058" transform="translate(105.105 6.586)" opacity="0.5" style="mix-blend-mode: multiply;isolation: isolate">
          <path id="Trazado_169025" data-name="Trazado 169025" d="M343.481,89.814,348.755,94c-1.53.124-3.011.212-4.473.277a32.976,32.976,0,0,1-14.534-15.465,26.424,26.424,0,0,0,5.42.971,17.332,17.332,0,0,0,1.762,3.589A28.933,28.933,0,0,0,343.481,89.814Z" transform="translate(-329.749 -76.527)" fill="#7267cb"/>
          <path id="Trazado_169026" data-name="Trazado 169026" d="M182.436,96.221a30.326,30.326,0,0,0,7.784.465c6.451-.433,12.649-2.6,18.675-4.946a52.735,52.735,0,0,1,7.8-2.618c3.773-.824,7.675-.732,11.537-.781q7.313-.093,14.594-.876a4.272,4.272,0,0,0,2.3-.714c.969-.79,1.063-2.21,1.079-3.459l.112-8.628a72.068,72.068,0,0,0,15.051,31.4,10.713,10.713,0,0,0,3.621,3.15,11.571,11.571,0,0,0,4.871.666l6.765-.052a33.141,33.141,0,0,0-.557,3.431,58.93,58.93,0,0,0,.351,8.648,41.954,41.954,0,0,1-4.788,21.814,15.236,15.236,0,0,1-3.579,4.778c-3.339,2.743-8.055,2.828-12.376,2.782-1.928-3.089-1.432-6.987-2.628-10.427-1.239-3.561-4.058-6.313-6.863-8.831a16.582,16.582,0,0,0-5.645-3.758,19.122,19.122,0,0,0-6.82-.44,95.386,95.386,0,0,1-22.381-1.666c-4.336-.845-8.737-2.051-12.261-4.715-4.23-3.2-6.722-8.113-9.708-12.5-3.055-4.485-6.406-9.331-10.586-12.793A9.849,9.849,0,0,0,182.436,96.221Z" transform="translate(-174.518 -74.664)" fill="#7267cb"/>
        </g>
        <path id="Trazado_169027" data-name="Trazado 169027" d="M190.629,292.581c2.751-.34,5.6-.712,7.962-2.155a19.659,19.659,0,0,0,4.647-4.5c.92-1.111,1.811-2.251,2.682-3.407a136.769,136.769,0,0,0-1.16,19.293c3.067,7.365,9.99,13.285,17.928,13.81,5.35.354,10.6-1.647,15.255-4.309a54.761,54.761,0,0,0,22.426-24.538c-2.019,8.595-7.123,16.062-13.04,22.615A57.718,57.718,0,0,1,233.988,320.8a29.881,29.881,0,0,1-16.791,4.424,13.455,13.455,0,0,1-7.343-2.38,13.208,13.208,0,0,1-4.1-5.963c.054.443.106.885.165,1.327-5.664-6.9-9.348-15.286-15.212-22.02-.986-1.132-2.03-2.205-3.113-3.235Z" transform="translate(-58.005 -161.515)" fill="#ddd" opacity="0.6"/>
        <g id="Grupo_129059" data-name="Grupo 129059" transform="translate(147.077 79.262)">
          <path id="Trazado_169028" data-name="Trazado 169028" d="M207.763,260.872a27.647,27.647,0,0,1-14.651,3.5c-3.484-.151-5.233-1.359-8.183-3.219-3.692-2.329-.39-9.963,2.629-17.478,8.512-12.316,15.713-25.706,28.7-32.935a32.728,32.728,0,0,1,24.689-2.812,71.305,71.305,0,0,0-5.449,23.348c-4.579,7.7-10.79,14.582-17.173,20.951C215.1,255.45,211.743,258.635,207.763,260.872Z" transform="translate(-183.294 -206.687)" fill="#f2ab88"/>
        </g>
        <g id="Grupo_129062" data-name="Grupo 129062" transform="translate(122.341 30.978)">
          <g id="Grupo_129060" data-name="Grupo 129060">
            <path id="Trazado_169029" data-name="Trazado 169029" d="M207.4,126.482a172.258,172.258,0,0,1,45.633-7.507c5.719,7.4,13.152,15.968,21.873,19.73q-1.066,12.907-2.6,25.77c-1.064,8.838-2.331,17.782-5.841,25.962a44.437,44.437,0,0,1-15.195,19.04,36,36,0,0,1-23.3,6.5c-6.614-.566-11.716-6.683-14.627-12.649s-4.04-12.622-4.993-19.191c-.448-3.081-.864-6.171-1.044-9.279-.34-5.871.165-11.76-.007-17.639a153.325,153.325,0,0,0-2.5-20.705c-.364-2.176-.7-4.353-.984-6.535Q205.55,128.161,207.4,126.482Z" transform="translate(-203.818 -118.975)" fill="#ffc59a"/>
          </g>
          <path id="Trazado_169030" data-name="Trazado 169030" d="M304.835,229.132q-1.691,1.978-3.527,3.824a.423.423,0,0,1-.637.1l-1.705-.951c-.866-.483-1.97-1.121-2.168-2.167.989-.415,2.715-.044,3.848-.123A23.25,23.25,0,0,0,304.835,229.132Z" transform="translate(-284.926 -168.493)" fill="#f2ab88"/>
          <ellipse id="Elipse_5090" data-name="Elipse 5090" cx="11.043" cy="11.043" rx="11.043" ry="11.043" transform="translate(29.557 42.571)" fill="#ffa087"/>
          <g id="Grupo_129061" data-name="Grupo 129061">
            <path id="Trazado_169031" data-name="Trazado 169031" d="M207.3,157.214a153.325,153.325,0,0,0-2.5-20.705c-.364-2.176-.7-4.353-.984-6.535q1.732-1.813,3.586-3.492a172.258,172.258,0,0,1,45.633-7.507c5.719,7.4,13.152,15.968,21.873,19.73q-1.066,12.907-2.6,25.77c-.342,2.844-.707,5.7-1.159,8.535a26.89,26.89,0,0,1-10.119,7.13c-12.406,4.742-26.052-2.021-39.333-2.23-4.649-.074-9.359.659-14.021,1.106-.156-1.384-.289-2.771-.37-4.162C206.969,168.982,207.474,163.093,207.3,157.214Z" transform="translate(-203.818 -118.975)" fill="#f2ab88" opacity="0.36" style="mix-blend-mode: multiply;isolation: isolate"/>
          </g>
        </g>
        <g id="Grupo_129063" data-name="Grupo 129063" transform="translate(187.973 63.754)">
          <path id="Trazado_169032" data-name="Trazado 169032" d="M186.086,179.919c2.309-1.583,5.648-2.027,7.831-.275a6.711,6.711,0,0,1,1.72,2.233c2.125,4.2,1.167,9.265-.288,13.738-.928,2.851-2.095,5.73-4.221,7.845a11.246,11.246,0,0,1-11.8,2.417,4.762,4.762,0,0,1-2.218-1.564,5.336,5.336,0,0,1-.767-2.49C175.465,194.078,179.5,184.43,186.086,179.919Z" transform="translate(-176.227 -178.516)" fill="#ffc59a"/>
          <path id="Trazado_169033" data-name="Trazado 169033" d="M195.321,187.662c1.165.451,1.626,1.844,1.793,3.082a14.826,14.826,0,0,1-4.921,13.173,7.356,7.356,0,0,1-3.516,1.768,3.883,3.883,0,0,1-3.6-1.234C181.673,200.188,188.8,185.138,195.321,187.662Z" transform="translate(-180.985 -182.5)" fill="#f2ab88"/>
        </g>
        <path id="Trazado_169034" data-name="Trazado 169034" d="M483.6,307.4l-18.041-33.641c-4.089-7.624-8.39-15.5-15.324-20.671a3.254,3.254,0,0,0-1.712-.79c-1.815-.085-2.471,2.527-1.765,4.2.46,1.091.992,2.319,1.346,3.449a42.975,42.975,0,0,0-10.908-11.3,5.964,5.964,0,0,0-2.1-1.116,2.234,2.234,0,0,0-2.2.59c-.732.867-.406,2.18.026,3.229a26.08,26.08,0,0,0,2.694,4.949,13.956,13.956,0,0,0-3.879-3.2,2.842,2.842,0,0,0-2.668-.559,2.085,2.085,0,0,0-1.052,1.781,5.768,5.768,0,0,0,.4,2.119,62.177,62.177,0,0,0,3.33,8.14c-1.114-1.042-1.935-2.706-3.423-2.37a2.222,2.222,0,0,0-1.535,2.029,6.241,6.241,0,0,0,.536,2.646,97.411,97.411,0,0,0,12.418,23.428c2.645,3.672,2.268,8.839,4.194,12.935,2.006,4.265,4.127,8.543,7.2,12.121s7.219,6.437,11.892,7.054c2.387.315,4.862.048,7.169.735,1.412.42,2.7,1.181,4.09,1.666,5.081,1.768,10.881-.5,14.693-4.295s6.019-8.881,7.986-13.889c.421-1.073.819-2.351.19-3.316-.765-1.173-2.5-1.092-3.853-.744A28.274,28.274,0,0,0,483.6,307.4Z" transform="translate(-426.769 -145.758)" fill="#ffc59a"/>
        <g id="Grupo_129064" data-name="Grupo 129064" transform="translate(3.341 110.18)">
          <path id="Trazado_169035" data-name="Trazado 169035" d="M507.646,291.943q-6.015-10.958-11.6-22.145" transform="translate(-478.419 -265.976)" fill="none" stroke="#d3835f" stroke-linecap="round" stroke-linejoin="round" stroke-width="1"/>
          <path id="Trazado_169036" data-name="Trazado 169036" d="M526.825,290.314q-7.155-13.961-15.168-27.46" transform="translate(-506.191 -262.854)" fill="none" stroke="#d3835f" stroke-linecap="round" stroke-linejoin="round" stroke-width="1"/>
          <path id="Trazado_169037" data-name="Trazado 169037" d="M537.966,297.569l-5.585-9.508-8.1-13.787" transform="translate(-524.282 -267.987)" fill="none" stroke="#d3835f" stroke-linecap="round" stroke-linejoin="round" stroke-width="1"/>
          <path id="Trazado_169038" data-name="Trazado 169038" d="M464.919,350.651c-2.027,1.068-4.488-.085-6.385-1.37a42.326,42.326,0,0,1-6.2-5.119" transform="translate(-411.631 -299.404)" fill="none" stroke="#d3835f" stroke-linecap="round" stroke-linejoin="round" stroke-width="1"/>
          <path id="Trazado_169039" data-name="Trazado 169039" d="M510.987,309.586a6.433,6.433,0,0,1-6.819.014c-1.386,1.017-2.558,2.3-4.221,2.735a4.646,4.646,0,0,1-4.73-1.207,4.922,4.922,0,0,1-6.73,2.485,3.678,3.678,0,0,1-4.767,3.33" transform="translate(-474.974 -283.861)" fill="none" stroke="#d3835f" stroke-linecap="round" stroke-linejoin="round" stroke-width="1"/>
          <path id="Trazado_169040" data-name="Trazado 169040" d="M501.962,286.522a6.275,6.275,0,0,1-5.362,1.845" transform="translate(-473.04 -273.493)" fill="none" stroke="#d3835f" stroke-linecap="round" stroke-linejoin="round" stroke-width="1"/>
          <path id="Trazado_169041" data-name="Trazado 169041" d="M500.379,291.782c-1.024,1.318-3.062,1.006-4.673.565" transform="translate(-470.964 -275.858)" fill="none" stroke="#d3835f" stroke-linecap="round" stroke-linejoin="round" stroke-width="1"/>
          <path id="Trazado_169042" data-name="Trazado 169042" d="M520.088,288.1c-1.316.739-3.432.34-4.848-.185a3.734,3.734,0,0,0,3.672-2.68" transform="translate(-501.426 -272.917)" fill="none" stroke="#d3835f" stroke-linecap="round" stroke-linejoin="round" stroke-width="1"/>
          <path id="Trazado_169043" data-name="Trazado 169043" d="M533.8,292.443a4.556,4.556,0,0,1-4.338.076,2.511,2.511,0,0,0,2.575-2.409" transform="translate(-522.967 -275.106)" fill="none" stroke="#d3835f" stroke-linecap="round" stroke-linejoin="round" stroke-width="1"/>
          <path id="Trazado_169044" data-name="Trazado 169044" d="M538.664,304.53a2.36,2.36,0,0,0,2.66-1.557" transform="translate(-535.557 -280.888)" fill="none" stroke="#d3835f" stroke-linecap="round" stroke-linejoin="round" stroke-width="1"/>
          <path id="Trazado_169045" data-name="Trazado 169045" d="M502.4,324.707a3.2,3.2,0,0,1-1.168,2.161,15.538,15.538,0,0,1-4.61,3.728,13.743,13.743,0,0,1-3.722.935,60.049,60.049,0,0,1-12.665.457c-.31-.022-.734-.222-.6-.5" transform="translate(-464.129 -290.658)" fill="none" stroke="#d3835f" stroke-linecap="round" stroke-linejoin="round" stroke-width="1"/>
        </g>
        <path id="Trazado_169046" data-name="Trazado 169046" d="M306.009,219.3a4.469,4.469,0,0,1-1.812,5.875,1,1,0,0,0-.486.377c-.19.381.211.781.567,1.015q1.742,1.148,3.563,2.168" transform="translate(-169.369 -133.097)" fill="none" stroke="#56052a" stroke-linecap="round" stroke-linejoin="round" stroke-width="1"/>
        <g id="Grupo_129066" data-name="Grupo 129066" transform="translate(187.596 44.881)">
          <path id="Trazado_169047" data-name="Trazado 169047" d="M194.569,159.614a2.863,2.863,0,0,0,1.678-.847,2.757,2.757,0,0,0,.4-1.609,39.045,39.045,0,0,0-1.114-10.569,3.426,3.426,0,0,0-.718-1.6,3.483,3.483,0,0,0-2.525-.753,48.291,48.291,0,0,0-14.348,1.908,4.492,4.492,0,0,0-1.94.944,4.594,4.594,0,0,0-.966,3.333c-.034,3.027-.954,12.734,3.14,13.095,2.311.2,5.319-1.169,7.549-1.72Z" transform="translate(-174.924 -144.231)" fill="#77bcaf"/>
          <g id="Grupo_129065" data-name="Grupo 129065" transform="translate(0 5.936)" opacity="0.5" style="mix-blend-mode: multiply;isolation: isolate">
            <path id="Trazado_169048" data-name="Trazado 169048" d="M196.235,155.014a39.036,39.036,0,0,1,.412,6.991,2.753,2.753,0,0,1-.4,1.608,2.86,2.86,0,0,1-1.677.847l-8.843,2.185c-2.231.551-5.238,1.923-7.549,1.72-2.912-.257-3.287-5.241-3.249-9.187A127.74,127.74,0,0,1,196.235,155.014Z" transform="translate(-174.925 -155.014)" fill="#77bcaf"/>
          </g>
        </g>
        <path id="Trazado_169049" data-name="Trazado 169049" d="M208.276,136.546c2.57-1.839,5.809-2.4,8.927-2.921l24.127-4c16.489,2.57,34.083-.8,50.5,2.206,4.13.756,8.384,2.007,11.36,4.969,4.006,3.989,4.8,10.091,5.364,15.716a41.6,41.6,0,0,1,.214,9.6,21.237,21.237,0,0,1-11.122,15.8c-6.594,3.4-14.413,4.161-21.82,3.737-12.276-.7-70.637-2.663-70.541-10.695.023-1.927,4.738-3.208,4.462-5.115C208.288,155.794,206.647,146.571,208.276,136.546Z" transform="translate(-116.341 -92.784)" fill="#77bcaf"/>
        <ellipse id="Elipse_5091" data-name="Elipse 5091" cx="4.891" cy="7.009" rx="4.891" ry="7.009" transform="translate(135.288 99.557)" fill="#da6b58"/>
        <g id="Grupo_129067" data-name="Grupo 129067" transform="translate(88.941 36.841)" opacity="0.5" style="mix-blend-mode: multiply;isolation: isolate">
          <path id="Trazado_169050" data-name="Trazado 169050" d="M277.006,178.108a42.961,42.961,0,0,0,9.17.082c6.828-.921,13.76-4.882,16.018-11.39a24.633,24.633,0,0,0,1.1-5.428c.62-5.684.3-11.847-3.052-16.481-3.819-5.284-10.637-7.368-17.052-8.532-11.119-2.018-22.475-2.275-33.707-3.518-4.808-.532-9.6-1.251-14.342-2.19l6.192-1.027c16.489,2.57,34.083-.8,50.5,2.206,4.13.756,8.384,2.007,11.36,4.969,4.006,3.989,4.8,10.091,5.364,15.716a41.6,41.6,0,0,1,.214,9.6,21.237,21.237,0,0,1-11.122,15.8c-6.594,3.4-14.413,4.161-21.82,3.737-12.276-.7-70.638-2.663-70.542-10.695,0-.006,0-.011,0-.017C229.079,174.246,253.054,176.179,277.006,178.108Z" transform="translate(-205.281 -129.625)" fill="#77bcaf"/>
        </g>
        <g id="Grupo_129068" data-name="Grupo 129068" transform="translate(136.287 105.086)">
          <path id="Trazado_169051" data-name="Trazado 169051" d="M296.119,254.733a9.008,9.008,0,0,1,4.229-1.134,9.974,9.974,0,0,1,.111,1.48c0,3.87-2.189,7.008-4.89,7.008a4.608,4.608,0,0,1-3.892-2.775A13.071,13.071,0,0,1,296.119,254.733Z" transform="translate(-291.677 -253.599)" fill="#ff8e8a"/>
        </g>
        <g id="Grupo_129069" data-name="Grupo 129069" transform="translate(88.941 56.885)" opacity="0.5" style="mix-blend-mode: multiply;isolation: isolate">
          <path id="Trazado_169052" data-name="Trazado 169052" d="M215,173.548c12.554.483,24.961,2.882,37.495,3.744,7.327.5,14.678.481,22.023.458a50.335,50.335,0,0,0,10.939-.833A47.887,47.887,0,0,0,297,172.137q5.657-2.973,11.232-6.1c.121.954.224,1.907.318,2.847a41.6,41.6,0,0,1,.214,9.6,21.237,21.237,0,0,1-11.122,15.8c-6.594,3.4-14.413,4.161-21.82,3.737-12.276-.7-70.638-2.663-70.542-10.695.023-1.927,4.738-3.208,4.462-5.115-.43-2.977-.876-5.88-1.25-8.754C210.661,173.441,212.829,173.464,215,173.548Z" transform="translate(-205.281 -166.037)" fill="#77bcaf"/>
        </g>
        <g id="Grupo_129071" data-name="Grupo 129071" transform="translate(87.055 41.601)">
          <rect id="Rectángulo_40236" data-name="Rectángulo 40236" width="79.531" height="38.909" rx="12.371" transform="translate(79.21 45.888) rotate(-174.852)" fill="#aefff1"/>
          <rect id="Rectángulo_40237" data-name="Rectángulo 40237" width="70.777" height="31.56" rx="12.371" transform="translate(75.18 41.836) rotate(-174.852)" fill="#842f82"/>
          <g id="Grupo_129070" data-name="Grupo 129070" transform="translate(6.486 4.791)" opacity="0.25">
            <path id="Trazado_169053" data-name="Trazado 169053" d="M302.867,148.278q14.988,17.032,29.638,34.359l-14.371-1.295q-14.688-17.334-29.726-34.366Z" transform="translate(-279.176 -146.976)" fill="#fff"/>
            <path id="Trazado_169054" data-name="Trazado 169054" d="M269,153.578q7.852,9.354,15.534,18.848l-.662,7.343a6.777,6.777,0,0,1-1.534,3.725Q270.57,167.809,258.181,152.6Z" transform="translate(-214.564 -149.506)" fill="#fff"/>
            <path id="Trazado_169055" data-name="Trazado 169055" d="M332.4,155.156a6.769,6.769,0,0,1,1.308-3.428q14.247,15.042,27.614,30.885l-8.891-.8q-10.12-11.072-20.455-21.943Z" transform="translate(-331.974 -149.112)" fill="#fff"/>
          </g>
        </g>
        <g id="Grupo_129072" data-name="Grupo 129072" transform="translate(98.995 156.977)" opacity="0.6">
          <path id="Trazado_169056" data-name="Trazado 169056" d="M121.676,351.243a84.156,84.156,0,0,0-5.712,13.032c-8.1,22.029-14.812,45.471-12.485,68.681l-15.459-.017c5.2-24.812,15.193-48.567,27.052-71.047A64.45,64.45,0,0,1,121.676,351.243Z" transform="translate(36.506 -349.383)" fill="#ddd"/>
          <path id="Trazado_169057" data-name="Trazado 169057" d="M341.838,347.864c2.82,17.629,6.367,35.131,9.914,52.627,1.568,7.737,3.14,15.489,5.47,23.033.81,2.622,1.716,5.224,2.731,7.781l-15.938-.017c-.77-9.6-1.895-18.606-2.423-28.22-.174.184-.35.367-.525.551C343.534,385.343,340.1,366.374,341.838,347.864Z" transform="translate(-341.066 -347.864)" fill="#ddd"/>
        </g>
        <path id="Trazado_169058" data-name="Trazado 169058" d="M487.686,332.2a23.56,23.56,0,0,0-5.744,14.148l-.87,6.842" transform="translate(-446.875 -183.847)" fill="none" stroke="#d3835f" stroke-linecap="round" stroke-linejoin="round" stroke-width="1"/>
      </g>
    </g>
    <g id="Grupo_129117" data-name="Grupo 129117" transform="translate(0)">
      <path id="Trazado_169059" data-name="Trazado 169059" d="M408.967,63.251,439.023,65.4a4.205,4.205,0,0,0,4.506-4.195V42.181a4.206,4.206,0,0,0-3.905-4.195l-30.056-2.151a4.206,4.206,0,0,0-4.506,4.195V59.057A4.206,4.206,0,0,0,408.967,63.251Z" transform="translate(-298.785 -35.825)" fill="#aefff1" opacity="0.36"/>
      <path id="Trazado_169060" data-name="Trazado 169060" d="M407.491,250.646l28.571,2.045a4.948,4.948,0,0,0,5.3-4.936V230.218a4.949,4.949,0,0,0-4.595-4.936L408.2,223.238a4.949,4.949,0,0,0-5.3,4.936V245.71A4.949,4.949,0,0,0,407.491,250.646Z" transform="translate(-295.429 -120.065)" fill="#aefff1" opacity="0.36"/>
      <path id="Trazado_169061" data-name="Trazado 169061" d="M296.462,160.066l88.1,5.928a6.54,6.54,0,0,0,6.979-6.525v-54.8a6.54,6.54,0,0,0-6.1-6.525l-88.1-5.928a6.54,6.54,0,0,0-6.979,6.525v54.8A6.539,6.539,0,0,0,296.462,160.066Z" transform="translate(-183.662 -61.168)" fill="#aefff1" opacity="0.36"/>
      <path id="Trazado_169062" data-name="Trazado 169062" d="M314.95,159.888l69.121,4.65a5.131,5.131,0,0,0,5.475-5.119V116.428a5.131,5.131,0,0,0-4.786-5.119l-69.121-4.65a5.131,5.131,0,0,0-5.476,5.119v42.991A5.131,5.131,0,0,0,314.95,159.888Z" transform="translate(-192.564 -67.661)" fill="none" stroke="#aefff1" stroke-miterlimit="10" stroke-width="1"/>
      <path id="Trazado_169063" data-name="Trazado 169063" d="M82.649,105.587l71.661,4.2a6.36,6.36,0,0,0,6.732-6.349v-36.6a6.36,6.36,0,0,0-5.988-6.349l-71.661-4.2a6.36,6.36,0,0,0-6.732,6.349v36.6A6.36,6.36,0,0,0,82.649,105.587Z" transform="translate(164.477 -45.018)" fill="#aefff1" opacity="0.36"/>
      <path id="Trazado_169064" data-name="Trazado 169064" d="M492.543,117.108l83.277,5.6a8.953,8.953,0,0,0,9.555-8.933V63.817a8.953,8.953,0,0,0-8.352-8.933l-83.277-5.6a8.953,8.953,0,0,0-9.555,8.933v49.96A8.954,8.954,0,0,0,492.543,117.108Z" transform="translate(-484.191 -41.865)" fill="#aefff1" opacity="0.36"/>
      <path id="Trazado_169065" data-name="Trazado 169065" d="M79.511,275.937l102.274,6.88a6.715,6.715,0,0,0,7.166-6.7V211.926a6.715,6.715,0,0,0-6.264-6.7L80.413,198.345a6.715,6.715,0,0,0-7.166,6.7v64.191A6.715,6.715,0,0,0,79.511,275.937Z" transform="translate(138.448 -108.875)" fill="#aefff1" opacity="0.36"/>
      <path id="Trazado_169066" data-name="Trazado 169066" d="M490.977,244.515l61.552,4.393a7.307,7.307,0,0,0,7.826-7.288V202.05a7.306,7.306,0,0,0-6.786-7.288l-61.551-4.392a7.306,7.306,0,0,0-7.827,7.288v39.57A7.306,7.306,0,0,0,490.977,244.515Z" transform="translate(-459.171 -105.288)" fill="#aefff1" opacity="0.36"/>
      <path id="Trazado_169067" data-name="Trazado 169067" d="M554.835,233a10.72,10.72,0,0,0-1.174-11.048,4.834,4.834,0,0,0-1.332-1.242,6.054,6.054,0,0,0-1.4-.53,15.245,15.245,0,0,0-5.568-.786,5.9,5.9,0,0,0-4.679,2.762,14.293,14.293,0,0,0-12-8.286,9.829,9.829,0,0,0-7.408,2.5c-2.1,2.084-2.759,5.181-3.15,8.11a9.186,9.186,0,0,0-9.387,2.181A8.32,8.32,0,0,0,507.128,236a12.75,12.75,0,0,0,4.535,4.61c5.956,3.993,13.04,6.059,20.16,6.9s14.323.52,21.479.069a19.537,19.537,0,0,0,6.708-1.235,6.772,6.772,0,0,0,4.206-5.028,6.968,6.968,0,0,0-1.441-4.754C561.222,234.376,557.359,232.08,554.835,233Z" transform="translate(-475.262 -115.856)" fill="#aefff1" opacity="0.38"/>
      <path id="Trazado_169068" data-name="Trazado 169068" d="M556.648,238.255a5.989,5.989,0,0,0-.656-6.173,2.7,2.7,0,0,0-.744-.694,3.377,3.377,0,0,0-.782-.3,8.525,8.525,0,0,0-3.111-.439,3.3,3.3,0,0,0-2.615,1.544,7.987,7.987,0,0,0-6.706-4.63,5.493,5.493,0,0,0-4.14,1.395,7.636,7.636,0,0,0-1.76,4.532,5.134,5.134,0,0,0-5.246,1.219,4.649,4.649,0,0,0-.9,5.22,7.129,7.129,0,0,0,2.534,2.576,25.561,25.561,0,0,0,11.265,3.858,66.472,66.472,0,0,0,12,.039,10.918,10.918,0,0,0,3.748-.69,3.784,3.784,0,0,0,2.351-2.81,3.893,3.893,0,0,0-.805-2.657C560.217,239.023,558.058,237.739,556.648,238.255Z" transform="translate(-485.695 -122.014)" fill="#aefff1"/>
      <path id="Trazado_169069" data-name="Trazado 169069" d="M423.105,153.413a6.845,6.845,0,1,1,12.554,5.462L429.382,173.3l-6.277-14.427A6.883,6.883,0,0,1,423.105,153.413Zm6.393,6.811a3.9,3.9,0,1,0-3.9-3.9A3.9,3.9,0,0,0,429.5,160.223Z" transform="translate(-301.108 -86.833)" fill="#aefff1"/>
      <path id="Trazado_169070" data-name="Trazado 169070" d="M453.167,295.8l-10.483-10.564,2.977,14.469L447.925,295Z" transform="translate(-329.135 -147.942)" fill="#aefff1"/>
      <g id="Grupo_129075" data-name="Grupo 129075" transform="translate(4.196 18.049)">
        <path id="Trazado_169071" data-name="Trazado 169071" d="M594.97,86.743a3.478,3.478,0,0,0-.066,1.524,1.19,1.19,0,0,0,1.066.948c.23,0,.451-.1.681-.1.911-.008,1.174,1.211,1.311,2.111a3.245,3.245,0,0,0,.762,1.8,1.542,1.542,0,0,0,1.808.363c.359-.209.6-.6.977-.768.75-.331,1.551.351,2.009,1.03s.939,1.5,1.753,1.607c.43.055.872-.116,1.3-.024,1.246.267,1.18,2.3,2.311,2.887a3.26,3.26,0,0,0,1.094.238,5.758,5.758,0,0,1,3.331,1.666,1.586,1.586,0,0,1,.4.59c.294.9-.8,1.583-1.279,2.4-.777,1.336.094,3.318-.973,4.437a4.11,4.11,0,0,1-1.192.734,8.77,8.77,0,0,0-3.075,2.568.882.882,0,0,1,.192,1.173,5.092,5.092,0,0,1-.887.969,5.085,5.085,0,0,0-1.083,4.059,9.56,9.56,0,0,0,1.214,3.764c-.7.233-1.4-.32-1.894-.868a14.4,14.4,0,0,1-3.567-10.931c.141-1.392.464-2.909-.26-4.107a5.3,5.3,0,0,0-.871-1.011l-2-1.96a3.286,3.286,0,0,1-.67-.815,2.837,2.837,0,0,1,.6-2.827,7.376,7.376,0,0,0,1.573-2.576.715.715,0,0,0,.008-.359c-.1-.337-.54-.4-.886-.46s-.759-.356-.611-.674c-.566.409-1.34-.179-1.645-.808s-.493-1.4-1.113-1.723c-.554-.285-1.225-.081-1.844-.15-1.274-.143-2.1-1.377-2.74-2.488l-2.321-4.014c-.63-1.09-1.246-2.524-.467-3.513.322-.41.83-.642,1.149-1.053.7-.906.265-2.308.859-3.289a4.476,4.476,0,0,0,.667-1.043c.22-.82-.724-1.55-1.573-1.528a7.066,7.066,0,0,0-2.391.826,6.638,6.638,0,0,1-2.8.488,1.213,1.213,0,0,1-.758-.225.475.475,0,0,1-.042-.7c2.66-1.995,5.434-3.423,8.759-3.409s6.664.648,9.958.2a28.139,28.139,0,0,0,6.366-1.891,15.057,15.057,0,0,1,3.909-1.153,14.064,14.064,0,0,1,2.889.1q4.9.513,9.782,1.215a1.329,1.329,0,0,1,.555.166.9.9,0,0,1-.036,1.367,2.085,2.085,0,0,1-1.5.374,5.3,5.3,0,0,0-1.575.018c-1.114.286-1.751,1.5-2.8,1.961a12.9,12.9,0,0,1-1.69.424,3.662,3.662,0,0,0-2.337,2.1c-.626-.211-.748-1.042-.681-1.7s.179-1.42-.282-1.894c-.282-.289-.766-.461-.8-.864-.01-.144.046-.288.034-.432-.027-.315-.35-.505-.634-.642a2.515,2.515,0,0,0-1.912-.349c-.624.236-.85,1.3-.225,1.526a3.917,3.917,0,0,0,.7.071c.791.137,1,1.333.446,1.912a2.1,2.1,0,0,1-2.249.3c-.483-.187-.923-.481-1.421-.625a5.031,5.031,0,0,0-1.992-.027l-1.768.213a1.416,1.416,0,0,0-.537.137.931.931,0,0,0,.01,1.47,1.767,1.767,0,0,0,1.657.144c.547-.189,1.035-.519,1.573-.732a1.931,1.931,0,0,1,1.675,0,3.28,3.28,0,0,1,.67.629c.532.566,1.188,1.008,1.706,1.588a2.424,2.424,0,0,1,.7,2.125,1.266,1.266,0,0,1-1.8.839c-.225-.16-.377-.411-.612-.555a1.374,1.374,0,0,0-1.6.421,7.868,7.868,0,0,1-1.225,1.291c-.865.549-2.1.292-2.893.945-.953.787-.848,2.572-2,3.009a4.086,4.086,0,0,0-.854.275,1.341,1.341,0,0,0-.453,1.149,2.82,2.82,0,0,1-.151,1.266c-.194.383-.76.61-1.059.3a1.24,1.24,0,0,1-.226-.7,2.539,2.539,0,0,0-1.531-1.917.725.725,0,0,0-.453-.061c-.366.1-.433.615-.746.83a1.828,1.828,0,0,1-.886.14C595.192,86.491,595.028,86.445,594.97,86.743Z" transform="translate(-582.892 -68.614)" fill="#aefff1"/>
        <path id="Trazado_169072" data-name="Trazado 169072" d="M517.077,93a4.911,4.911,0,0,1,2.089,2.609c.5,1.023,1.177,2.124,2.287,2.381A3.738,3.738,0,0,0,524.4,96.97a1.57,1.57,0,0,0,.587-.673.572.572,0,0,0-.312-.744c-.155-.04-.327.009-.473-.056-.345-.155-.208-.74-.5-.976-.319-.254-.931.064-1.137-.288-.1-.175-.012-.4-.015-.6-.012-.842-1.563-1.215-1.2-2.048a.663.663,0,0,1,.765-.353c.62.144.889.7,1.182,1.187a1.647,1.647,0,0,0,.984.87c.571.111,1.241-.316,1.7.039.205.158.3.438.531.559a1.422,1.422,0,0,0,.739.035,1.6,1.6,0,0,1,1.506,2.016.965.965,0,0,0-.111.548c.058.215.288.324.469.452a3.62,3.62,0,0,1,1.016,1.865c.247.677.737,1.405,1.457,1.408a8.953,8.953,0,0,1,.38-2.738,3.562,3.562,0,0,0,3.1-2.888c.54-.1.845.622.81,1.171s-.157,1.2.258,1.563c.4.343,1.077.2,1.434.581a2.081,2.081,0,0,1,.313.656,3.676,3.676,0,0,0,1.481,1.485,2.45,2.45,0,0,0,1.462.575.953.953,0,0,0,.677-.311c.416-.484.1-1.129-.324-1.509-.448-.4-1.032-.655-1.313-1.22a.929.929,0,0,1-.055-.729.828.828,0,0,1,.913-.487,5.667,5.667,0,0,0,1.775.008,2.684,2.684,0,0,0,1.267-1.038,2.371,2.371,0,0,0,.576-2.34c-.468-.964-2.057-1.326-1.93-2.417a1.1,1.1,0,0,1,1.119-.924,2.437,2.437,0,0,1,1.959,1.4c.143.231.308.495.616.473a.54.54,0,0,0,.469-.508,1.721,1.721,0,0,0-.537-1.16,1.206,1.206,0,0,1-.314-1.011c.189-.645,1.15-.668,1.556-1.2a1.2,1.2,0,0,0-.045-1.343,3.615,3.615,0,0,0-1.06-.948,1.319,1.319,0,0,1-.712-1.049,3.133,3.133,0,0,1-.048-1.762,1.19,1.19,0,0,1,.7-.737c.877-.31,1.624.651,2.05,1.468.549-.314.5-1.408,1.171-1.36a.721.721,0,0,1,.621.858A2.24,2.24,0,0,0,552,85.212c-.344-.538-.683-1.27-.277-1.764a1.525,1.525,0,0,1,.47-.341l.928-.508a3.416,3.416,0,0,0,1.5-1.242,1.313,1.313,0,0,0,.129-1.017c-.225-.711-1-.88-1.675-.962a28.662,28.662,0,0,0-4.676-.178,14.941,14.941,0,0,1-2.035.021,33.961,33.961,0,0,1-3.97-1A23.007,23.007,0,0,0,537.161,78a5.537,5.537,0,0,1-1.651-.152,10.481,10.481,0,0,1-1.657-.8c-2.477-1.236-5.45-.839-8.108-.065-2.776.808-5.487,2-8.389,2.079a.578.578,0,0,1-.573-.393c-.1-.342.2-.54.407-.759.175-.184.274-.529.055-.658a11.649,11.649,0,0,0-2.652-.833,1.825,1.825,0,0,0-.707-.11c-.4.043-.746.35-1.152.375s-.783-.227-1.18-.181a1.624,1.624,0,0,0-.967.7,16.375,16.375,0,0,0-3.115,4.835l2.177-.431a1.729,1.729,0,0,0,.962-.408,2.162,2.162,0,0,0,.353-.665,4.175,4.175,0,0,1,1.835-2.02.429.429,0,0,1,.553.1c.27.374-.4.719-.2,1.04a2.82,2.82,0,0,1,1.145-.146,1.087,1.087,0,0,0,.754.86c-.309.8-1.785.211-2.279.917-.248.355-.13.918-.471,1.185a1.014,1.014,0,0,1-.524.16,32.587,32.587,0,0,1-3.575.193,4.91,4.91,0,0,0-3.255.713,1.193,1.193,0,0,0-.458,1.282c.125.3.435.517.516.836a.672.672,0,0,1-1.117.557,2.761,2.761,0,0,0-1.932,1.648l-.012.048a1.147,1.147,0,0,0,1.519,1.3.745.745,0,0,1,.226-.032c.2,0,.386.085.583.086a1.424,1.424,0,0,0,.651-.22l.947-.5a1.16,1.16,0,0,0,.345-.242c.383-.441.025-1.317.535-1.6a3.125,3.125,0,0,1,.5-.136c.648-.229.694-1.313,1.436-1.3a.631.631,0,0,1,.491.271.859.859,0,0,0,.178.2c.162.119.386.115.561.214.338.192.36.658.38,1.046s.173.868.56.908a4.65,4.65,0,0,0,.135-1.773c.489.043.687.636.8,1.114s.414,1.058.9.984c.547-.084.864-.985,1.374-.771.192.08.285.294.44.432s.48.127.49-.08c.279-.052.159.415.105.693-.115.6.739.935,1.291.959a1.339,1.339,0,0,1,.509.105c1,.462.616,1.247.074,1.471a2.056,2.056,0,0,1-1.049.067,9.945,9.945,0,0,1-3.185-.967c.079.565-.565.993-1.136.99a9.59,9.59,0,0,1-1.664-.379,12.455,12.455,0,0,0-1.722-.07c-1.308-.062-2.662-.586-3.885-.119a4.984,4.984,0,0,0-1.486,1.029,9.581,9.581,0,0,0-2.53,3.031,3.466,3.466,0,0,0,.378,3.732,1.839,1.839,0,0,1,.464.59,3.881,3.881,0,0,1,.077.663,1.078,1.078,0,0,0,1.513.725,6.093,6.093,0,0,0,.581-.461,3.116,3.116,0,0,1,.929-.407,3.4,3.4,0,0,1,1.364-.229,1.159,1.159,0,0,1,1.035.8c.129.557-.215,1.357.311,1.583.265.009.426-.275.571-.5.167-.255.561-.483.723-.124a.412.412,0,0,1-.18.507c-.8.516-.361,1.43.08,2.068l1.064,1.541a1.739,1.739,0,0,1,.394.908c.015.793-1.005,1.276-1.084,2.065-.069.685.6,1.274.554,1.96a4.208,4.208,0,0,1-.244.821,3.629,3.629,0,0,0,.234,2.066,4.955,4.955,0,0,0,1.193,2.269,1.933,1.933,0,0,0,1.206.533c1.435.066,2.151-1.582,3.258-2.441.428-.332.936-.554,1.334-.922a1.208,1.208,0,0,0,.281-1.681.67.67,0,0,1-.185-.495c.022-.283.238-.332.43-.379,1.038-.257,2.108-1.063,2.04-2.13-.083-1.3-1.808-2.455-.522-3.619a1.548,1.548,0,0,1,.492-.284,5.71,5.71,0,0,0,3.508-4.214.665.665,0,0,0-.094-.494c-.485-.706-1.6.424-1.962-.194-.125-.216-.013-.5-.079-.737-.148-.537-.915-.465-1.448-.626a1.344,1.344,0,0,1-.9-1.487,3.173,3.173,0,0,0,.132-.637,1.93,1.93,0,0,0-.433-.923A1.88,1.88,0,0,1,517.077,93Z" transform="translate(-466.481 -72.048)" fill="#aefff1"/>
        <path id="Trazado_169073" data-name="Trazado 169073" d="M513.883,143.69c.159-.157.394-.249.484-.455.162-.373-.273-.73-.351-1.13a1,1,0,0,1,.7-1.015,11.589,11.589,0,0,1,1.306-.291,2.618,2.618,0,0,0,1.42-.981c.2-.281.378-.625.706-.736a1.285,1.285,0,0,1,.638.006,3.666,3.666,0,0,1,1.762.647,7.576,7.576,0,0,0,.7.646c.831.536,1.962-.063,2.91.214a3.251,3.251,0,0,1,1.243.848,1.679,1.679,0,0,1,.5.661,1.662,1.662,0,0,1,.037.631l-.135,1.978a2.652,2.652,0,0,1-.134.784c-.427,1.1-2.009,1.166-2.786,2.049a7.537,7.537,0,0,0-.768,1.409,1.423,1.423,0,0,1-1.255.858,1.378,1.378,0,0,1-1.043-1.208c-.107-.56-.048-1.149-.209-1.7s-.664-1.072-1.225-.966c-.125.024-.267.075-.37,0-.083-.059-.1-.174-.163-.255-.134-.173-.4-.132-.613-.073-.633.177-2.512,1.055-2.978.533a5.361,5.361,0,0,1-.451-1.175A1.215,1.215,0,0,1,513.883,143.69Z" transform="translate(-445.188 -100.273)" fill="#aefff1"/>
      </g>
      <g id="Grupo_129082" data-name="Grupo 129082" transform="translate(217.208 103.726)">
        <g id="Grupo_129076" data-name="Grupo 129076" transform="translate(89.119 5.07)">
          <path id="Trazado_169074" data-name="Trazado 169074" d="M86.3,245.156l4.563-4.493.046.062a3.126,3.126,0,0,0,1.6,1.11,3.016,3.016,0,0,0,1.436.081,3.125,3.125,0,0,0,1.714-.92l.054-.057,4.119,5.157a1,1,0,0,1-1.556,1.243L95.6,243.987l-.2,3.547c0,.014,0,.026-.006.039s0,.031,0,.048l-.509,8.95a.937.937,0,1,1-1.868-.106l.378-6.638a2.248,2.248,0,0,1-1.236-.07l-.378,6.638a.937.937,0,1,1-1.868-.106l.509-8.95c0-.015,0-.029.007-.045s0-.028,0-.042l.2-3.565L87.7,246.576a1,1,0,0,1-1.4-1.42Z" transform="translate(-86.003 -236.7)" fill="#aefff1"/>
          <path id="Trazado_169075" data-name="Trazado 169075" d="M102.542,240.637l-.046-.062.11-.108C102.582,240.522,102.563,240.58,102.542,240.637Z" transform="translate(-97.635 -236.612)" fill="#aefff1"/>
          <path id="Trazado_169076" data-name="Trazado 169076" d="M94.2,235.483a2.14,2.14,0,1,0,2.258-2.015A2.14,2.14,0,0,0,94.2,235.483Z" transform="translate(-88.942 -233.465)" fill="#aefff1"/>
        </g>
        <g id="Grupo_129077" data-name="Grupo 129077" transform="translate(71.707 4.08)">
          <path id="Trazado_169077" data-name="Trazado 169077" d="M117.932,243.357l4.563-4.493c.015.021.031.041.046.062a3.123,3.123,0,0,0,4.752.271l.054-.057,4.119,5.157a1,1,0,0,1-1.556,1.243l-2.677-3.352-.2,3.547c0,.014-.006.026-.006.04s0,.031,0,.047l-.509,8.95a.937.937,0,1,1-1.868-.106l.378-6.638a2.242,2.242,0,0,1-1.236-.07l-.378,6.638a.937.937,0,1,1-1.868-.107l.509-8.95c0-.015,0-.029.007-.045s0-.028,0-.042l.2-3.565-2.935,2.889a1,1,0,0,1-1.4-1.419Z" transform="translate(-117.634 -234.901)" fill="#aefff1"/>
          <path id="Trazado_169078" data-name="Trazado 169078" d="M134.173,238.837c-.015-.02-.031-.041-.046-.062l.11-.108C134.213,238.722,134.194,238.78,134.173,238.837Z" transform="translate(-129.266 -234.813)" fill="#aefff1"/>
          <ellipse id="Elipse_5092" data-name="Elipse 5092" cx="2.14" cy="2.14" rx="2.14" ry="2.14" transform="translate(5.258)" fill="#aefff1"/>
        </g>
        <g id="Grupo_129078" data-name="Grupo 129078" transform="translate(35.907 2.043)">
          <path id="Trazado_169079" data-name="Trazado 169079" d="M182.966,239.656l4.563-4.492.047.062a3.122,3.122,0,0,0,4.752.27l.054-.057L196.5,240.6a1,1,0,0,1-1.556,1.243l-2.678-3.352-.2,3.547c0,.014-.006.026-.007.04s0,.031,0,.047l-.509,8.95a.937.937,0,1,1-1.868-.106l.378-6.638a2.24,2.24,0,0,1-1.235-.07l-.378,6.638a.937.937,0,1,1-1.868-.106l.509-8.95c0-.015.006-.029.007-.045s0-.028,0-.042l.2-3.565-2.935,2.889a1,1,0,0,1-1.4-1.42Z" transform="translate(-182.669 -231.201)" fill="#aefff1"/>
          <path id="Trazado_169080" data-name="Trazado 169080" d="M199.209,235.137l-.047-.062.11-.108C199.248,235.022,199.229,235.08,199.209,235.137Z" transform="translate(-194.301 -231.113)" fill="#aefff1"/>
          <ellipse id="Elipse_5093" data-name="Elipse 5093" cx="2.14" cy="2.14" rx="2.14" ry="2.14" transform="translate(5.258)" fill="#aefff1"/>
        </g>
        <g id="Grupo_129079" data-name="Grupo 129079" transform="translate(17.964 1.022)">
          <path id="Trazado_169081" data-name="Trazado 169081" d="M215.562,237.8l4.563-4.493c.015.021.031.041.046.062a3.123,3.123,0,0,0,4.752.271c.018-.019.036-.037.054-.057l4.119,5.158a1,1,0,0,1-1.556,1.243l-2.678-3.352-.2,3.547c0,.013,0,.026-.006.039s0,.031,0,.048l-.509,8.95a.937.937,0,1,1-1.868-.106l.378-6.638a2.246,2.246,0,0,1-1.235-.07l-.378,6.638a.937.937,0,1,1-1.868-.106l.509-8.95c0-.015.006-.03.007-.045s0-.028,0-.042l.2-3.565-2.935,2.889a1,1,0,1,1-1.4-1.419Z" transform="translate(-215.265 -229.346)" fill="#aefff1"/>
          <path id="Trazado_169082" data-name="Trazado 169082" d="M231.8,233.282c-.015-.02-.031-.041-.046-.062l.11-.108C231.844,233.168,231.825,233.225,231.8,233.282Z" transform="translate(-226.897 -229.258)" fill="#aefff1"/>
          <path id="Trazado_169083" data-name="Trazado 169083" d="M223.465,228.129a2.14,2.14,0,1,0,2.258-2.015A2.14,2.14,0,0,0,223.465,228.129Z" transform="translate(-218.203 -226.111)" fill="#aefff1"/>
        </g>
        <g id="Grupo_129080" data-name="Grupo 129080">
          <path id="Trazado_169084" data-name="Trazado 169084" d="M248.2,235.945l4.563-4.493.046.062a3.128,3.128,0,0,0,1.6,1.11,3.016,3.016,0,0,0,1.436.081,3.125,3.125,0,0,0,1.714-.92l.055-.057,4.119,5.157a1,1,0,1,1-1.556,1.243l-2.677-3.352-.2,3.547c0,.014,0,.026-.006.04s0,.031,0,.047l-.509,8.95a.937.937,0,1,1-1.868-.106l.378-6.638a2.255,2.255,0,0,1-1.236-.07l-.378,6.638a.937.937,0,1,1-1.868-.106l.509-8.95c0-.015.005-.029.007-.045s0-.028,0-.042l.2-3.565-2.934,2.889a1,1,0,0,1-1.4-1.42Z" transform="translate(-247.898 -227.489)" fill="#aefff1"/>
          <path id="Trazado_169085" data-name="Trazado 169085" d="M264.437,231.426l-.046-.062.11-.108C264.477,231.311,264.458,231.369,264.437,231.426Z" transform="translate(-259.53 -227.401)" fill="#aefff1"/>
          <path id="Trazado_169086" data-name="Trazado 169086" d="M256.1,226.272a2.14,2.14,0,1,0,2.258-2.015A2.14,2.14,0,0,0,256.1,226.272Z" transform="translate(-250.837 -224.254)" fill="#aefff1"/>
        </g>
        <g id="Grupo_129081" data-name="Grupo 129081" transform="translate(54.074 3.077)">
          <path id="Trazado_169087" data-name="Trazado 169087" d="M149.963,241.534l4.563-4.493.046.062a3.153,3.153,0,0,0,2.314,1.237,3.094,3.094,0,0,0,.724-.046,3.13,3.13,0,0,0,1.715-.92l.054-.057,4.119,5.158a1,1,0,0,1-1.556,1.243l-2.678-3.352-.2,3.547c0,.014,0,.026-.006.039s0,.031,0,.048l-.509,8.95a.937.937,0,1,1-1.868-.106l.378-6.638a2.246,2.246,0,0,1-1.235-.07l-.378,6.638a.937.937,0,1,1-1.868-.106l.509-8.95c0-.015.006-.029.007-.045s0-.028,0-.042l.2-3.565-2.935,2.889a1,1,0,1,1-1.4-1.419Z" transform="translate(-149.666 -233.078)" fill="#aefff1"/>
          <path id="Trazado_169088" data-name="Trazado 169088" d="M166.205,237.015l-.046-.062.11-.108C166.245,236.9,166.226,236.958,166.205,237.015Z" transform="translate(-161.298 -232.99)" fill="#aefff1"/>
          <path id="Trazado_169089" data-name="Trazado 169089" d="M157.866,231.861a2.14,2.14,0,1,0,2.258-2.015A2.139,2.139,0,0,0,157.866,231.861Z" transform="translate(-152.604 -229.843)" fill="#aefff1"/>
        </g>
      </g>
      <g id="Grupo_129089" data-name="Grupo 129089" transform="translate(217.208 130.947)">
        <g id="Grupo_129083" data-name="Grupo 129083" transform="translate(89.119 5.07)">
          <path id="Trazado_169090" data-name="Trazado 169090" d="M86.3,294.607l4.563-4.493c.015.021.031.041.046.062a3.123,3.123,0,0,0,4.752.271l.054-.057,4.119,5.158a1,1,0,0,1-1.556,1.243L95.6,293.438l-.2,3.547c0,.014,0,.026-.006.04s0,.031,0,.047l-.509,8.95a.937.937,0,1,1-1.868-.106l.378-6.638a2.249,2.249,0,0,1-1.236-.07l-.378,6.638a.937.937,0,1,1-1.868-.106l.509-8.95c0-.015,0-.03.007-.045s0-.028,0-.042l.2-3.565L87.7,296.026a1,1,0,1,1-1.4-1.419Z" transform="translate(-86.003 -286.151)" fill="#aefff1"/>
          <path id="Trazado_169091" data-name="Trazado 169091" d="M102.542,290.087c-.015-.02-.031-.041-.046-.062l.11-.108C102.582,289.972,102.563,290.03,102.542,290.087Z" transform="translate(-97.635 -286.063)" fill="#aefff1"/>
          <path id="Trazado_169092" data-name="Trazado 169092" d="M94.2,284.934a2.14,2.14,0,1,0,2.258-2.015A2.141,2.141,0,0,0,94.2,284.934Z" transform="translate(-88.942 -282.916)" fill="#aefff1"/>
        </g>
        <g id="Grupo_129084" data-name="Grupo 129084" transform="translate(71.707 4.08)">
          <path id="Trazado_169093" data-name="Trazado 169093" d="M117.932,292.807l4.563-4.493.046.062a3.126,3.126,0,0,0,1.6,1.11,3.015,3.015,0,0,0,1.436.081,3.128,3.128,0,0,0,1.714-.92c.018-.019.036-.037.054-.057l4.119,5.158a1,1,0,0,1-1.556,1.243l-2.677-3.352-.2,3.547c0,.013-.006.026-.006.039s0,.031,0,.048l-.509,8.95a.937.937,0,1,1-1.868-.106l.378-6.638a2.248,2.248,0,0,1-1.236-.07l-.378,6.638a.937.937,0,1,1-1.868-.106l.509-8.95c0-.015,0-.029.007-.045s0-.028,0-.042l.2-3.565-2.935,2.889a1,1,0,1,1-1.4-1.419Z" transform="translate(-117.634 -284.352)" fill="#aefff1"/>
          <path id="Trazado_169094" data-name="Trazado 169094" d="M134.173,288.288l-.046-.062.11-.108C134.213,288.173,134.194,288.231,134.173,288.288Z" transform="translate(-129.266 -284.263)" fill="#aefff1"/>
          <ellipse id="Elipse_5094" data-name="Elipse 5094" cx="2.14" cy="2.14" rx="2.14" ry="2.14" transform="translate(5.258)" fill="#aefff1"/>
        </g>
        <g id="Grupo_129085" data-name="Grupo 129085" transform="translate(35.907 2.043)">
          <path id="Trazado_169095" data-name="Trazado 169095" d="M182.966,289.107l4.563-4.493.047.062a3.123,3.123,0,0,0,4.752.27c.018-.019.036-.037.054-.057l4.119,5.158a1,1,0,0,1-1.556,1.243l-2.678-3.352-.2,3.547c0,.013-.006.026-.007.039s0,.031,0,.048l-.509,8.95a.937.937,0,1,1-1.868-.106l.378-6.638a2.246,2.246,0,0,1-1.235-.07l-.378,6.638a.937.937,0,1,1-1.868-.106l.509-8.95c0-.015.006-.03.007-.045s0-.028,0-.042l.2-3.565-2.935,2.889a1,1,0,1,1-1.4-1.419Z" transform="translate(-182.669 -280.651)" fill="#aefff1"/>
          <path id="Trazado_169096" data-name="Trazado 169096" d="M199.209,284.588l-.047-.062.11-.108C199.248,284.473,199.229,284.53,199.209,284.588Z" transform="translate(-194.301 -280.563)" fill="#aefff1"/>
          <ellipse id="Elipse_5095" data-name="Elipse 5095" cx="2.14" cy="2.14" rx="2.14" ry="2.14" transform="translate(5.258)" fill="#aefff1"/>
        </g>
        <g id="Grupo_129086" data-name="Grupo 129086" transform="translate(17.964 1.022)">
          <path id="Trazado_169097" data-name="Trazado 169097" d="M215.562,287.253l4.563-4.493c.015.021.031.041.046.062a3.123,3.123,0,0,0,4.752.27l.054-.057,4.119,5.157a1,1,0,0,1-1.556,1.243l-2.678-3.352-.2,3.547c0,.014,0,.026-.006.04s0,.031,0,.047l-.509,8.95a.937.937,0,1,1-1.868-.106l.378-6.638a2.253,2.253,0,0,1-1.235-.07l-.378,6.638a.937.937,0,1,1-1.868-.106l.509-8.95c0-.015.006-.029.007-.045s0-.028,0-.042l.2-3.565-2.935,2.889a1,1,0,1,1-1.4-1.419Z" transform="translate(-215.265 -278.797)" fill="#aefff1"/>
          <path id="Trazado_169098" data-name="Trazado 169098" d="M231.8,282.733c-.015-.02-.031-.041-.046-.062l.11-.108C231.844,282.618,231.825,282.676,231.8,282.733Z" transform="translate(-226.897 -278.708)" fill="#aefff1"/>
          <path id="Trazado_169099" data-name="Trazado 169099" d="M223.465,277.579a2.14,2.14,0,1,0,2.258-2.015A2.139,2.139,0,0,0,223.465,277.579Z" transform="translate(-218.203 -275.561)" fill="#aefff1"/>
        </g>
        <g id="Grupo_129087" data-name="Grupo 129087">
          <path id="Trazado_169100" data-name="Trazado 169100" d="M248.2,285.4l4.563-4.493c.015.021.031.041.046.062a3.123,3.123,0,0,0,4.752.271l.055-.057,4.119,5.158a1,1,0,1,1-1.556,1.243l-2.677-3.352-.2,3.547c0,.013,0,.026-.006.039s0,.031,0,.047l-.509,8.95a.937.937,0,1,1-1.868-.106l.378-6.638a2.248,2.248,0,0,1-1.236-.07l-.378,6.638a.937.937,0,1,1-1.868-.106l.509-8.95c0-.015.005-.03.007-.045s0-.028,0-.042l.2-3.565-2.934,2.889a1,1,0,1,1-1.4-1.419Z" transform="translate(-247.898 -276.94)" fill="#aefff1"/>
          <path id="Trazado_169101" data-name="Trazado 169101" d="M264.437,280.876c-.015-.02-.031-.041-.046-.062l.11-.108C264.477,280.762,264.458,280.819,264.437,280.876Z" transform="translate(-259.53 -276.852)" fill="#aefff1"/>
          <path id="Trazado_169102" data-name="Trazado 169102" d="M256.1,275.723a2.14,2.14,0,1,0,2.258-2.015A2.14,2.14,0,0,0,256.1,275.723Z" transform="translate(-250.837 -273.705)" fill="#aefff1"/>
        </g>
        <g id="Grupo_129088" data-name="Grupo 129088" transform="translate(54.074 3.077)">
          <path id="Trazado_169103" data-name="Trazado 169103" d="M149.963,290.985l4.563-4.493c.015.021.031.041.046.062a3.123,3.123,0,0,0,4.752.271l.054-.057,4.119,5.157a1,1,0,1,1-1.556,1.243l-2.678-3.352-.2,3.547c0,.013,0,.026-.006.039s0,.031,0,.047l-.509,8.95a.937.937,0,1,1-1.868-.106l.378-6.638a2.246,2.246,0,0,1-1.235-.07l-.378,6.638a.937.937,0,1,1-1.868-.106l.509-8.95c0-.015.006-.03.007-.045s0-.028,0-.042l.2-3.565L151.36,292.4a1,1,0,1,1-1.4-1.419Z" transform="translate(-149.666 -282.529)" fill="#aefff1"/>
          <path id="Trazado_169104" data-name="Trazado 169104" d="M166.205,286.465c-.015-.02-.031-.041-.046-.062l.11-.108C166.245,286.35,166.226,286.408,166.205,286.465Z" transform="translate(-161.298 -282.441)" fill="#aefff1"/>
          <path id="Trazado_169105" data-name="Trazado 169105" d="M157.866,281.312a2.14,2.14,0,1,0,2.258-2.015A2.139,2.139,0,0,0,157.866,281.312Z" transform="translate(-152.604 -279.294)" fill="#aefff1"/>
        </g>
      </g>
      <g id="Grupo_129100" data-name="Grupo 129100" transform="translate(109.123 108.132)">
        <g id="Grupo_129091" data-name="Grupo 129091" transform="translate(0 17.748)">
          <g id="Grupo_129090" data-name="Grupo 129090">
            <path id="Trazado_169106" data-name="Trazado 169106" d="M441.679,267.488a.275.275,0,0,0,.016-.55L408.8,265a.275.275,0,0,0-.032.549l32.9,1.935Z" transform="translate(-408.229 -264.725)" fill="#aefff1"/>
            <path id="Trazado_169107" data-name="Trazado 169107" d="M441.454,267.537a.551.551,0,0,0,.411-.917.546.546,0,0,0-.38-.183l-32.9-1.935a.516.516,0,0,0-.389.13.556.556,0,0,0-.192.387.55.55,0,0,0,.517.582Zm0-.55v.275l0-.275-32.9-1.935Z" transform="translate(-408.004 -264.499)" fill="#aefff1"/>
          </g>
        </g>
        <g id="Grupo_129092" data-name="Grupo 129092" transform="translate(31.051 1.753)">
          <path id="Trazado_169108" data-name="Trazado 169108" d="M410.976,254.363a.551.551,0,0,0,.55-.534l.516-17.818a.551.551,0,0,0-1.1-.032l-.516,17.817a.551.551,0,0,0,.534.567Z" transform="translate(-410.425 -235.443)" fill="#aefff1"/>
        </g>
        <g id="Grupo_129093" data-name="Grupo 129093" transform="translate(26.828 6.606)">
          <path id="Trazado_169109" data-name="Trazado 169109" d="M418.648,257.794a.55.55,0,0,0,.549-.528l.516-12.436a.55.55,0,0,0-.527-.572.568.568,0,0,0-.573.527l-.516,12.436a.55.55,0,0,0,.527.573Z" transform="translate(-418.097 -244.258)" fill="#aefff1"/>
        </g>
        <g id="Grupo_129094" data-name="Grupo 129094" transform="translate(22.604 1.139)">
          <path id="Trazado_169110" data-name="Trazado 169110" d="M426.32,253.247a.551.551,0,0,0,.55-.535l.516-17.818a.551.551,0,0,0-.534-.566.545.545,0,0,0-.566.535l-.516,17.817a.552.552,0,0,0,.535.567Z" transform="translate(-425.769 -234.326)" fill="#aefff1"/>
        </g>
        <g id="Grupo_129095" data-name="Grupo 129095" transform="translate(18.381 10.662)">
          <path id="Trazado_169111" data-name="Trazado 169111" d="M434.525,260.408a.55.55,0,0,0,.55-.534l.222-7.681a.551.551,0,1,0-1.1-.032l-.222,7.681a.551.551,0,0,0,.534.566Z" transform="translate(-433.974 -251.626)" fill="#aefff1"/>
        </g>
        <g id="Grupo_129096" data-name="Grupo 129096" transform="translate(14.365 5.668)">
          <path id="Trazado_169112" data-name="Trazado 169112" d="M441.554,256.42a.551.551,0,0,0,.55-.535l.369-12.764a.551.551,0,0,0-1.1-.032L441,255.853a.551.551,0,0,0,.534.567Z" transform="translate(-441.003 -242.555)" fill="#aefff1"/>
        </g>
        <g id="Grupo_129097" data-name="Grupo 129097" transform="translate(10.142)">
          <path id="Trazado_169113" data-name="Trazado 169113" d="M448.96,251.177a.55.55,0,0,0,.55-.534l.515-17.818a.551.551,0,0,0-1.1-.032l-.515,17.818a.55.55,0,0,0,.534.566Z" transform="translate(-448.409 -232.258)" fill="#aefff1"/>
        </g>
        <g id="Grupo_129098" data-name="Grupo 129098" transform="translate(5.73 8.602)">
          <path id="Trazado_169114" data-name="Trazado 169114" d="M457.41,258.508a.551.551,0,0,0,.55-.534l.276-9.523a.551.551,0,0,0-1.1-.032l-.276,9.523a.551.551,0,0,0,.535.566Z" transform="translate(-456.859 -247.884)" fill="#aefff1"/>
        </g>
        <g id="Grupo_129099" data-name="Grupo 129099" transform="translate(1.506 3.841)">
          <path id="Trazado_169115" data-name="Trazado 169115" d="M464.864,254.007a.551.551,0,0,0,.55-.535l.4-13.669a.551.551,0,0,0-1.1-.031l-.4,13.668a.552.552,0,0,0,.535.567Z" transform="translate(-464.313 -239.236)" fill="#aefff1"/>
        </g>
      </g>
      <g id="Grupo_129113" data-name="Grupo 129113" transform="translate(245.97 19.48)">
        <g id="Grupo_129101" data-name="Grupo 129101" transform="translate(5.198 1.132)" opacity="0.37">
          <path id="Trazado_169116" data-name="Trazado 169116" d="M87.362,108.4l7.813-25.486,6.254,17.55,7.75-27.194,6.175,23.883,6.69,4.011,6.915-7.916,6.879,4.365,7.249-11.86,6.657,5.006,6.079-11.981-.985,31.9Z" transform="translate(-87.362 -73.268)" fill="#fff"/>
        </g>
        <g id="Grupo_129112" data-name="Grupo 129112">
          <g id="Grupo_129102" data-name="Grupo 129102" transform="translate(0 0.945)">
            <path id="Trazado_169117" data-name="Trazado 169117" d="M158.541,111.073a.55.55,0,0,0,.55-.532L160.348,73.5a.551.551,0,0,0-1.1-.037l-1.239,36.493-71.573-2.429a.551.551,0,0,0-.037,1.1l72.122,2.448Z" transform="translate(-85.867 -72.929)" fill="#aefff1"/>
          </g>
          <g id="Grupo_129103" data-name="Grupo 129103" transform="translate(66.67 18.611)">
            <path id="Trazado_169118" data-name="Trazado 169118" d="M98.455,123.745l.037-1.1-.55-.019-.037,1.1Zm.075-2.2.037-1.1-.55-.019-.037,1.1Zm.074-2.2.037-1.1-.55-.019-.037,1.1Zm.075-2.2.037-1.1-.55-.019-.037,1.1Zm.075-2.2.037-1.1-.55-.019-.037,1.1Zm.074-2.2.037-1.1-.55-.018-.037,1.1Zm.075-2.2.037-1.1-.55-.019-.037,1.1Zm.075-2.2.037-1.1-.55-.019-.037,1.1Zm.074-2.2.037-1.1-.55-.019-.037,1.1Z" transform="translate(-97.905 -105.02)" fill="#aefff1"/>
          </g>
          <g id="Grupo_129104" data-name="Grupo 129104" transform="translate(60.028 13.733)">
            <path id="Trazado_169119" data-name="Trazado 169119" d="M110.249,119.285l.037-1.1-.55-.019-.037,1.1Zm.075-2.2.037-1.1-.55-.019-.037,1.1Zm.075-2.2.037-1.1-.55-.019-.037,1.1Zm.075-2.2.037-1.1-.55-.019-.037,1.1Zm.074-2.2.037-1.1-.55-.019-.037,1.1Zm.075-2.2.037-1.1-.55-.019-.037,1.1Zm.074-2.2.037-1.1-.55-.019-.037,1.1Zm.075-2.2.037-1.1-.55-.019-.037,1.1Zm.075-2.2.037-1.1-.55-.019-.037,1.1Zm.075-2.2.037-1.1-.55-.019-.037,1.1Zm.074-2.2.037-1.1-.55-.019-.037,1.1Z" transform="translate(-109.699 -96.159)" fill="#aefff1"/>
          </g>
          <g id="Grupo_129105" data-name="Grupo 129105" transform="translate(52.993 25.149)">
            <path id="Trazado_169120" data-name="Trazado 169120" d="M123.708,129.02l.037-1.1-.55-.019-.037,1.1Zm.075-2.2.037-1.1-.55-.018-.037,1.1Zm.074-2.2.037-1.1-.55-.019-.037,1.1Zm.075-2.2.037-1.1-.55-.019-.037,1.1Zm.075-2.2.037-1.1-.55-.019-.037,1.1Zm.074-2.2.037-1.1-.55-.019-.037,1.1Z" transform="translate(-123.158 -116.898)" fill="#aefff1"/>
          </g>
          <g id="Grupo_129106" data-name="Grupo 129106" transform="translate(39.357 28.614)">
            <path id="Trazado_169121" data-name="Trazado 169121" d="M148.75,130.914l.037-1.1-.55-.019-.037,1.1Zm.075-2.2.037-1.1-.55-.019-.037,1.1Zm.075-2.2.037-1.1-.55-.019-.037,1.1Zm.074-2.2.037-1.1-.55-.019-.037,1.1Z" transform="translate(-148.2 -123.192)" fill="#aefff1"/>
          </g>
          <g id="Grupo_129107" data-name="Grupo 129107" transform="translate(32.245 24.761)">
            <path id="Trazado_169122" data-name="Trazado 169122" d="M161.4,128.315l.037-1.1-.55-.019-.037,1.1Zm.075-2.2.037-1.1-.55-.019-.037,1.1Zm.075-2.2.037-1.1-.55-.019L161,123.9Zm.074-2.2.037-1.1-.55-.019-.037,1.1Zm.075-2.2.037-1.1-.55-.019-.037,1.1Zm.074-2.2.037-1.1-.55-.019-.037,1.1Z" transform="translate(-160.849 -116.193)" fill="#aefff1"/>
          </g>
          <g id="Grupo_129108" data-name="Grupo 129108" transform="translate(25.531 1.122)">
            <path id="Trazado_169123" data-name="Trazado 169123" d="M172.147,108.846l.013-.366-.55-.019-.013.366Zm.05-1.466.037-1.1-.55-.019-.037,1.1Zm.074-2.2.037-1.1-.55-.019-.037,1.1Zm.075-2.2.037-1.1-.55-.019-.037,1.1Zm.075-2.2.037-1.1-.55-.019-.037,1.1Zm.075-2.2.037-1.1-.549-.019-.037,1.1Zm.074-2.2.037-1.1-.55-.019-.037,1.1Zm.075-2.2.037-1.1-.55-.019-.037,1.1Zm.075-2.2.037-1.1-.55-.019-.037,1.1Zm.075-2.2.037-1.1-.55-.019-.037,1.1Zm.074-2.2.037-1.1-.55-.019-.037,1.1Zm.075-2.2.037-1.1-.55-.019-.037,1.1Zm.074-2.2.037-1.1-.55-.019-.037,1.1Zm.075-2.2.037-1.1-.55-.019-.037,1.1Zm.075-2.2.037-1.1-.55-.019-.037,1.1Zm.075-2.2.037-1.1-.55-.019-.037,1.1Zm.074-2.2.037-1.1-.55-.019-.037,1.1Z" transform="translate(-171.597 -73.251)" fill="#aefff1"/>
          </g>
          <g id="Grupo_129109" data-name="Grupo 129109" transform="translate(18.343 27.528)">
            <path id="Trazado_169124" data-name="Trazado 169124" d="M186.848,130.165l0-.124-.55-.019,0,.124Zm.042-1.225.037-1.1-.55-.019-.037,1.1Zm.074-2.2.037-1.1-.55-.019-.037,1.1Zm.075-2.2.037-1.1-.55-.019-.037,1.1Zm.075-2.2.037-1.1-.55-.019-.037,1.1Z" transform="translate(-186.298 -121.22)" fill="#aefff1"/>
          </g>
          <g id="Grupo_129110" data-name="Grupo 129110" transform="translate(11.874 10.944)">
            <path id="Trazado_169125" data-name="Trazado 169125" d="M197.592,116.4l.037-1.084-.55-.019-.037,1.084Zm.074-2.185.037-1.1-.55-.019-.037,1.1Zm.074-2.2.037-1.1-.55-.019-.037,1.1Zm.075-2.2.037-1.1-.55-.019-.037,1.1Zm.075-2.2.037-1.1-.55-.019-.037,1.1Zm.075-2.2.037-1.1-.55-.019-.037,1.1Zm.074-2.2.037-1.1-.55-.019-.037,1.1Zm.075-2.2.037-1.1-.55-.019-.037,1.1Zm.074-2.2.037-1.1-.55-.019-.037,1.1Zm.075-2.2.037-1.1-.55-.019-.037,1.1Zm.075-2.2.037-1.1-.55-.019-.037,1.1Zm.075-2.2.037-1.1-.55-.019-.037,1.1Z" transform="translate(-197.042 -91.093)" fill="#aefff1"/>
          </g>
          <g id="Grupo_129111" data-name="Grupo 129111" transform="translate(46.167 21.108)">
            <path id="Trazado_169126" data-name="Trazado 169126" d="M135.849,125.866l.03-.887-.55-.019-.03.887Zm.068-1.987.037-1.1-.55-.019-.037,1.1Zm.075-2.2.037-1.1-.55-.019-.037,1.1Zm.074-2.2.037-1.1-.55-.019-.037,1.1Zm.075-2.2.037-1.1-.55-.019-.037,1.1Zm.075-2.2.037-1.1-.55-.019-.037,1.1Zm.074-2.2.037-1.1-.55-.019-.037,1.1Zm.075-2.2.037-1.1-.55-.019-.037,1.1Z" transform="translate(-135.299 -109.556)" fill="#aefff1"/>
          </g>
          <path id="Trazado_169127" data-name="Trazado 169127" d="M96.418,102.253a1.132,1.132,0,1,0,1.132-1.132A1.132,1.132,0,0,0,96.418,102.253Z" transform="translate(-30.008 -84.657)" fill="#aefff1"/>
          <path id="Trazado_169128" data-name="Trazado 169128" d="M121.61,116.565a1.132,1.132,0,1,0,1.132-1.132A1.132,1.132,0,0,0,121.61,116.565Z" transform="translate(-69.068 -91.09)" fill="#aefff1"/>
          <path id="Trazado_169129" data-name="Trazado 169129" d="M146.551,122.268a1.132,1.132,0,1,0,1.132-1.131A1.132,1.132,0,0,0,146.551,122.268Z" transform="translate(-107.738 -93.654)" fill="#aefff1"/>
          <path id="Trazado_169130" data-name="Trazado 169130" d="M108.441,95.019a1.132,1.132,0,1,0,1.131-1.131A1.131,1.131,0,0,0,108.441,95.019Z" transform="translate(-48.649 -81.405)" fill="#aefff1"/>
          <path id="Trazado_169131" data-name="Trazado 169131" d="M134.32,109.323a1.132,1.132,0,1,0,1.132-1.132A1.131,1.131,0,0,0,134.32,109.323Z" transform="translate(-88.774 -87.835)" fill="#aefff1"/>
          <path id="Trazado_169132" data-name="Trazado 169132" d="M169.813,72.344a1.132,1.132,0,1,0,1.132-1.132A1.131,1.131,0,0,0,169.813,72.344Z" transform="translate(-143.805 -71.212)" fill="#aefff1"/>
          <path id="Trazado_169133" data-name="Trazado 169133" d="M158.793,115.269a1.132,1.132,0,1,0,1.131-1.132A1.131,1.131,0,0,0,158.793,115.269Z" transform="translate(-126.719 -90.508)" fill="#aefff1"/>
          <path id="Trazado_169134" data-name="Trazado 169134" d="M196.053,90.112a1.132,1.132,0,1,0,1.132-1.132A1.132,1.132,0,0,0,196.053,90.112Z" transform="translate(-184.489 -79.199)" fill="#aefff1"/>
          <path id="Trazado_169135" data-name="Trazado 169135" d="M185.242,120.3a1.132,1.132,0,1,0,1.132-1.132A1.131,1.131,0,0,0,185.242,120.3Z" transform="translate(-167.727 -92.767)" fill="#aefff1"/>
        </g>
      </g>
      <g id="Grupo_129116" data-name="Grupo 129116" transform="translate(117.599 6.884)">
        <g id="Grupo_129114" data-name="Grupo 129114">
          <path id="Trazado_169136" data-name="Trazado 169136" d="M447.911,48.33v3.178a4.732,4.732,0,0,0-4.732,4.732H440A7.911,7.911,0,0,1,447.911,48.33Z" transform="translate(-440.001 -48.33)" fill="#aefff1" opacity="0.56"/>
        </g>
        <g id="Grupo_129115" data-name="Grupo 129115" transform="translate(0)">
          <path id="Trazado_169137" data-name="Trazado 169137" d="M433.541,60.973a4.732,4.732,0,1,0,0-9.465V48.33a7.91,7.91,0,1,1-7.91,7.91h3.178A4.732,4.732,0,0,0,433.541,60.973Z" transform="translate(-425.631 -48.33)" fill="#aefff1"/>
        </g>
      </g>
    </g>
  </g>
</svg>
