<svg xmlns="http://www.w3.org/2000/svg" width="1268.925" height="828" viewBox="0 0 1268.925 828">
  <g id="Grupo_132657" data-name="Grupo 132657" transform="translate(-178.5 -447)">
    <text id="Visualización_y_diseño_de_formas_complejas_" data-name="Visualización y diseño de formas complejas " transform="translate(800.333 472)" fill="#12263f" font-size="24" font-family="Roboto-Black, Roboto" font-weight="800"><tspan x="-240.492" y="0">Visualización y diseño de formas complejas </tspan></text>
    <g id="Grupo_128838" data-name="Grupo 128838" transform="translate(280.247 540.855)">
      <path id="Trazado_113808" data-name="Trazado 113808" d="M290.925,208.278l77.585,25.209A117.339,117.339,0,0,1,480,152.706V71.144A198.93,198.93,0,0,0,290.925,208.278Z" fill="#dfe5e8"/>
      <path id="Trazado_113811" data-name="Trazado 113811" d="M669.243,208.8l-77.585,25.209a117.415,117.415,0,0,1-43.371,131.365l47.94,65.984A199.048,199.048,0,0,0,669.243,208.8Z" fill="#b3c2c9"/>
      <path id="Trazado_168877" data-name="Trazado 168877" d="M669.255,208.835h0l0-.012-.008-.026h0A198.932,198.932,0,0,0,480,71.144h-.037v81.562H480a117.272,117.272,0,0,1,94.718,186.472l12.894,7.141,59.335,31.689A199.038,199.038,0,0,0,669.255,208.835Z" fill="#1e4051"/>
      <circle id="Elipse_4794" data-name="Elipse 4794" cx="40.783" cy="40.783" r="40.783" transform="translate(568.852 320.208)" fill="#1e4051"/>
      <g id="_03" data-name=" 03" style="isolation: isolate">
        <text id="_01" data-name="01" transform="translate(587.452 371.171)" fill="#fff" font-size="37" font-family="Roboto-Bold, Roboto" font-weight="700" style="isolation: isolate"><tspan x="0" y="0">01</tspan></text>
      </g>
      <path id="Trazado_168878" data-name="Trazado 168878" d="M369.545,309.5a117.611,117.611,0,0,1-1.024-76.045l-77.585-25.206a198.85,198.85,0,0,0,3.559,133.325Z" fill="#dfe5e8"/>
      <path id="Trazado_168879" data-name="Trazado 168879" d="M369.545,309.5l-75.05,32.074a198.715,198.715,0,0,0,67.994,88.848l47.941-65.984A117.094,117.094,0,0,1,369.545,309.5Z" fill="#b3c2c9"/>
      <path id="Trazado_113810" data-name="Trazado 113810" d="M480,468.855a197.935,197.935,0,0,0,116.258-37.521l-47.941-65.986a117.3,117.3,0,0,1-137.917-.935L362.459,430.4A197.94,197.94,0,0,0,480,468.855Z" fill="#b3c2c9"/>
      <g id="Grupo_80853" data-name="Grupo 80853">
        <circle id="Elipse_4792" data-name="Elipse 4792" cx="40.781" cy="40.781" r="40.781" transform="translate(295.155 294.49)" fill="#b3c2c9"/>
        <g id="_01-2" data-name=" 01" style="isolation: isolate">
          <text id="_02" data-name="02" transform="translate(313.759 345.435)" fill="#1e4051" font-size="37" font-family="Roboto-Bold, Roboto" font-weight="700" style="isolation: isolate"><tspan x="0" y="0">02</tspan></text>
        </g>
      </g>
      <circle id="Elipse_4796" data-name="Elipse 4796" cx="40.781" cy="40.781" r="40.781" transform="translate(439.219 71.144)" fill="#dfe5e8"/>
      <g id="_05" data-name=" 05" style="isolation: isolate">
        <text id="_03-2" data-name="03" transform="translate(457.823 122.089)" fill="#1e4051" font-size="37" font-family="Roboto-Bold, Roboto" font-weight="700" style="isolation: isolate"><tspan x="0" y="0">03</tspan></text>
      </g>
    </g>
    <text id="Visualización_y_renderizado" data-name="Visualización y renderizado" transform="translate(180 577.9)" fill="#12263f" font-size="20" font-family="Roboto-Black, Roboto" font-weight="800" opacity="0.95"><tspan x="0" y="21">Visualización y renderizado</tspan></text>
    <path id="Trazado_195578" data-name="Trazado 195578" d="M343.333,0H0" transform="translate(180 619.9)" fill="none" stroke="#707070" stroke-width="5" opacity="0.95"/>
    <line id="Línea_182" data-name="Línea 182" x1="140" transform="translate(335 619.9)" fill="none" stroke="#ff9500" stroke-width="5" opacity="0.95"/>
    <line id="Línea_183" data-name="Línea 183" x2="105.333" y2="77.6" transform="translate(521.833 619.9)" fill="none" stroke="#707070" stroke-width="5" opacity="0.95"/>
    <text id="Las_principales_herramientas_para_renderizado_son:_SketchUp._Revit_Archicad_D5_Render_Blender_Enscape_Lumion_V-Ray." data-name="Las principales herramientas para renderizado son: SketchUp. Revit, Archicad, D5 Render, Blender, Enscape, Lumion, V-Ray." transform="translate(252 783.3)" fill="#12263f" font-size="16" font-family="Roboto-Regular, Roboto"><tspan x="0" y="17">Las principales herramientas para </tspan><tspan x="0" y="41">renderizado son: </tspan><tspan y="41" font-family="Roboto-Italic, Roboto" font-style="italic">SketchUp. Revit, </tspan><tspan x="0" y="65" font-family="Roboto-Italic, Roboto" font-style="italic">Archicad, D5 Render, Blender, </tspan><tspan x="0" y="89" font-family="Roboto-Italic, Roboto" font-style="italic">Enscape, Lumion, V-Ray.</tspan></text>
    <rect id="Rectángulo_40154" data-name="Rectángulo 40154" width="8" height="8" transform="translate(234.333 789.3)" fill="#ff9500"/>
    <text id="Dispositivos_hapticos" data-name="Dispositivos hapticos" transform="translate(1090.425 596.1)" fill="#12263f" font-size="20" font-family="Roboto-Black, Roboto" font-weight="800" opacity="0.95"><tspan x="0" y="21">Dispositivos hapticos</tspan></text>
    <line id="Línea_184" data-name="Línea 184" x2="315" transform="translate(1070.425 638.1)" fill="none" stroke="#707070" stroke-width="5" opacity="0.95"/>
    <line id="Línea_185" data-name="Línea 185" x2="140" transform="translate(1090.425 638.1)" fill="none" stroke="#ff9500" stroke-width="5" opacity="0.95"/>
    <line id="Línea_186" data-name="Línea 186" x1="148.259" y2="102.4" transform="translate(922.166 638.1)" fill="none" stroke="#707070" stroke-width="5" opacity="0.95"/>
    <text id="Extensión_del_sentido_del_tácto_para_el_modelamiento_digital" data-name="Extensión del sentido del tácto para el modelamiento digital" transform="translate(1105 747.1)" fill="#12263f" font-size="16" font-family="Roboto-Bold, Roboto" font-weight="700"><tspan x="0" y="17">Extensión del sentido del tácto para el </tspan><tspan x="0" y="41">modelamiento digital</tspan></text>
    <text id="Herramientas_de_interacción_para_uso_de_simuladores_y_videojuegos" data-name="Herramientas de interacción para uso de simuladores y videojuegos" transform="translate(1105 651)" fill="#12263f" font-size="16" font-family="Roboto-Bold, Roboto" font-weight="700"><tspan x="0" y="17">Herramientas de interacción para uso de </tspan><tspan x="0" y="41">simuladores y videojuegos</tspan></text>
    <text id="Navegación_3d_en_un_ambiente_virtual_con_diferentes_niveles_de_interacción" data-name="Navegación 3d en un ambiente virtual, con diferentes niveles de interacción" transform="translate(197.333 1017)" fill="#12263f" font-size="16" font-family="Roboto-Bold, Roboto" font-weight="700"><tspan x="0" y="17">Navegación 3d en un ambiente virtual, con </tspan><tspan x="0" y="41">diferentes niveles de interacción</tspan></text>
    <text id="Es_una_representación_de_un_diseño_mecánico_o_arquitectónico_donde_se_configuran_unas_condiciones_de_colores_materiales_e_iluminación_para_que_visualmente_sea_lo_más_parecido_a_la_realidad" data-name="Es una representación de un diseño mecánico o arquitectónico donde se configuran unas condiciones de colores materiales e iluminación para que visualmente sea lo más parecido a la realidad" transform="translate(197.333 646)" fill="#12263f" font-size="16" font-family="Roboto-Bold, Roboto" font-weight="700"><tspan x="0" y="17">Es una representación de un diseño mecánico </tspan><tspan x="0" y="41">o arquitectónico donde se configuran unas </tspan><tspan x="0" y="65">condiciones de colores materiales e </tspan><tspan x="0" y="89">iluminación para que visualmente sea lo más </tspan><tspan x="0" y="113">parecido a la realidad</tspan></text>
    <text id="Se_requiere_de_unas_gafas_de_realidad_aumentada_las_cuales_crean_una_inmersión_alta_dentro_del_modelo_3d" data-name="Se requiere de unas gafas de realidad aumentada las cuales crean una inmersión alta dentro del modelo 3d" transform="translate(197.333 1114.1)" fill="#12263f" font-size="16" font-family="Roboto-Bold, Roboto" font-weight="700"><tspan x="0" y="17">Se requiere de unas gafas de realidad aumentada </tspan><tspan x="0" y="41">las cuales crean una inmersión alta dentro del </tspan><tspan x="0" y="65">modelo 3d</tspan></text>
    <path id="Trazado_168880" data-name="Trazado 168880" d="M0,0H235.337" transform="translate(512.458 992.5)" fill="none" stroke="#707070" stroke-width="5" opacity="0.95"/>
    <text id="Realidad_aumentada" data-name="Realidad aumentada" transform="translate(185 953)" fill="#12263f" font-size="20" font-family="Roboto-Black, Roboto" font-weight="800" opacity="0.95"><tspan x="0" y="21">Realidad aumentada</tspan></text>
    <text id="Las_principales_herramientas_de_software_para_la_VR_son:_UNITY_AMAZON_SUMERIAN_GOOGLE_VR_3DS_MAX_MAYA" data-name="Las principales herramientas de software para la VR son: UNITY, AMAZON SUMERIAN, GOOGLE VR, 3DS MAX, MAYA" transform="translate(252 1206)" fill="#12263f" font-size="16" font-family="Roboto-Regular, Roboto"><tspan x="0" y="17">Las principales herramientas de software </tspan><tspan x="0" y="41">para la VR son:</tspan><tspan y="41" xml:space="preserve" font-family="Roboto-Italic, Roboto" font-style="italic"> Unity, Amazon sumerian, </tspan><tspan x="0" y="65" font-family="Roboto-Italic, Roboto" font-style="italic">Google VR, 3DS Max, Maya</tspan></text>
    <rect id="Rectángulo_40163" data-name="Rectángulo 40163" width="8" height="8" transform="translate(234.333 1211.299)" fill="#ff9500"/>
    <line id="Línea_191" data-name="Línea 191" x2="332.833" y2="0.4" transform="translate(180 992.1)" fill="none" stroke="#707070" stroke-width="5" opacity="0.95"/>
    <text id="Gran_utilidad_para_trabajo_en_superficies_complejas_y_modelado_libre_transmite_sensación_de_profundidad." data-name="Gran utilidad para trabajo en superficies complejas y modelado libre, transmite sensación de profundidad." transform="translate(1162.333 815)" fill="#12263f" font-size="16" font-family="Roboto-Regular, Roboto"><tspan x="0" y="17">Gran utilidad para trabajo en </tspan><tspan x="0" y="41">superficies complejas y modelado </tspan><tspan x="0" y="65">libre, transmite sensación de </tspan><tspan x="0" y="89">profundidad.</tspan></text>
    <text id="Permite_interactuar_dentro_de_escenarios_3d_como_simuladores_realidad_aumentada_aplicaciones_médicas_creando_una_extensión_de_partes_del_cuerpo_usualmente_las_manos." data-name="Permite interactuar dentro de escenarios 3d, como simuladores, realidad aumentada, aplicaciones médicas, creando una extensión de partes del cuerpo usualmente las manos." transform="translate(1162.333 952.199)" fill="#12263f" font-size="16" font-family="Roboto-Regular, Roboto"><tspan x="0" y="17">Permite interactuar dentro de </tspan><tspan x="0" y="41">escenarios 3d, como simuladores, </tspan><tspan x="0" y="65">realidad aumentada, aplicaciones </tspan><tspan x="0" y="89">médicas, creando una extensión de </tspan><tspan x="0" y="113">partes del cuerpo usualmente las </tspan><tspan x="0" y="137">manos.</tspan></text>
    <rect id="Rectángulo_40168" data-name="Rectángulo 40168" width="8" height="8" transform="translate(1145.149 821)" fill="#ff9500"/>
    <line id="Línea_192" data-name="Línea 192" x2="140" transform="translate(334.5 992.1)" fill="none" stroke="#ff9500" stroke-width="5" opacity="0.95"/>
    <path id="Trazado_195201" data-name="Trazado 195201" d="M-141.706-11036.332v58.9" transform="translate(321.706 11682.333)" fill="none" stroke="#707070" stroke-width="3"/>
    <path id="Trazado_195579" data-name="Trazado 195579" d="M-141.706-11036.333v130.5" transform="translate(321.706 12053.433)" fill="none" stroke="#707070" stroke-width="3"/>
    <path id="Trazado_195587" data-name="Trazado 195587" d="M-141.706-11036.333v130.5" transform="translate(1220.798 11674.433)" fill="none" stroke="#707070" stroke-width="3"/>
    <path id="Trazado_195583" data-name="Trazado 195583" d="M-141.706-11046.333v26.2" transform="translate(355.89 12235.433)" fill="none" stroke="#707070" stroke-width="3"/>
    <path id="Trazado_195590" data-name="Trazado 195590" d="M-141.706-11046.333v26.2" transform="translate(1266.706 11844.433)" fill="none" stroke="#707070" stroke-width="3"/>
    <path id="Trazado_195592" data-name="Trazado 195592" d="M-141.706-11046.333v26.2" transform="translate(1433.539 11962.333)" fill="none" stroke="#707070" stroke-width="3"/>
    <path id="Trazado_195585" data-name="Trazado 195585" d="M-141.706-11046.333v26.2" transform="translate(355.89 11813.434)" fill="none" stroke="#707070" stroke-width="3"/>
    <path id="Trazado_195580" data-name="Trazado 195580" d="M0,0V11.333" transform="translate(180 1038.5) rotate(-90)" fill="none" stroke="#707070" stroke-width="3"/>
    <path id="Trazado_195589" data-name="Trazado 195589" d="M0,0V11.333" transform="translate(1079.092 659.5) rotate(-90)" fill="none" stroke="#707070" stroke-width="3"/>
    <path id="Trazado_195582" data-name="Trazado 195582" d="M0,0V11.333" transform="translate(180 703.5) rotate(-90)" fill="none" stroke="#707070" stroke-width="3"/>
    <path id="Trazado_195581" data-name="Trazado 195581" d="M0,0V11.333" transform="translate(180 1147.6) rotate(-90)" fill="none" stroke="#707070" stroke-width="3"/>
    <path id="Trazado_195588" data-name="Trazado 195588" d="M0,0V11.333" transform="translate(1079.092 768.6) rotate(-90)" fill="none" stroke="#707070" stroke-width="3"/>
    <path id="Trazado_195584" data-name="Trazado 195584" d="M0,0V11.333" transform="translate(214.184 1215.299) rotate(-90)" fill="none" stroke="#707070" stroke-width="3"/>
    <path id="Trazado_195591" data-name="Trazado 195591" d="M0,0V11.333" transform="translate(1125 824.299) rotate(-90)" fill="none" stroke="#707070" stroke-width="3"/>
    <path id="Trazado_195586" data-name="Trazado 195586" d="M0,0V11.333" transform="translate(214.184 793.3) rotate(-90)" fill="none" stroke="#707070" stroke-width="3"/>
  </g>
</svg>
