<svg xmlns="http://www.w3.org/2000/svg" width="196.186" height="216" viewBox="0 0 196.186 216">
  <g id="Grupo_131956" data-name="Grupo 131956" transform="translate(-8511.948 -2278.712)">
    <g id="Grupo_81392" data-name="Grupo 81392" transform="translate(8511.948 2278.712)">
      <ellipse id="Elipse_4859" data-name="Elipse 4859" cx="43.999" cy="44.435" rx="43.999" ry="44.435" transform="translate(0 127.13)" fill="#afe1ed" opacity="0.5" style="isolation: isolate"/>
      <ellipse id="Elipse_4860" data-name="Elipse 4860" cx="24.989" cy="24.421" rx="24.989" ry="24.421" transform="translate(146.208)" fill="#ec490e" opacity="0.26" style="isolation: isolate"/>
    </g>
    <g id="Grupo_131955" data-name="Grupo 131955" transform="translate(8514.205 2295.967)">
      <path id="Trazado_194675" data-name="Trazado 194675" d="M8624.051,2482.781v-5.29h2.638q39.671-.011,79.341,0c1.188,0,1.737-.193,1.732-1.568-.049-12.8-.032-25.594-.037-38.392,0-.18-.038-.359-.08-.739h-83.516v-5.581h81.124c2.443,0,2.443,0,2.442-2.472,0-3.7,0-3.7-3.608-3.7l-77.887,0h-2.081v-5.35h71.861v-98.356c-3.931,0-7.8-.011-11.662.021a1.138,1.138,0,0,0-.883.478c-1.791,4.342-5.42,5.266-9.587,5.229-.3,0-.6.041-1.169.083v11.3h-5.736v6.083c0,2.791-.049,5.582.03,8.369a13.779,13.779,0,0,0,.758,2.786c-.809,1.4-1.971,3.233-2.912,5.17a3.675,3.675,0,0,0,.058,2.274c.156.613.785,1.1.965,1.712.846,2.868,2.842,3.478,5.527,3.1a29.408,29.408,0,0,1,3.936-.03v22.495h-7.812a10.514,10.514,0,0,1-1.387,2.653c-2.359,2.364-1.652,4.53.082,6.82a29.409,29.409,0,0,1,1.893,3.329L8648.5,2414.5c-1.176-2.016-2.19-3.932-3.394-5.722a3.25,3.25,0,0,0-1.919-1.157c-3.98-.812-6.825.472-8.114,4.567a11.868,11.868,0,0,1-1.381,2.285l-4.6-2.634c1.813-3.17,3.515-6.267,5.377-9.265.293-.472,1.31-.676,2-.691,3.067-.07,6.139.03,9.205-.052,1.073-.028,1.845.078,2.351,1.162a18.569,18.569,0,0,0,1.825,3.092c.271.371,1.1.792,1.368.642,3.161-1.736,6.264-3.577,9.567-5.5-.859-1.447-1.6-2.8-2.447-4.088a1.946,1.946,0,0,1,.221-2.721,23.884,23.884,0,0,0,4.757-8.234,2.11,2.11,0,0,1,1.469-1.1c1.378-.154,2.793.039,4.175-.1.444-.043,1.18-.668,1.189-1.043.093-3.443.054-6.89.054-10.606-1.875,0-3.613.085-5.334-.051a2.266,2.266,0,0,1-1.491-1.073c-1.791-3.233-3.489-6.517-5.43-10.187l2.818-5.024-10.234-5.9c-.964,1.574-1.9,2.965-2.681,4.436a1.517,1.517,0,0,1-2,.926,20.7,20.7,0,0,0-9.659-.008,1.793,1.793,0,0,1-1.554-.414c-1.877-3.128-3.647-6.321-5.515-9.614l4.567-2.634c1.256,2.111,2.408,4.148,3.685,6.1a2.107,2.107,0,0,0,1.5.666c1.266.065,2.6-.295,3.793-.008,1.43.344,2.012-.018,2.624-1.295.875-1.823,2.057-3.5,3.234-5.447l12.957,7.371c0-4.234.023-8.081-.05-11.926-.006-.276-.711-.745-1.114-.771-1.446-.094-2.9-.037-4.546-.037V2327.1c-4.864.167-9.15-.657-11.109-5.77h-20.525v-5.436h19.848v-9.043h-19.853v-5.4h19.818l.248-2.92h5.334c0,2.406.025,4.81-.013,7.212-.015.943.191,1.443,1.3,1.438,9.1-.041,18.2-.035,27.3-.048a2.378,2.378,0,0,0,.5-.151c.122-2.747.247-5.556.377-8.463h5.036l.26,2.753h11.7c.054-.85.109-1.727.174-2.729h5.178v120.989h6.3V2310.539h5.448v172.243Zm54.644-170.182h-24.722c-4.45,0-4.45,0-4.445,4.458,0,3.6.9,4.515,4.482,4.518q10.258.011,20.517-.007a12.134,12.134,0,0,0,1.97-.216,2.458,2.458,0,0,0,2.174-2.5C8678.766,2316.868,8678.694,2314.875,8678.694,2312.6Zm17.234,3.213v-8.931h-11.578v8.931Zm-34.735,17.274c1.813,0,3.437.057,5.051-.044a1.385,1.385,0,0,0,.965-.934c.1-1.6.046-3.207.046-4.819h-6.062Z" transform="translate(-8528.637 -2298.516)"/>
      <path id="Trazado_194676" data-name="Trazado 194676" d="M8603.625,2432.97v5.411h-83.643c.235,4.131-.607,8.166.758,12.1,1.157,3.339,4.557,5.459,8.736,5.458q34.755-.008,69.51-.027h4.619v5.463h-11.428a39.933,39.933,0,0,1-5.56,17.714h16.96v5.444h-31.014v-5.348c1.906,0,3.833.1,5.738-.049a3.472,3.472,0,0,0,2.266-1.064,29.384,29.384,0,0,0,6.025-15.942,4.1,4.1,0,0,0-.142-.779h-1.9c-18.56,0-37.12-.038-55.681.012a14.382,14.382,0,0,1-13.921-11.417,17.753,17.753,0,0,1-.386-3.755q-.032-53.854.009-107.707c.009-6.393,2.866-11.235,8.824-13.906a14.015,14.015,0,0,1,4.665-1.092,65.55,65.55,0,0,1,7.638-.029c1.617.074,2.267-.325,2.18-2.091-.149-3.083-.042-6.179-.042-9.419h65.76v5.186h-60.227v6.261h31.449v16.72H8543.34v81.26h60.273v5.3h-65.707V2328.7c-4.818.7-9.634-1.208-13.959,1.632a8.5,8.5,0,0,0-3.945,7.356c-.047,31.172-.014,62.344-.066,93.516,0,1.721.745,1.791,2.071,1.79q39.668-.04,79.336-.02Zm-34.2-104.045h-26.143v5.815h26.143Z" transform="translate(-8514.538 -2300.245)"/>
      <path id="Trazado_194677" data-name="Trazado 194677" d="M8601.231,2418.5l-4.626,2.67c-1.1-1.9-2.095-3.809-3.294-5.575a3.5,3.5,0,0,0-2.058-1.283c-3.757-.725-6.686.2-7.958,4.267a13.631,13.631,0,0,1-1.519,2.6l-19.585-11.284c1.091-1.882,2.039-3.665,3.131-5.355.762-1.18.854-2.2-.148-3.236a1.491,1.491,0,0,1-.434-.575c-.838-3.553-3.376-3.969-6.433-3.593a29.834,29.834,0,0,1-3.526.022V2374.6c2.162,0,4.379-.057,6.589.024,1.135.042,1.852-.263,2.153-1.406a2.386,2.386,0,0,1,.532-.94c2.324-2.593,1.927-5.076-.156-7.609a19.971,19.971,0,0,1-1.676-2.967l19.571-11.253c1.146,1.975,2.25,3.824,3.3,5.7a1.8,1.8,0,0,0,2.261,1.122,30.067,30.067,0,0,1,5.246-.072l4.012-6.717,4.591,2.636c-1.926,3.314-3.761,6.534-5.687,9.7-.177.29-.951.391-1.4.313-3.229-.567-6.44-.955-9.662.043a1.538,1.538,0,0,1-2.031-.958c-.729-1.445-1.6-2.819-2.563-4.489l-10.4,5.957c1.139,1.952,2.192,3.76,2.988,5.124l-6.422,11.138h-5.807v11.808c1.692,0,3.316.077,4.929-.028,1.034-.067,1.455.361,1.895,1.226,1.628,3.2,3.364,6.351,5.276,9.927-.709,1.29-1.715,3.124-2.786,5.072,3.177,1.834,6.279,3.668,9.443,5.389a1.628,1.628,0,0,0,1.483-.559c1.235-3.736,3.735-4.663,7.443-4,1.909.341,3.965-.233,5.953-.212a2.73,2.73,0,0,1,2.018.9C8597.729,2412.4,8599.428,2415.424,8601.231,2418.5Z" transform="translate(-8519.72 -2305.202)"/>
      <path id="Trazado_194678" data-name="Trazado 194678" d="M8650.524,2492.428v-28.119h51.361v28.119Zm46-22.8c-.628-.039-1.218-.105-1.809-.106-3.575-.007-7.148,0-10.723,0q-12.631,0-25.263,0c-3.529,0-2.934-.139-2.94,2.865-.01,4.057,0,8.116,0,12.174v2.515h40.735Z" transform="translate(-8532.044 -2319.858)"/>
      <path id="Trazado_194679" data-name="Trazado 194679" d="M8633.5,2384.73c-1.178-1.31-2.262-2.518-3.4-3.791,2.258-4.219,9.207-7.319,14.523-6,6.678,1.653,10.452,6.028,11.3,11.941a13.86,13.86,0,0,1-8.3,15.042c-6.182,2.761-12.918,1.189-17.868-5.336l3.895-3.535c2.3,2.786,4.845,4.99,8.723,4.706a8.631,8.631,0,0,0,5.624-2.507,8.776,8.776,0,0,0-7.439-15.008C8637.461,2380.508,8635.583,2382.68,8633.5,2384.73Z" transform="translate(-8529.371 -2308.314)"/>
      <path id="Trazado_194680" data-name="Trazado 194680" d="M8604.1,2381.08c-1.179,1.268-2.29,2.46-3.574,3.843-2.623-3.459-5.9-5.548-10.129-4.561a10.989,10.989,0,0,0-5.1,3.106c-2.9,3.044-2.387,8.923.7,11.835,4.117,3.891,8.816,3.187,14.462-2.2l3.776,3.539c-5.029,6.5-11.6,7.855-17.516,5.36-5.427-2.29-9.175-7.414-8.667-14.692.384-5.493,5.011-10.682,11.185-12.375C8594.234,2373.567,8600.994,2376.351,8604.1,2381.08Z" transform="translate(-8522.709 -2308.309)"/>
      <path id="Trazado_194681" data-name="Trazado 194681" d="M8528.027,2441.137v-16.79h5.181v16.79Z" transform="translate(-8516.275 -2314.714)"/>
      <path id="Trazado_194682" data-name="Trazado 194682" d="M8610.681,2366.762v-5.144H8624.7v5.144Z" transform="translate(-8526.915 -2306.639)"/>
      <path id="Trazado_194683" data-name="Trazado 194683" d="M8624.789,2414.632v5.344h-14.016v-5.344Z" transform="translate(-8526.927 -2313.464)"/>
      <path id="Trazado_194684" data-name="Trazado 194684" d="M8614.036,2383.482v-5.155h8.188v5.155Z" transform="translate(-8527.348 -2308.79)"/>
      <path id="Trazado_194685" data-name="Trazado 194685" d="M8614.036,2403.118v-5.168h8.2v5.168Z" transform="translate(-8527.348 -2311.316)"/>
      <path id="Trazado_194686" data-name="Trazado 194686" d="M8528.024,2363.47v-5.137h5.235v5.137Z" transform="translate(-8516.275 -2306.216)"/>
      <path id="Trazado_194687" data-name="Trazado 194687" d="M8528.023,2376.787v-5.136h5.184v5.136Z" transform="translate(-8516.274 -2307.931)"/>
      <path id="Trazado_194688" data-name="Trazado 194688" d="M8533.281,2384.756v5.043h-5.15v-5.043Z" transform="translate(-8516.289 -2309.618)"/>
      <path id="Trazado_194689" data-name="Trazado 194689" d="M8533.271,2403.209H8528.1V2398h5.172Z" transform="translate(-8516.285 -2311.323)"/>
      <path id="Trazado_194690" data-name="Trazado 194690" d="M8528.105,2411.275h5.108v5.236h-5.108Z" transform="translate(-8516.285 -2313.031)"/>
      <path id="Trazado_194691" data-name="Trazado 194691" d="M8533.345,2350.122h-5.285a9.756,9.756,0,0,1-.105-1.114c.137-4.87-1.033-3.923,4.244-4.023a1.479,1.479,0,0,1,1.095.936C8533.424,2347.278,8533.345,2348.656,8533.345,2350.122Z" transform="translate(-8516.263 -2304.496)"/>
      <path id="Trazado_194692" data-name="Trazado 194692" d="M8682.458,2314.68c0,2.276.071,4.269-.024,6.253a2.457,2.457,0,0,1-2.174,2.5,12.165,12.165,0,0,1-1.97.216q-10.258.023-20.517.007c-3.58,0-4.479-.919-4.482-4.519,0-4.457,0-4.457,4.445-4.457h24.722Z" transform="translate(-8532.4 -2300.597)" fill="#fff"/>
      <path id="Trazado_194693" data-name="Trazado 194693" d="M8704.838,2317.048H8693.26v-8.93h11.578Z" transform="translate(-8537.546 -2299.752)" fill="#fff"/>
      <path id="Trazado_194694" data-name="Trazado 194694" d="M8666.681,2337.337v-5.8h6.062c0,1.612.058,3.221-.046,4.819a1.385,1.385,0,0,1-.965.934C8670.117,2337.394,8668.493,2337.337,8666.681,2337.337Z" transform="translate(-8534.124 -2302.767)" fill="#fff"/>
      <path id="Trazado_194695" data-name="Trazado 194695" d="M8573.675,2331.433v5.815h-26.143v-5.815Z" transform="translate(-8518.786 -2302.753)" fill="#fff"/>
      <path id="Trazado_194696" data-name="Trazado 194696" d="M8697.3,2470.393v17.453h-40.736v-2.515c0-4.058-.009-8.117,0-12.174.007-3-.589-2.864,2.94-2.865q12.631-.005,25.262,0c3.574,0,7.148-.01,10.724,0C8696.078,2470.288,8696.669,2470.354,8697.3,2470.393Zm-29.248,11.294v-5.338c-1.514,0-2.9-.053-4.27.038-.344.023-.921.493-.94.789-.1,1.477-.045,2.963-.045,4.511Zm11.5-5.253h-5.072v5.214h5.072Zm6.538,5.254c.571.03.99.08,1.408.068,4.264-.131,3.747.741,3.833-3.867.021-1.141-.334-1.572-1.552-1.584-4.161-.043-4.188-.067-3.923,3.991C8685.882,2480.711,8685.991,2481.123,8686.089,2481.687Z" transform="translate(-8532.817 -2320.628)" fill="#fff"/>
      <path id="Trazado_194697" data-name="Trazado 194697" d="M8668.973,2482.58h-5.255c0-1.548-.052-3.035.045-4.511.02-.3.6-.766.94-.789,1.373-.091,2.756-.038,4.27-.038Z" transform="translate(-8533.741 -2321.521)"/>
      <path id="Trazado_194698" data-name="Trazado 194698" d="M8682.2,2477.342v5.214h-5.072v-5.214Z" transform="translate(-8535.47 -2321.536)"/>
      <path id="Trazado_194699" data-name="Trazado 194699" d="M8690.408,2482.575c-.1-.564-.207-.976-.233-1.392-.266-4.058-.238-4.034,3.923-3.991,1.218.012,1.573.443,1.552,1.584-.086,4.609.431,3.736-3.833,3.867C8691.4,2482.656,8690.979,2482.6,8690.408,2482.575Z" transform="translate(-8537.137 -2321.516)"/>
    </g>
  </g>
</svg>
