<svg xmlns="http://www.w3.org/2000/svg" width="37.051" height="37.039" viewBox="0 0 37.051 37.039">
  <path id="Trazado_114874" data-name="Trazado 114874" d="M258.437,2094.368a16.024,16.024,0,0,1,.883-3.231l-2.35-.913a18.413,18.413,0,0,1,1.776-3.445l2.111,1.387a16.011,16.011,0,0,1,2.12-2.587l-1.777-1.8a18.62,18.62,0,0,1,3.021-2.422l1.367,2.125a16.123,16.123,0,0,1,2.988-1.507l-.9-2.363a18.455,18.455,0,0,1,3.748-.988l.383,2.495a15.872,15.872,0,0,1,3.342-.163l.146-2.513a18.835,18.835,0,0,1,3.819.622l-.66,2.431a15.877,15.877,0,0,1,3.117,1.214l1.155-2.243a18.491,18.491,0,0,1,3.24,2.125l-1.6,1.956a16.116,16.116,0,0,1,2.356,2.376l1.969-1.58a18.634,18.634,0,0,1,2.1,3.256l-2.256,1.14a15.993,15.993,0,0,1,1.19,3.127l2.442-.646a18.456,18.456,0,0,1,.59,3.832l-2.518.119a16,16,0,0,1-.185,3.324c0,.007,0,.012,0,.018l2.485.4a18.641,18.641,0,0,1-1.013,3.737l-2.351-.91a15.861,15.861,0,0,1-1.533,2.972l2.113,1.385a18.6,18.6,0,0,1-2.451,3l-1.779-1.8a16.146,16.146,0,0,1-2.608,2.1l1.369,2.123a18.584,18.584,0,0,1-3.456,1.749l-.9-2.362a15.96,15.96,0,0,1-3.233.86l.386,2.494a18.441,18.441,0,0,1-3.871.186l.143-2.514a16.026,16.026,0,0,1-3.306-.535l-.657,2.431a18.514,18.514,0,0,1-3.614-1.4l1.152-2.245a15.993,15.993,0,0,1-2.8-1.835l-1.6,1.958a18.69,18.69,0,0,1-2.728-2.749l1.968-1.583a16.164,16.164,0,0,1-1.814-2.812l-2.254,1.143a18.546,18.546,0,0,1-1.381-3.621l2.442-.648a15.865,15.865,0,0,1-.518-3.3l-2.518.122a18.633,18.633,0,0,1,.216-3.859l.008-.051Zm14.475,10.836a8.36,8.36,0,1,0-6.922-9.584,8.369,8.369,0,0,0,6.922,9.584" transform="translate(-255.707 -2078.447)" fill="#ff9500"/>
</svg>
