<svg xmlns="http://www.w3.org/2000/svg" width="111.666" height="73.392" viewBox="0 0 111.666 73.392">
  <g id="Grupo_109256" data-name="Grupo 109256" transform="translate(12036.455 12139.601)">
    <g id="Grupo_109233" data-name="Grupo 109233" transform="translate(-12971.414 -12209.834)" opacity="0.7">
      <rect id="Rectángulo_34665" data-name="Rectángulo 34665" width="109.667" height="71.392" rx="10" transform="translate(935.959 71.233)" fill="#84ccdf"/>
      <path id="Trazado_115134" data-name="Trazado 115134" d="M1035.625,143.625H945.959a11.012,11.012,0,0,1-11-11V81.233a11.012,11.012,0,0,1,11-11h89.666a11.012,11.012,0,0,1,11,11v51.392A11.012,11.012,0,0,1,1035.625,143.625ZM945.959,72.233a9.01,9.01,0,0,0-9,9v51.392a9.01,9.01,0,0,0,9,9h89.666a9.01,9.01,0,0,0,9-9V81.233a9.01,9.01,0,0,0-9-9Z" fill="#fff"/>
    </g>
    <rect id="Rectángulo_34666" data-name="Rectángulo 34666" width="28.531" height="8" transform="translate(-12023.531 -12129.85)" fill="#f37d07"/>
    <rect id="Rectángulo_34667" data-name="Rectángulo 34667" width="57.288" height="8" transform="translate(-11995.001 -12129.85)" fill="#f2a464"/>
    <rect id="Rectángulo_34668" data-name="Rectángulo 34668" width="59.531" height="8" transform="translate(-12023.531 -12114.554)" fill="#f37d07"/>
    <rect id="Rectángulo_34669" data-name="Rectángulo 34669" width="26.288" height="8" transform="translate(-11964.001 -12114.554)" fill="#f2a464"/>
    <g id="Grupo_109234" data-name="Grupo 109234" transform="translate(-12971.414 -12209.834)">
      <rect id="Rectángulo_34670" data-name="Rectángulo 34670" width="42.909" height="8" transform="translate(947.883 110.577)" fill="#f37d07"/>
      <rect id="Rectángulo_34671" data-name="Rectángulo 34671" width="42.909" height="8" transform="translate(990.792 110.577)" fill="#f2a464"/>
    </g>
    <rect id="Rectángulo_34672" data-name="Rectángulo 34672" width="70.031" height="8" transform="translate(-12023.531 -12083.961)" fill="#f37d07"/>
    <rect id="Rectángulo_34673" data-name="Rectángulo 34673" width="15.788" height="8" transform="translate(-11953.501 -12083.961)" fill="#f2a464"/>
  </g>
</svg>
