<svg xmlns="http://www.w3.org/2000/svg" width="44.585" height="44.572" viewBox="0 0 44.585 44.572">
  <path id="Trazado_114873" data-name="Trazado 114873" d="M2968.658,100.783a19.252,19.252,0,0,1,1.062-3.888l-2.828-1.1a22.189,22.189,0,0,1,2.137-4.146l2.541,1.669a19.259,19.259,0,0,1,2.551-3.113l-2.138-2.162a22.446,22.446,0,0,1,3.635-2.914l1.646,2.557a19.388,19.388,0,0,1,3.6-1.813l-1.079-2.843a22.229,22.229,0,0,1,4.51-1.189l.461,3a19.118,19.118,0,0,1,4.021-.2l.176-3.024a22.749,22.749,0,0,1,4.6.749l-.795,2.925a19.13,19.13,0,0,1,3.751,1.461l1.39-2.7a22.225,22.225,0,0,1,3.9,2.558l-1.926,2.353a19.368,19.368,0,0,1,2.834,2.859l2.371-1.9a22.515,22.515,0,0,1,2.523,3.917l-2.715,1.372a19.273,19.273,0,0,1,1.432,3.763l2.939-.776a22.241,22.241,0,0,1,.71,4.61l-3.03.144a19.213,19.213,0,0,1-.223,4,.127.127,0,0,1,0,.021l2.99.485a22.476,22.476,0,0,1-1.219,4.5l-2.829-1.1a19.122,19.122,0,0,1-1.844,3.577l2.542,1.667a22.283,22.283,0,0,1-2.949,3.609l-2.14-2.16a19.464,19.464,0,0,1-3.14,2.523l1.647,2.555a22.388,22.388,0,0,1-4.158,2.1l-1.083-2.842a19.16,19.16,0,0,1-3.89,1.035l.464,3a22.258,22.258,0,0,1-4.658.224l.173-3.025a19.257,19.257,0,0,1-3.979-.644l-.79,2.926a22.242,22.242,0,0,1-4.349-1.681l1.387-2.7a19.168,19.168,0,0,1-3.365-2.208l-1.923,2.356a22.389,22.389,0,0,1-3.283-3.308l2.369-1.9a19.438,19.438,0,0,1-2.183-3.385l-2.713,1.375a22.325,22.325,0,0,1-1.662-4.356l2.938-.78a19.108,19.108,0,0,1-.623-3.977l-3.03.147a22.42,22.42,0,0,1,.26-4.644l.01-.061Zm17.419,13.04a10.06,10.06,0,1,0-8.331-11.533,10.072,10.072,0,0,0,8.331,11.533" transform="translate(-2965.373 -81.623)" fill="#fff"/>
</svg>
