<svg xmlns="http://www.w3.org/2000/svg" width="48.166" height="48.151" viewBox="0 0 48.166 48.151">
  <path id="Trazado_114876" data-name="Trazado 114876" d="M3757.792,1736.98a20.783,20.783,0,0,1,1.148-4.2l-3.055-1.187a23.987,23.987,0,0,1,2.309-4.479l2.744,1.8a20.806,20.806,0,0,1,2.756-3.363l-2.31-2.336a24.3,24.3,0,0,1,3.927-3.148l1.777,2.762a20.9,20.9,0,0,1,3.885-1.958l-1.166-3.072a24,24,0,0,1,4.872-1.284l.5,3.242a20.675,20.675,0,0,1,4.345-.212l.19-3.267a24.566,24.566,0,0,1,4.965.809l-.858,3.16a20.642,20.642,0,0,1,4.053,1.579l1.5-2.917a24.045,24.045,0,0,1,4.212,2.764l-2.081,2.542a20.919,20.919,0,0,1,3.063,3.089l2.56-2.054a24.2,24.2,0,0,1,2.725,4.232l-2.932,1.482a20.86,20.86,0,0,1,1.548,4.065l3.175-.839a24.047,24.047,0,0,1,.767,4.981l-3.273.155a20.865,20.865,0,0,1-.24,4.322c0,.008,0,.015,0,.023l3.23.524a24.247,24.247,0,0,1-1.317,4.858l-3.056-1.183a20.6,20.6,0,0,1-1.994,3.864l2.747,1.8a24.122,24.122,0,0,1-3.186,3.9L3793,1755.1a20.951,20.951,0,0,1-3.39,2.726l1.779,2.76a24.249,24.249,0,0,1-4.492,2.273l-1.17-3.07a20.7,20.7,0,0,1-4.2,1.118l.5,3.242a24.058,24.058,0,0,1-5.032.242l.186-3.268a20.827,20.827,0,0,1-4.3-.7l-.854,3.161a24.093,24.093,0,0,1-4.7-1.816l1.5-2.919a20.76,20.76,0,0,1-3.635-2.385l-2.078,2.545a24.192,24.192,0,0,1-3.546-3.573l2.558-2.058a20.944,20.944,0,0,1-2.357-3.657l-2.93,1.485a24.1,24.1,0,0,1-1.8-4.707l3.174-.842a20.587,20.587,0,0,1-.673-4.3l-3.273.159a24.17,24.17,0,0,1,.281-5.017l.01-.066Zm18.817,14.087a10.868,10.868,0,1,0-9-12.459,10.881,10.881,0,0,0,9,12.459" transform="translate(-3754.242 -1716.282)" fill="#fff"/>
</svg>
