<svg xmlns="http://www.w3.org/2000/svg" width="112.296" height="112.296" viewBox="0 0 112.296 112.296">
  <g id="Grupo_109238" data-name="Grupo 109238" transform="translate(-658.414 -32.72)" opacity="0.8">
    <g id="Grupo_109235" data-name="Grupo 109235">
      <path id="Trazado_115135" data-name="Trazado 115135" d="M756.743,67.841A47.137,47.137,0,1,1,714.562,41.72v-9A56.2,56.2,0,1,0,764.831,63.9Z" fill="#fff"/>
      <path id="Trazado_115136" data-name="Trazado 115136" d="M714.563,41.72a47.192,47.192,0,0,1,42.18,26.121l8.088-3.945A56.2,56.2,0,0,0,714.563,32.72h0v9Z" fill="#84ccdf"/>
    </g>
    <g id="Grupo_109236" data-name="Grupo 109236">
      <path id="Trazado_115137" data-name="Trazado 115137" d="M756.479,88.868a41.964,41.964,0,0,0-41.916-41.916h0v9h0a32.907,32.907,0,0,1,15.121,62.139l4.084,8.016A41.951,41.951,0,0,0,756.479,88.868Z" fill="#84ccdf"/>
      <path id="Trazado_115138" data-name="Trazado 115138" d="M714.563,121.785a32.917,32.917,0,1,1,0-65.833v-9a41.917,41.917,0,1,0,19.206,79.155l-4.084-8.016A32.7,32.7,0,0,1,714.563,121.785Z" fill="#fff"/>
    </g>
    <g id="Grupo_109237" data-name="Grupo 109237">
      <path id="Trazado_115139" data-name="Trazado 115139" d="M714.563,60.843h0v9h0a19.025,19.025,0,1,1-15.79,29.627l-7.37,5.16a28.021,28.021,0,1,0,23.16-43.787Z" fill="#84ccdf"/>
      <path id="Trazado_115140" data-name="Trazado 115140" d="M695.536,88.868a19.047,19.047,0,0,1,19.026-19.025v-9A28.009,28.009,0,0,0,691.4,104.63l7.37-5.16A18.917,18.917,0,0,1,695.536,88.868Z" fill="#fff"/>
    </g>
  </g>
</svg>
