<svg xmlns="http://www.w3.org/2000/svg" width="400" height="260" viewBox="0 0 400 260">
  <g id="Grupo_132646" data-name="Grupo 132646" transform="translate(6118 8873)">
    <rect id="Rectángulo_294751" data-name="Rectángulo 294751" width="400" height="260" transform="translate(-6118 -8873)" fill="none"/>
    <g id="Grupo_131961" data-name="Grupo 131961" transform="translate(-6321.833 -9169.026)">
      <g id="Grupo_131967" data-name="Grupo 131967" transform="translate(210.732 307.026)">
        <path id="Trazado_169539" data-name="Trazado 169539" d="M247.653,337.463l-.848-.182a22.157,22.157,0,0,1,1.727-5.007l.78.381A21.325,21.325,0,0,0,247.653,337.463Zm4.374-9.132-.681-.535a29.924,29.924,0,0,1,3.625-3.839l.577.648A29.129,29.129,0,0,0,252.027,328.33Zm97.939-.071a30.163,30.163,0,0,0-2.363-2.619l.61-.617a30.868,30.868,0,0,1,2.433,2.694Zm-6.288-5.945a43.368,43.368,0,0,0-4.343-2.784l.428-.758a44.385,44.385,0,0,1,4.428,2.84Zm-84.051-.848-.483-.723a46.592,46.592,0,0,1,4.539-2.661l.4.773A45.9,45.9,0,0,0,259.629,321.466Zm75.08-4.239c-1.536-.673-3.161-1.3-4.824-1.875l.282-.82c1.687.577,3.331,1.217,4.892,1.9Zm-65.923-.523-.325-.8c1.569-.636,3.231-1.232,4.937-1.774l.262.829C271.976,315.489,270.335,316.077,268.785,316.7Zm56.139-2.85c-1.635-.431-3.335-.822-5.054-1.161l.165-.852c1.74.341,3.458.737,5.109,1.171Zm-46.27-.3-.207-.845c1.653-.4,3.378-.77,5.125-1.086l.156.855C282,312.8,280.29,313.159,278.654,313.559Zm36.1-1.715c-1.684-.231-3.422-.421-5.16-.565l.071-.865c1.753.146,3.505.335,5.208.568Zm-25.89-.143-.109-.862c1.722-.214,3.474-.388,5.214-.509l.061.865C292.3,311.319,290.564,311.489,288.861,311.7Zm15.543-.714c-1.727-.054-3.464-.059-5.191-.028l-.017-.869q2.615-.052,5.236.028Z" transform="translate(-180.501 -304.781)" fill="#fff"/>
        <path id="Trazado_169540" data-name="Trazado 169540" d="M436.348,346.313a34.672,34.672,0,0,0-1.542-4.9l.808-.323a35.246,35.246,0,0,1,1.578,5.026Zm-3.8-9.509a35.851,35.851,0,0,0-2.918-4.237l.678-.542a37.174,37.174,0,0,1,2.991,4.338Zm-6.392-8.034a45.21,45.21,0,0,0-3.928-3.349l.527-.693a46.678,46.678,0,0,1,4,3.413Zm-90.291-1.515-.714-.5a23.528,23.528,0,0,1,3.537-3.945l.58.645A22.483,22.483,0,0,0,335.862,327.254Zm82.09-4.741c-1.432-.872-2.96-1.707-4.538-2.483l.382-.78c1.6.787,3.152,1.635,4.607,2.52Zm-74.581-2.134-.462-.735a40.6,40.6,0,0,1,4.637-2.5l.363.787A40.268,40.268,0,0,0,343.371,320.379Zm65.306-2.445c-1.571-.622-3.217-1.2-4.885-1.731l.262-.827c1.687.53,3.35,1.121,4.942,1.75Zm-55.965-1.912-.282-.822c1.6-.547,3.293-1.048,5.035-1.482l.21.843C355.959,314.99,354.288,315.482,352.712,316.023Zm46.086-1.215c-1.656-.407-3.363-.77-5.076-1.079l.156-.855c1.729.315,3.455.681,5.128,1.09Zm-36.051-1.316-.15-.855c1.7-.3,3.45-.541,5.194-.73l.09.866C366.156,312.959,364.429,313.2,362.747,313.492Zm25.847-.54c-1.7-.207-3.439-.37-5.168-.483l.057-.865c1.745.113,3.5.278,5.217.487Zm-15.54-.58-.042-.869c1.435-.068,2.9-.1,4.355-.1l.878,0,0,.869-.874,0C375.925,312.269,374.474,312.3,373.054,312.371Z" transform="translate(-115.318 -303.799)" fill="#fff"/>
        <path id="Trazado_169541" data-name="Trazado 169541" d="M300.6,449.608l-.389,0v-.869l.394,0c1.594,0,3.206-.05,4.788-.148l.054.867C303.848,449.556,302.22,449.608,300.6,449.608Zm-5.629-.2c-1.736-.122-3.491-.3-5.215-.537l.118-.862c1.7.231,3.441.412,5.158.533Zm15.7-.457-.115-.864c1.727-.228,3.446-.521,5.106-.871l.181.848C314.159,448.419,312.418,448.718,310.669,448.951Zm-26.078-.966c-1.715-.351-3.429-.768-5.1-1.239l.233-.834c1.649.462,3.342.872,5.036,1.222Zm36.338-1.206-.247-.832c1.675-.5,3.321-1.064,4.894-1.687l.32.808C324.3,445.7,322.629,446.276,320.929,446.779ZM274.5,445.128c-1.687-.622-3.316-1.31-4.842-2.037l.374-.786c1.5.72,3.107,1.394,4.769,2.009Zm56.183-2.221-.4-.773a49.32,49.32,0,0,0,4.471-2.586l.476.728A51.307,51.307,0,0,1,330.684,442.907Zm-65.643-2.343a35.5,35.5,0,0,1-4.259-3.105l.563-.659a34.839,34.839,0,0,0,4.159,3.029Zm74.432-3.4-.553-.671a43.583,43.583,0,0,0,3.78-3.509l.627.6A44.809,44.809,0,0,1,339.472,437.168Zm-82.353-3.526a17.623,17.623,0,0,1-2.6-4.642l.813-.3a16.8,16.8,0,0,0,2.476,4.411Zm89.606-4.067-.7-.52c.608-.813,1.2-1.665,1.752-2.525l.73.469C347.949,427.88,347.348,428.747,346.726,429.576Z" transform="translate(-174.81 -218.851)" fill="#fff"/>
        <path id="Trazado_169542" data-name="Trazado 169542" d="M393.611,453.043l0-.869c1.7-.005,3.455-.035,5.2-.09l.028.869C397.081,453.008,395.323,453.038,393.611,453.043Zm-5.224-.054c-1.766-.043-3.523-.115-5.226-.205l.049-.869c1.693.09,3.443.162,5.2.205Zm15.672-.269-.052-.869c1.712-.1,3.458-.228,5.193-.379l.075.865C407.533,452.49,405.778,452.617,404.059,452.719Zm-26.113-.294c-1.733-.144-3.484-.32-5.2-.52l.1-.862c1.71.2,3.451.372,5.174.516Zm36.533-.622-.1-.862c1.724-.2,3.46-.433,5.158-.685l.129.858C417.956,451.369,416.212,451.6,414.479,451.8Zm-46.918-.589c-1.752-.264-3.486-.56-5.158-.878l.163-.853c1.66.316,3.384.61,5.123.872Zm57.26-.951-.156-.857c1.733-.315,3.448-.659,5.1-1.022l.186.85C428.289,449.6,426.564,449.946,424.821,450.264Zm-67.539-1.015c-1.719-.4-3.422-.848-5.064-1.321l.24-.836c1.63.469,3.319.911,5.024,1.31Zm77.756-1.232-.217-.841c1.7-.443,3.385-.918,5-1.415l.254.831C438.449,447.091,436.755,447.572,435.038,448.017Zm-87.811-1.684c-1.7-.6-3.34-1.248-4.882-1.926l.349-.794c1.521.669,3.144,1.307,4.821,1.9Zm97.818-1.4-.3-.818c1.66-.6,3.285-1.239,4.828-1.9l.342.8C448.36,443.683,446.721,444.329,445.044,444.936Zm-107.411-2.85a41.613,41.613,0,0,1-4.433-2.841l.52-.7a39.844,39.844,0,0,0,4.338,2.781ZM454.668,440.8l-.395-.773c1.588-.81,3.107-1.661,4.518-2.53l.455.74C457.817,439.119,456.279,439.981,454.668,440.8Zm-125.425-5.054a20.622,20.622,0,0,1-3.121-4.291l.766-.41a19.8,19.8,0,0,0,2.989,4.106Zm134.337-.483-.527-.69a42.124,42.124,0,0,0,3.9-3.37l.608.621A42.688,42.688,0,0,1,463.58,435.265Zm7.452-7.41-.7-.516c.389-.525.756-1.055,1.1-1.6l.733.469C471.81,426.768,471.43,427.316,471.032,427.855Z" transform="translate(-121.978 -219.432)" fill="#fff"/>
        <g id="Grupo_131961-2" data-name="Grupo 131961" transform="translate(0 111.639)" opacity="0.63" style="mix-blend-mode: overlay;isolation: isolate">
          <path id="Trazado_169543" data-name="Trazado 169543" d="M246.469,376.6l-.031.912c1.78-.615,2.812-1.333,2.812-2.1,0-2.291-9.089-4.148-20.3-4.148s-20.3,1.858-20.3,4.148c0,.768,1.032,1.486,2.812,2.1l-.031-.912a.365.365,0,0,1,.349-.386l17.123-1.552.045,0,.047,0,17.123,1.552A.366.366,0,0,1,246.469,376.6Z" transform="translate(-208.652 -371.266)" fill="#fff"/>
          <path id="Trazado_169544" data-name="Trazado 169544" d="M211.544,378.7l-.08-2.44c-1.78-.615-2.812-1.333-2.812-2.1v2.407C208.652,377.349,209.709,378.079,211.544,378.7Z" transform="translate(-208.652 -369.129)" fill="#fff"/>
          <path id="Trazado_169545" data-name="Trazado 169545" d="M230.429,376.263l-.08,2.44c1.835-.624,2.892-1.354,2.892-2.134v-2.407C233.241,374.93,232.208,375.648,230.429,376.263Z" transform="translate(-192.643 -369.129)" fill="#fff"/>
          <path id="Trazado_169546" data-name="Trazado 169546" d="M230.377,378.236l-.066,1.986c1.875-.629,2.958-1.368,2.958-2.157V376.1C233.269,376.882,232.212,377.614,230.377,378.236Z" transform="translate(-192.671 -367.698)" fill="#fff"/>
          <path id="Trazado_169547" data-name="Trazado 169547" d="M208.652,376.1v1.964c0,.789,1.081,1.528,2.958,2.157l-.066-1.986C209.709,377.614,208.652,376.882,208.652,376.1Z" transform="translate(-208.652 -367.698)" fill="#fff"/>
          <path id="Trazado_169548" data-name="Trazado 169548" d="M227.1,373.936l-15.946,1.534,0,10.364,2.278,1.941h9.5a1.185,1.185,0,0,0,.947-.443l.035-.043a3.834,3.834,0,0,1,6.38,0l.035.043a1.185,1.185,0,0,0,.947.443h9.5l2.278-1.941,0-10.364Z" transform="translate(-206.805 -369.296)" fill="#fff"/>
        </g>
        <g id="Grupo_131962" data-name="Grupo 131962" transform="translate(263.934 135.633)" opacity="0.63" style="mix-blend-mode: overlay;isolation: isolate">
          <path id="Trazado_169549" data-name="Trazado 169549" d="M386.271,388.707l-.021.62c1.211-.419,1.915-.907,1.915-1.43,0-1.561-6.188-2.824-13.819-2.824s-13.819,1.263-13.819,2.824c0,.523.7,1.011,1.913,1.43l-.021-.62a.248.248,0,0,1,.238-.262l11.656-1.058.033,0,.031,0,11.657,1.058A.247.247,0,0,1,386.271,388.707Z" transform="translate(-360.527 -385.073)" fill="#fff"/>
          <path id="Trazado_169550" data-name="Trazado 169550" d="M362.5,390.137l-.056-1.661c-1.211-.421-1.913-.909-1.913-1.432v1.639C360.527,389.215,361.246,389.712,362.5,390.137Z" transform="translate(-360.527 -383.619)" fill="#fff"/>
          <path id="Trazado_169551" data-name="Trazado 169551" d="M375.353,388.476l-.056,1.661c1.249-.426,1.971-.923,1.971-1.454v-1.639C377.268,387.567,376.564,388.055,375.353,388.476Z" transform="translate(-349.629 -383.619)" fill="#fff"/>
          <path id="Trazado_169552" data-name="Trazado 169552" d="M375.315,389.818l-.043,1.352c1.277-.427,2.014-.93,2.014-1.468v-1.336C377.286,388.9,376.565,389.394,375.315,389.818Z" transform="translate(-349.648 -382.644)" fill="#fff"/>
          <path id="Trazado_169553" data-name="Trazado 169553" d="M360.527,388.365V389.7c0,.539.735,1.041,2.014,1.468l-.045-1.352C361.246,389.394,360.527,388.9,360.527,388.365Z" transform="translate(-360.527 -382.644)" fill="#fff"/>
          <path id="Trazado_169554" data-name="Trazado 169554" d="M373.089,386.89l-10.856,1.046,0,7.056,1.55,1.322h6.466a.81.81,0,0,0,.647-.3l.023-.031a2.613,2.613,0,0,1,4.345,0l.023.031a.806.806,0,0,0,.645.3H382.4l1.552-1.322,0-7.056Z" transform="translate(-359.27 -383.732)" fill="#fff"/>
        </g>
        <g id="Grupo_131963" data-name="Grupo 131963" transform="translate(227.202 188.547)" opacity="0.49">
          <path id="Trazado_169555" data-name="Trazado 169555" d="M356.948,431.062l2.157,1.015-2.157,1.015-2.158-1.015Zm-4.162,3.988-2.158-1.015-2.157,1.015,2.157,1.015Zm-2.158-3.988-2.157,1.015,2.157,1.015,2.158-1.015Zm5.318-.471-2.157-1.015-2.158,1.015,2.158,1.015Zm-2.157,6.96,2.157-1.015-2.157-1.015-2.158,1.015Zm1-8.448,2.158,1.015L359.1,429.1l-2.16-1.013Zm8.479,1.958-2.158,1.015,2.158,1.015,2.157-1.015Zm-4.164,3.988-2.157-1.015-2.158,1.015,2.158,1.015Zm-1.154-4.459,2.157,1.015,2.158-1.015-2.158-1.015Zm-5.165-1.487-2.155-1.013-2.16,1.013,2.157,1.015Zm-6.321,2.973-2.157-1.015-2.158,1.015,2.158,1.015Zm9.477-4.458-2.153-1.01-2.155,1.01,2.155,1.013Zm-6.317,2.972-2.157-1.015-2.158,1.015,2.158,1.015Zm2.006,2.972,2.158,1.017,2.157-1.017-2.157-1.013Zm-2.006,0-2.157-1.013-2.158,1.013,2.158,1.017Zm8.326,0,2.157,1.017,2.158-1.017-2.158-1.013Z" transform="translate(-337.354 -407.339)" fill="#fff" opacity="0.15" style="mix-blend-mode: overlay;isolation: isolate"/>
          <path id="Trazado_169556" data-name="Trazado 169556" d="M349.092,418.286l2.3,1.079v2.723l-2.3-1.079Zm3.156,4.2,2.3,1.079v-2.723l-2.3-1.079Zm3.154,1.481,2.3,1.079v-2.725l-2.3-1.079Zm3.156,1.479,2.3,1.081v-2.725l-2.3-1.079Zm-9.466-.773,2.3,1.079v-2.723l-2.3-1.079Zm3.156,1.481,2.3,1.079v-2.723l-2.3-1.079Zm3.154,1.481,2.3,1.079v-2.723l-2.3-1.081Zm3.156,1.481,2.3,1.079v-2.725l-2.3-1.079Zm-9.466-.775,2.3,1.079V426.7l-2.3-1.081Zm3.156,1.481,2.3,1.079v-2.725l-2.3-1.079ZM355.4,431.3l2.3,1.079v-2.725l-2.3-1.079Zm3.156,1.479,2.3,1.081v-2.725l-2.3-1.079Zm-7.163.306v-2.725l-2.3-1.079v2.725Zm3.154-1.244-2.3-1.079v2.723l2.3,1.081Zm3.156,1.481-2.3-1.079v2.723l2.3,1.079Zm3.156,4.2v-2.723l-2.3-1.079v2.723Z" transform="translate(-332.232 -413.481)" fill="#fff" opacity="0.3" style="mix-blend-mode: overlay;isolation: isolate"/>
          <path id="Trazado_169557" data-name="Trazado 169557" d="M353.1,421.405l2.3-1.079v2.723l-2.3,1.079Zm-3.156,4.2,2.3-1.079v-2.723l-2.3,1.079Zm-3.156,1.481,2.3-1.079v-2.725l-2.3,1.079Zm-3.154,1.481,2.3-1.081v-2.723l-2.3,1.079Zm9.466-.775,2.3-1.079v-2.723l-2.3,1.079Zm-3.156,1.481,2.3-1.079v-2.723l-2.3,1.079Zm-3.156-1.243v2.723l2.3-1.079v-2.725Zm-3.154,4.2,2.3-1.079v-2.725l-2.3,1.079Zm9.466-.775,2.3-1.079v-2.725l-2.3,1.081Zm-3.156,1.481,2.3-1.079v-2.725l-2.3,1.079Zm-3.156-1.244v2.725l2.3-1.079v-2.725ZM343.63,435.9l2.3-1.081V432.1l-2.3,1.079ZM355.4,434.05v-2.725l-2.3,1.079v2.725Zm-5.457-.165v2.725l2.3-1.081v-2.723Zm-3.156,1.481v2.723l2.3-1.079v-2.723Zm-.853.4-2.3,1.079v2.723l2.3-1.079Zm10.057-18.786h-.328v2.885h.328Zm.315.327-.478-1.787-.48,1.787Zm14.726,23.909-2.723-1.241-.136.3,2.721,1.239Zm-.565.45,1.823.3L370.86,440.8ZM343.507,440.3l-.136-.3-2.721,1.239.136.3Zm-2.69.52L339.39,442l1.823-.306Z" transform="translate(-339.39 -415.521)" fill="#fff" opacity="0.5" style="mix-blend-mode: overlay;isolation: isolate"/>
        </g>
        <g id="Grupo_131964" data-name="Grupo 131964" transform="translate(85.293 103.028)">
          <path id="Trazado_169558" data-name="Trazado 169558" d="M282.733,388.441l3.073,1.444-3.073,1.446-3.072-1.446Zm-5.928,5.678-3.072-1.444-3.073,1.444,3.073,1.446Zm-3.072-5.678-3.073,1.444,3.073,1.446,3.072-1.446Zm7.572-.673-3.071-1.444-3.073,1.444,3.073,1.446Zm-3.071,9.913,3.071-1.446-3.071-1.444-3.073,1.444Zm1.427-12.029,3.072,1.446,3.073-1.446-3.076-1.442Zm12.071,2.789-3.071,1.444,3.071,1.446,3.072-1.446Zm-5.926,5.678-3.073-1.444-3.072,1.444,3.072,1.446Zm-1.646-6.35,3.073,1.446,3.072-1.446-3.072-1.444Zm-7.355-2.117-3.067-1.442-3.076,1.442,3.071,1.446Zm-9,4.233-3.072-1.444-3.072,1.444,3.072,1.446Zm13.493-6.347-3.066-1.437-3.067,1.437,3.067,1.442Zm-8.993,4.23-3.072-1.444-3.073,1.444,3.073,1.446ZM275.161,392l3.073,1.446L281.3,392l-3.071-1.444Zm-2.855,0-3.072-1.444L266.161,392l3.073,1.446Zm11.854,0,3.073,1.446L290.305,392l-3.072-1.444Z" transform="translate(-254.832 -354.66)" fill="#fff" opacity="0.15" style="mix-blend-mode: overlay;isolation: isolate"/>
          <path id="Trazado_169559" data-name="Trazado 169559" d="M271.547,370.247l3.278,1.538v3.879l-3.278-1.538Zm4.494,5.987,3.278,1.538v-3.879l-3.278-1.538Zm4.492,2.108,3.278,1.538V376l-3.278-1.536Zm4.492,2.108,3.279,1.536v-3.879l-3.279-1.536Zm-13.479-1.1,3.278,1.538v-3.879l-3.278-1.538Zm4.494,2.108,3.278,1.538v-3.879l-3.278-1.538Zm4.492,2.108,3.278,1.538v-3.879l-3.278-1.538Zm4.492,2.108,3.279,1.538v-3.881l-3.279-1.536Zm-13.479-1.1,3.278,1.538v-3.879l-3.278-1.536Zm4.494,2.11,3.278,1.536v-3.879l-3.278-1.536Zm4.492,2.108,3.278,1.536v-3.879l-3.278-1.536Zm4.492,2.108,3.279,1.536V388.55l-3.279-1.536Zm-10.2.435v-3.881l-3.278-1.536v3.879Zm4.494-1.773-3.278-1.536V391.9l3.278,1.536Zm4.492,2.108-3.278-1.536V394l3.278,1.536Zm4.494,5.987V393.77l-3.279-1.536v3.879Z" transform="translate(-247.539 -363.407)" fill="#fff" opacity="0.44" style="mix-blend-mode: overlay;isolation: isolate"/>
          <path id="Trazado_169560" data-name="Trazado 169560" d="M277.248,374.689l3.277-1.538v3.879l-3.277,1.538Zm-4.492,5.987,3.278-1.538v-3.879l-3.278,1.538Zm-4.494,2.108,3.279-1.538v-3.879l-3.279,1.536Zm-4.492,2.106,3.278-1.536v-3.879l-3.278,1.536Zm13.479-1.1,3.277-1.538v-3.879l-3.277,1.538Zm-4.492,2.108,3.278-1.538V380.48l-3.278,1.538Zm-4.494-1.771V388l3.279-1.538v-3.879Zm-4.492,5.987,3.278-1.538V384.7l-3.278,1.536Zm13.479-1.1,3.277-1.538v-3.877l-3.277,1.536Zm-4.492,2.108,3.278-1.536V385.7l-3.278,1.536Zm-4.494-1.771v3.879l3.279-1.536V387.81Zm-4.492,5.987,3.278-1.536v-3.879l-3.278,1.536Zm16.756-2.64v-3.879l-3.277,1.536v3.881Zm-7.77-.235v3.879l3.278-1.536v-3.879Zm-4.494,2.108v3.879l3.279-1.536V393.03Zm-1.215.572-3.278,1.536v3.879l3.278-1.536Zm14.322-26.751H280.9v4.11h.469Zm.447.466-.681-2.542-.681,2.542ZM302.784,402.9l-3.875-1.766-.195.428,3.875,1.766Zm-.8.641,2.6.434-2.031-1.675ZM263.6,401.6l-.195-.428-3.875,1.766.195.427Zm-3.834.738-2.03,1.675,2.6-.434Z" transform="translate(-257.732 -366.311)" fill="#fff" opacity="0.5" style="mix-blend-mode: overlay;isolation: isolate"/>
        </g>
        <g id="Grupo_131965" data-name="Grupo 131965" transform="translate(93.093 172.642)" opacity="0.63" style="mix-blend-mode: overlay;isolation: isolate">
          <path id="Trazado_169561" data-name="Trazado 169561" d="M275.544,414.571a6.662,6.662,0,1,0-6.663,6.661A6.663,6.663,0,0,0,275.544,414.571Z" transform="translate(-262.22 -405.233)" fill="#fff"/>
          <path id="Trazado_169562" data-name="Trazado 169562" d="M285.58,413.495a5.384,5.384,0,1,0-5.384,5.386A5.384,5.384,0,0,0,285.58,413.495Z" transform="translate(-252.929 -405.084)" fill="#fff"/>
          <path id="Trazado_169563" data-name="Trazado 169563" d="M289.554,406.369a4.418,4.418,0,1,0,4.418,4.418A4.417,4.417,0,0,0,289.554,406.369Z" transform="translate(-245.312 -406.369)" fill="#fff"/>
          <path id="Trazado_169564" data-name="Trazado 169564" d="M273.7,416.692a4.054,4.054,0,1,0,4.054,4.054A4.058,4.058,0,0,0,273.7,416.692Zm0,7.561a3.507,3.507,0,1,1,3.505-3.507A3.511,3.511,0,0,1,273.7,424.253Z" transform="translate(-256.739 -398.752)" fill="#fff"/>
          <path id="Trazado_169565" data-name="Trazado 169565" d="M286.533,415.372a6.348,6.348,0,1,0,6.348,6.348A6.356,6.356,0,0,0,286.533,415.372Zm0,12.149a5.8,5.8,0,1,1,5.8-5.8A5.809,5.809,0,0,1,286.533,427.521Z" transform="translate(-248.965 -399.726)" fill="#fff"/>
          <path id="Trazado_169566" data-name="Trazado 169566" d="M272.323,418.62l-3.231-3.969a6.715,6.715,0,0,1-.742.607l3.227,3.964A4.366,4.366,0,0,1,272.323,418.62Z" transform="translate(-257.697 -400.258)" fill="#fff"/>
          <path id="Trazado_169567" data-name="Trazado 169567" d="M273.252,419.312a4.277,4.277,0,0,1,.766.573l4.312-5.683a5.8,5.8,0,0,1-.758-.586Z" transform="translate(-254.08 -401.021)" fill="#fff"/>
          <path id="Trazado_169568" data-name="Trazado 169568" d="M287.609,411.313l-2.68,7.059a6.494,6.494,0,0,1,.893.344l2.681-7.061A4.6,4.6,0,0,1,287.609,411.313Z" transform="translate(-245.464 -402.721)" fill="#fff"/>
          <path id="Trazado_169569" data-name="Trazado 169569" d="M283.325,417.468l-2.921-3.851a5.756,5.756,0,0,1-.758.586l2.918,3.848A6.679,6.679,0,0,1,283.325,417.468Z" transform="translate(-249.362 -401.021)" fill="#fff"/>
        </g>
        <path id="Trazado_169570" data-name="Trazado 169570" d="M238.705,410.557l-9.621-15.306-9.62,15.306h5.981v19.407h7.279V410.557Z" transform="translate(-200.674 -241.93)" fill="#fff" opacity="0.63" style="mix-blend-mode: overlay;isolation: isolate"/>
        <path id="Trazado_169571" data-name="Trazado 169571" d="M307.68,366.2l8.368-5.774-8.832-5.037.144,3.361-10.9.467.175,4.09,10.9-.467Z" transform="translate(-143.866 -271.345)" fill="#fff" opacity="0.48" style="mix-blend-mode: overlay;isolation: isolate"/>
        <path id="Trazado_169572" data-name="Trazado 169572" d="M325.743,451.046,338.28,442.4l-13.231-7.546.216,5.035-16.336.7.263,6.128,16.336-.7Z" transform="translate(-134.664 -212.713)" fill="#fff" opacity="0.63" style="mix-blend-mode: overlay;isolation: isolate"/>
        <path id="Trazado_169573" data-name="Trazado 169573" d="M308.967,307.43l-10.158.424,4.787,8.97,1.67-2.92,9.475,5.418,2.032-3.554L307.3,310.35Z" transform="translate(-142.131 -306.728)" fill="#fff" opacity="0.63" style="mix-blend-mode: overlay;isolation: isolate"/>
        <path id="Trazado_169574" data-name="Trazado 169574" d="M273.217,331.265l3.235-14.184-14.184,3.235,3.4,3.4-11.043,11.043,4.142,4.142,11.043-11.043Z" transform="translate(-174.729 -299.607)" fill="#fff" opacity="0.63" style="mix-blend-mode: overlay;isolation: isolate"/>
        <path id="Trazado_169575" data-name="Trazado 169575" d="M391.22,416.7l7.742,12.317L406.7,416.7h-4.813V401.078h-5.858V416.7Z" transform="translate(-73.946 -237.631)" fill="#fff" opacity="0.63" style="mix-blend-mode: overlay;isolation: isolate"/>
        <path id="Trazado_169576" data-name="Trazado 169576" d="M413.42,326.958l-11.4-9.037-3.2,14.192,4.539-1.6,5.2,14.727,5.524-1.95-5.2-14.727Z" transform="translate(-68.339 -298.988)" fill="#fff" opacity="0.63" style="mix-blend-mode: overlay;isolation: isolate"/>
        <g id="Grupo_131966" data-name="Grupo 131966" transform="translate(355.432 137.555)" opacity="0.58">
          <path id="Trazado_169577" data-name="Trazado 169577" d="M423.665,407.772a23.128,23.128,0,0,0,7.7,1.289c9.183,0,16.652-5.134,16.652-11.442s-7.469-11.44-16.652-11.44-16.652,5.132-16.652,11.44a9.515,9.515,0,0,0,3.639,7.148l-5.17,11.028Zm-4.525-3.45a8.794,8.794,0,0,1-3.583-6.7c0-5.839,7.09-10.59,15.8-10.59s15.8,4.751,15.8,10.59-7.09,10.592-15.8,10.592a22.139,22.139,0,0,1-7.62-1.317l-.221-.082-8.1,6.2,3.975-8.475Z" transform="translate(-413.177 -386.179)" fill="#fff" opacity="0.2" style="mix-blend-mode: overlay;isolation: isolate"/>
          <path id="Trazado_169578" data-name="Trazado 169578" d="M421.129,395.266a1.156,1.156,0,1,0-1.156-1.156A1.157,1.157,0,0,0,421.129,395.266Z" transform="translate(-408.163 -381.179)" fill="#fff" opacity="0.2" style="mix-blend-mode: overlay;isolation: isolate"/>
          <path id="Trazado_169579" data-name="Trazado 169579" d="M423.891,395.266a1.156,1.156,0,1,0-1.156-1.156A1.156,1.156,0,0,0,423.891,395.266Z" transform="translate(-406.125 -381.179)" fill="#fff" opacity="0.2" style="mix-blend-mode: overlay;isolation: isolate"/>
          <path id="Trazado_169580" data-name="Trazado 169580" d="M426.653,395.266a1.156,1.156,0,1,0-1.156-1.156A1.156,1.156,0,0,0,426.653,395.266Z" transform="translate(-404.087 -381.179)" fill="#fff" opacity="0.2" style="mix-blend-mode: overlay;isolation: isolate"/>
        </g>
        <path id="Trazado_169581" data-name="Trazado 169581" d="M246.1,347.339l1.694-3.611L245.3,341.4l.3-3.3,2.864-1.842-1.024-3.856-3.4-.181-1.893-2.715,1.011-3.252-3.264-2.3-2.72,2.049-3.2-.864-1.316-3.142-3.976.339-.768,3.318-3,1.392-3.027-1.561-2.827,2.815,1.545,3.034-1.406,3-3.321.751-.358,3.974,3.135,1.331.848,3.2-2.061,2.709,2.28,3.276,3.258-1,2.706,1.9.163,3.4,3.851,1.041,1.856-2.855,3.3-.281,2.313,2.5,3.62-1.679-.414-3.38,2.344-2.334Zm-10.147-.681-6.14.523-5.038-3.547-1.581-5.956,2.617-5.579,5.591-2.589,5.949,1.607,3.523,5.057-.553,6.136Zm.4-14.174-4.88-1.321-4.588,2.127-2.15,4.577,1.3,4.887,4.134,2.911,5.04-.429,3.583-3.566.452-5.036ZM234.4,343.491l-3.728.316-3.059-2.151-.959-3.616,1.588-3.387,3.394-1.573,3.611.977,2.139,3.071-.335,3.726Z" transform="translate(-203.583 -295.972)" fill="#fff" opacity="0.63" style="mix-blend-mode: overlay;isolation: isolate"/>
        <path id="Trazado_169582" data-name="Trazado 169582" d="M348.774,372.689l1.142-2.3-1.568-1.528.238-2.113,1.866-1.142-.6-2.492-2.183-.165-1.177-1.771.7-2.073-2.063-1.522-1.778,1.277-2.039-.6-.8-2.037-2.558.16-.54,2.12-1.95.852-1.922-1.046-1.856,1.767.949,1.973-.947,1.9-2.145.434-.285,2.548,1.993.9.5,2.066-1.363,1.712,1.418,2.136,2.106-.593,1.712,1.262.056,2.188,2.459.725,1.232-1.807,2.122-.134,1.449,1.641,2.349-1.025-.217-2.178,1.54-1.467Zm-6.507-.582-3.952.247L335.13,370l-.93-3.848,1.762-3.547,3.627-1.583,3.8,1.119,2.19,3.3-.443,3.933Zm.462-9.1-3.116-.917-2.977,1.3-1.446,2.909.763,3.158,2.614,1.929,3.243-.2,2.353-2.24.363-3.227Zm-1.415,7.044-2.4.149-1.934-1.427-.563-2.336,1.069-2.153,2.2-.961L342,364l1.329,2-.269,2.388Z" transform="translate(-119.666 -270.724)" fill="#fff" opacity="0.58" style="mix-blend-mode: overlay;isolation: isolate"/>
        <path id="Trazado_169583" data-name="Trazado 169583" d="M435.474,372.636l1.465-2.949-2.011-1.964.3-2.713,2.4-1.467-.773-3.2-2.8-.21-1.51-2.275.893-2.664-2.65-1.955-2.282,1.641-2.619-.772-1.029-2.615-3.286.205-.693,2.723-2.5,1.093-2.469-1.343-2.384,2.271,1.218,2.532-1.215,2.445-2.754.558-.367,3.272,2.56,1.156.641,2.655-1.75,2.2L413.676,374l2.706-.761,2.2,1.621.071,2.81,3.159.93,1.583-2.322,2.725-.17,1.861,2.106L431,376.9l-.278-2.8,1.978-1.884Zm-8.357-.749-5.074.316-4.091-3.017-1.194-4.942,2.261-4.553,4.661-2.035,4.876,1.437,2.812,4.235-.568,5.054Zm.594-11.685-4-1.18-3.825,1.67-1.856,3.736.98,4.056,3.357,2.477,4.164-.261,3.022-2.876.467-4.147Zm-1.816,9.044-3.081.193-2.483-1.833-.725-3,1.373-2.765,2.829-1.234,2.961.871,1.707,2.574-.344,3.067Z" transform="translate(-59.792 -274.217)" fill="#fff" opacity="0.63" style="mix-blend-mode: overlay;isolation: isolate"/>
        <path id="Trazado_169584" data-name="Trazado 169584" d="M339.453,317.517l.726-1.463-1-.973.151-1.347,1.189-.728-.384-1.588-1.39-.1L338,310.185l.443-1.322-1.314-.97-1.133.813-1.3-.382-.509-1.3-1.63.1-.344,1.35-1.242.542-1.225-.666-1.183,1.126.6,1.256-.6,1.213-1.368.278-.182,1.623,1.27.573.32,1.317-.869,1.09.9,1.361,1.342-.377,1.09.8.036,1.394,1.566.462.787-1.152,1.352-.085.923,1.046,1.5-.655-.137-1.387.98-.933Zm-4.146-.372-2.518.158-2.03-1.5-.593-2.452,1.123-2.259,2.311-1.01,2.421.714,1.394,2.1-.281,2.506Zm.294-5.8-1.985-.586-1.9.829-.921,1.854.487,2.012,1.665,1.229,2.066-.13,1.5-1.427.231-2.058Zm-.9,4.487-1.529.1-1.232-.909-.36-1.489.681-1.371,1.4-.612,1.468.433.848,1.276-.172,1.521Z" transform="translate(-121.32 -307.026)" fill="#fff" opacity="0.63" style="mix-blend-mode: overlay;isolation: isolate"/>
        <path id="Trazado_169585" data-name="Trazado 169585" d="M270.214,345.7l.726-1.463-1-.973.151-1.347,1.19-.728L270.9,339.6l-1.39-.1-.751-1.13.445-1.321-1.316-.97-1.131.813-1.3-.384-.511-1.3-1.63.1-.344,1.352-1.242.542-1.224-.666-1.183,1.126.6,1.255-.6,1.215-1.366.276-.184,1.623,1.272.574.318,1.317-.869,1.091.9,1.361,1.342-.377,1.091.8.035,1.4,1.568.46.785-1.152,1.352-.083.923,1.044,1.5-.653-.139-1.389.982-.933Zm-4.146-.372-2.518.158-2.03-1.5-.593-2.452,1.123-2.259,2.311-1.008,2.421.713,1.4,2.1-.282,2.508Zm.3-5.8-1.986-.584-1.9.827-.921,1.854.487,2.012,1.667,1.229,2.066-.129,1.5-1.428.233-2.056Zm-.9,4.489-1.528.094L262.7,343.2l-.36-1.488.681-1.371,1.4-.613,1.47.433.846,1.276-.17,1.522Z" transform="translate(-172.407 -286.231)" fill="#fff" opacity="0.63" style="mix-blend-mode: overlay;isolation: isolate"/>
        <path id="Trazado_169586" data-name="Trazado 169586" d="M394.869,345.787a1.335,1.335,0,0,0-.826.306l-3.851-6.666a1.358,1.358,0,0,0-.921-2.365c-.042,0-.078.021-.12.024l-2.3-7.791a1.346,1.346,0,0,0,.48-1.02,1.368,1.368,0,0,0-2.735,0,1.349,1.349,0,0,0,.115.544l-1.378,1.562a1.317,1.317,0,0,0-1.886.857h-3.3V320.771a2.173,2.173,0,1,0-.721-.016v10.483h-3.3a1.348,1.348,0,0,0-1.293-1,1.323,1.323,0,0,0-.612.16l-1.456-1.668a1.338,1.338,0,0,0,.09-.45,1.367,1.367,0,0,0-2.734,0,1.339,1.339,0,0,0,.581,1.088l-2.24,7.591c-.021,0-.038-.012-.059-.012a1.362,1.362,0,0,0-.944,2.35l-3.789,6.559a1.346,1.346,0,0,0-.9-.353,1.367,1.367,0,1,0,1.368,1.368,1.26,1.26,0,0,0-.057-.281l4.025-6.967a1.276,1.276,0,0,0,.294.059,1.368,1.368,0,0,0,1.368-1.368,1.346,1.346,0,0,0-.631-1.121l2.24-7.567a1.115,1.115,0,0,0,.109.023,1.344,1.344,0,0,0,.85-.322l1.366,1.548a1.335,1.335,0,0,0-.24.73,1.367,1.367,0,0,0,1.368,1.368c.023,0,.042-.012.066-.014l4.214,12.744a1.31,1.31,0,0,0-.375,2.018l-1.934,3.512a1.275,1.275,0,0,0-.229-.045,1.366,1.366,0,0,0-1.366,1.366,1.352,1.352,0,0,0,.7,1.171l-1.654,13.666c-.01,0-.021-.007-.033-.007a1.358,1.358,0,0,0-.115,2.713l.478,17.448-.733.082a1.366,1.366,0,1,0-1.253,1.912,1.352,1.352,0,0,0,1.333-1.19l1.4-.158-.5-18.225a1.357,1.357,0,0,0,.765-1.213,1.344,1.344,0,0,0-.638-1.128l1.639-13.706a1.365,1.365,0,0,0,1.35-1.364,1.343,1.343,0,0,0-.478-1.018l1.866-3.389a1.178,1.178,0,0,0,.905,0l2.016,3.662a1.329,1.329,0,0,0-.252.746,1.35,1.35,0,0,0,.965,1.286l1.635,13.635a1.339,1.339,0,0,0,.134,2.582l-.5,18.133,1.242.141a1.356,1.356,0,0,0,2.7-.16,1.364,1.364,0,0,0-2.61-.56l-.594-.066.476-17.509a1.338,1.338,0,0,0-.134-2.6L381.7,353.849a1.349,1.349,0,0,0,1.038-1.3,1.366,1.366,0,0,0-1.366-1.366,1.351,1.351,0,0,0-.579.137l-1.964-3.6a1.311,1.311,0,0,0-.372-2.023l4.214-12.744c.024,0,.044.014.066.014a1.367,1.367,0,0,0,1.368-1.368,1.335,1.335,0,0,0-.24-.73l1.321-1.5a1.337,1.337,0,0,0,.775.271,1.187,1.187,0,0,0,.221-.045l2.287,7.751a1.34,1.34,0,0,0-.57,1.081,1.368,1.368,0,0,0,1.368,1.366,1.2,1.2,0,0,0,.275-.056l4.039,7a1.306,1.306,0,0,0-.083.412,1.368,1.368,0,1,0,1.368-1.368Zm-17.076-.37-4.2-12.7a1.334,1.334,0,0,0,.544-.751h7.315a1.331,1.331,0,0,0,.567.766Z" transform="translate(-97.413 -300.123)" fill="#fff" opacity="0.63" style="mix-blend-mode: overlay;isolation: isolate"/>
      </g>
      <g id="Grupo_131971" data-name="Grupo 131971" transform="translate(358.85 408.232)">
        <g id="Grupo_131968" data-name="Grupo 131968" transform="translate(85.571 31.561)">
          <path id="Trazado_169587" data-name="Trazado 169587" d="M347.443,395.476l.384-1.223.874-1.731,3.594-2.438a1.233,1.233,0,0,0,.518-1.423l1.166-.792a1.234,1.234,0,0,0,.233-1.9l-.021-.023a1.57,1.57,0,0,0-.464-.349,1.4,1.4,0,0,0-.526-1.319l-.024-.021a1.874,1.874,0,0,0-2.395.023l-4.5,4.139c-.014.012-.023.026-.036.04a1.491,1.491,0,0,0-.11.123c-.03.038-.061.076-.087.116a1.365,1.365,0,0,0-.066.122,1.153,1.153,0,0,0-.068.149c-.005.016-.016.03-.021.047l-1.764,5.531a1.507,1.507,0,0,0,1.183,1.847l.033.007A1.681,1.681,0,0,0,347.443,395.476Z" transform="translate(-342.426 -383.123)" fill="#f2c799"/>
          <path id="Trazado_169588" data-name="Trazado 169588" d="M349.866,412.086l2.417-4.746a6.365,6.365,0,0,0,.172-2.629l-.328-2.315a29.44,29.44,0,0,1,.716-6.618c1.051-4.162-1.9-5.158-2.416-2.488l-1.632,4.464-.624-2.143.514-5.358,3.267-4.525a1.391,1.391,0,0,0-.551-2.045l-.029-.016a1.823,1.823,0,0,0-2.332.421s-3.736,5.469-3.736,5.486c0,0-1.305,4.2-1.578,5.549-.052.254-.054.613-.083.98a50.479,50.479,0,0,0,1.4,11.386l-1.92,2.669Z" transform="translate(-343.123 -383.424)" fill="#ffd2a1"/>
        </g>
        <path id="Trazado_169589" data-name="Trazado 169589" d="M345.062,413.632c-2.563,4.261-2.525,9.475-3.54,14.292a21.086,21.086,0,0,1-1.209,4c-1.741-.268-3.961-2.7-6.213-6.008-.655-.961-1.316-2-1.962-3.081a119.867,119.867,0,0,1-5.672-10.736c-.746-1.588-1.387-3.038-1.884-4.233a88.7,88.7,0,0,0,9.388-2.77c.076-.028.153-.052.226-.076s.172-.057.254-.08a75.83,75.83,0,0,1,7.493-2.162c.229.773.461,1.545.674,2.29.518,1.769,1,3.429,1.383,4.816C344.522,411.7,344.9,413.059,345.062,413.632Z" transform="translate(-271.232 -337.584)" fill="#ffd2a1"/>
        <path id="Trazado_169590" data-name="Trazado 169590" d="M357.719,401.377c-.1.283-.2.565-.287.846-.761,2.219-1.536,4.577-2.369,6.979l0,.009c-3.961,11.4-9.28,23.772-20.873,27.154a18.808,18.808,0,0,1-.808-3.712c-.507-4.395.407-8.462-.494-13.4a55.981,55.981,0,0,0,4.989-4.932,161,161,0,0,0,14.443-17.568l.063.059Z" transform="translate(-265.106 -342.026)" fill="#ffd2a1"/>
        <path id="Trazado_169591" data-name="Trazado 169591" d="M339.692,397.633a14.9,14.9,0,0,0-9.451-6.922c-3.868-.971-7.389.229-8.559,4.009a15.609,15.609,0,0,0,.344,9.579c1.5,3.87,3.514,12.914,5.37,17.375,5.837-1.243,12.566-6.34,18.482-7.636A130.789,130.789,0,0,0,339.692,397.633Z" transform="translate(-273.809 -346.723)" fill="#ffad3b"/>
        <path id="Trazado_169592" data-name="Trazado 169592" d="M351.315,464.69H304.524c0-.082,0-.172,0-.268-.005-.172-.01-.36-.016-.565-.023-.8-.057-1.851-.109-3.1-.009-.229-.019-.469-.028-.712-.01-.264-.019-.532-.035-.81,0-.137-.009-.281-.019-.426s-.009-.282-.019-.429c-.014-.382-.028-.78-.047-1.191-.068-1.449-.139-3.052-.216-4.774-.019-.354-.033-.718-.052-1.081-.01-.249-.024-.5-.035-.756-.014-.287-.028-.574-.042-.865s-.03-.584-.038-.876c-.019-.421-.043-.841-.063-1.272-.014-.3-.03-.6-.043-.9-.038-.784-.076-1.578-.115-2.388-.068-1.453-.139-2.946-.21-4.461-.024-.45-.043-.9-.068-1.349-.172-3.611-.349-7.337-.521-11.016-.042-.937-.085-1.875-.129-2.8-.028-.568-.052-1.138-.076-1.707-.019-.335-.033-.666-.049-1-.061-1.326-.118-2.636-.176-3.919-.024-.587-.054-1.171-.077-1.745-.024-.612-.054-1.215-.076-1.813-.4-9.336-.641-16.692-.488-18.4l.009-.005,19.917-10.4,12.415,2.874,5.472,1.269,4.223,2.869,4.2,2.85.019.01,3.1,2.1.019.014.009.011v0c.035,1.444-.014,7.864-.076,16.224v.019c0,1.215-.014,2.462-.023,3.754-.01,1.192-.016,2.41-.024,3.649-.033,5.568-.063,11.541-.071,17.248-.01,4.739-.005,9.292.028,13.282.005,1.2.019,2.339.033,3.423C351.077,459.61,351.167,462.976,351.315,464.69Z" transform="translate(-288.095 -350.219)" fill="#ffad3b"/>
        <path id="Trazado_169593" data-name="Trazado 169593" d="M349.046,453.4H304.3c0-.082,0-.172,0-.268-.005-.172-.01-.36-.016-.565-.023-.8-.057-1.851-.109-3.1-.009-.229-.019-.469-.028-.713-.01-.264-.019-.532-.035-.81,0-.137-.009-.281-.019-.426s-.009-.282-.019-.429c-.014-.382-.028-.78-.047-1.19-.068-1.449-.139-3.052-.216-4.774-.019-.354-.033-.718-.052-1.081-.01-.249-.024-.5-.035-.756-.014-.287-.028-.574-.042-.866s-.03-.584-.038-.876c-.019-.421-.043-.841-.063-1.272-.014-.3-.03-.6-.043-.9-.038-.784-.076-1.578-.115-2.388-.068-1.453-.139-2.946-.21-4.461-.024-.45-.043-.9-.068-1.349-.172-3.611-.349-7.337-.521-11.016-.042-.937-.085-1.875-.129-2.8-.028-.568-.052-1.138-.076-1.707-.019-.335-.033-.666-.049-1-.061-1.326-.118-2.636-.176-3.919-.024-.587-.054-1.171-.077-1.745-.024-.612-.054-1.215-.076-1.813l10.507-2.211-.148,1.02-.005.019L309.4,422.724l17.481,13,.01.009,3.464,2.574.268.2.287.229.205.167.341.278,1.63,1.316.923.745,3.344,2.7.54.436,1.354,1.09.851.688,1.832,1.484,2.3,1.854.044.035.009,0,.68.551Z" transform="translate(-287.868 -338.927)" fill="#1d1d1b" opacity="0.1"/>
        <g id="Grupo_131969" data-name="Grupo 131969" transform="translate(0 45.495)">
          <path id="Trazado_169594" data-name="Trazado 169594" d="M337.256,435.714l-.125.435-2.037,7.228-.215.77a72.023,72.023,0,0,1-7.443-.947,102.008,102.008,0,0,1-17.615-4.84c-9.37-3.529-16.563-8.065-15.894-11.92,1.053-6.055,2.4-13.526,3.808-20.8a.1.1,0,0,1,.01-.038l.172-.9a102.166,102.166,0,0,0,10.464,3.185c2.3.636,4.593,1.31,6.816,2.17-.1.306-.186.617-.282.919-1.679,5.438-3.224,10.152-3.224,10.152s10.67,5.386,21.207,11.843l.01.009c1.458.89,2.918,1.809,4.343,2.737Z" transform="translate(-293.883 -381.661)" fill="#ffd2a1"/>
          <path id="Trazado_169595" data-name="Trazado 169595" d="M317.66,405.268a14.9,14.9,0,0,0-4.047-10.994c-2.687-2.949-6.284-3.9-9.348-1.392a15.624,15.624,0,0,0-5.012,8.171c-.89,4.054-2.542,9.377-3.462,14.12,5.551,2.193,12.469,3.533,18.115,5.724A116.116,116.116,0,0,0,317.66,405.268Z" transform="translate(-292.475 -391.442)" fill="#ffad3b"/>
        </g>
        <path id="Trazado_169596" data-name="Trazado 169596" d="M331.076,394.15c-.005.153-.005.306-.005.45a15.155,15.155,0,0,1,.038,1.889,11.167,11.167,0,0,1-.183,1.607,7.473,7.473,0,0,1-1.974,4.027c-4.094,4.094-12.829.937-15.731-9.777l.311-3.142.554-5.6.372-3.769.322-3.257c1.42.169,2.946.341,4.482.507,1.046.115,2.094.224,3.123.33,4.6.473,8.714.822,9.742.746,0,0-.77,8.514-.994,14.049C331.1,392.911,331.084,393.566,331.076,394.15Z" transform="translate(-279.615 -356.914)" fill="#ffd2a1"/>
        <path id="Trazado_169597" data-name="Trazado 169597" d="M340.689,388.1l-1.359.709c.2,1.018,1.274,5.328,1.274,5.328a9.742,9.742,0,0,1-.226,4.668,3.556,3.556,0,0,1-3.017,2.569,27.813,27.813,0,0,1-3.63.229c-6.39-.043-10.036-2.8-11.633-8.279a19.55,19.55,0,0,1-.5-2.148c-.066-.358-.123-.727-.177-1.105a10.734,10.734,0,0,0-1.161.2c-.254.057-.521.12-.794.186-.881.212-1.828.461-2.721.6-1.536.259-2.928.229-3.6-.756-1.889-2.768-2.162-4.1-2.984-7.389-1.291-6.925-.1-10.646,2.11-12.77,2.635-2.525,6.72-2.77,9.767-3.434a13.115,13.115,0,0,1,12.751,4.524,15.442,15.442,0,0,1,1.55,2.263,20.822,20.822,0,0,1,2,5.094,17.066,17.066,0,0,1-.335,1.952l3.114,4.73.271.412A1.663,1.663,0,0,1,340.689,388.1Z" transform="translate(-282.27 -364.366)" fill="#ffd2a1"/>
        <path id="Trazado_169598" data-name="Trazado 169598" d="M317.035,397.641c8.222.394,2.391-10.417,2.391-10.417s2.633,1.853,3.682,2.7c1.654-.382,1.865-.205,3.338-.652-1.653-10.022-5.717-17.027,9.075-17.146,2.68-1.091-1.88-9.542-14.647-6-7.452,2.068-12.862,7.33-12.2,15.036C309.088,386,310.162,392.315,317.035,397.641Z" transform="translate(-283.011 -365.263)" fill="#3c3c3b"/>
        <path id="Trazado_169599" data-name="Trazado 169599" d="M363.286,405.444c-3.96,11.4-9.28,23.772-20.873,27.154-1.741-.268-3.961-2.7-6.213-6.008-.01,4.739-.005,9.292.028,13.282l.919.167a1.667,1.667,0,0,1,1.343,1.938l-.01.033a1.663,1.663,0,0,1-1.936,1.34l-.283-.054c.054,4.353.144,7.719.292,9.433H321.736l.12-.229.989-1.87.177-.33.216-.407,1-1.889.163-.308,1.163-2.2.4-.759.273-.507,1.3-2.462.057-.106.049-.09,1.335-2.525.142-.269.1-.181,1-1.889a20.329,20.329,0,0,0,1-1.965,47.41,47.41,0,0,0,3.017-11.232c.7-4.247,1.168-8.986,1.55-13.922.1-1.258.191-2.536.282-3.818.082-1.267.169-2.548.249-3.83v-.019c0-.019.005-.038.005-.057.057,1.225.134,2.478.226,3.75.076,1.138.172,2.3.276,3.453.723,7.7,2.118,15.458,4.779,19.82.123.2.249.393.377.579.56-.278,1.111-.565,1.641-.865C353.146,423.3,358.272,415.005,363.286,405.444Z" transform="translate(-273.332 -338.258)" fill="#1d1d1b" opacity="0.1"/>
        <g id="Grupo_131970" data-name="Grupo 131970" transform="translate(33.552 96.25)">
          <path id="Trazado_169600" data-name="Trazado 169600" d="M318.964,425.1l-.005-.037c-.146-1,1.17-1.978,2.224-2.071a67.654,67.654,0,0,0,12.257-2.16c3.128-.958,2.779,2.131-.087,3.316a46.239,46.239,0,0,1-12.073,2.605A2.113,2.113,0,0,1,318.964,425.1Z" transform="translate(-308.942 -420.648)" fill="#f2c799"/>
          <path id="Trazado_169601" data-name="Trazado 169601" d="M313.19,430.5l3.783-8.585,8.766,1.6-4.91,8.507Z" transform="translate(-313.19 -419.715)" fill="#ffd2a1"/>
          <path id="Trazado_169602" data-name="Trazado 169602" d="M338.412,426.8l-.01.033a1.663,1.663,0,0,1-1.936,1.34l-.283-.054-1.974-.358-.014-.005-6.447-1.171-.043-.01H327.7l-.21-.038-3.721-.678-.556-.1c-.014-.005-.028-.005-.042-.01a1.625,1.625,0,0,1-1.034-.683,1.68,1.68,0,0,1-.268-1.244l.01-.033a1.655,1.655,0,0,1,1.893-1.343.176.176,0,0,1,.043,0l.556.1,3.936.718.831.153.308.052,6.7,1.225.919.167A1.667,1.667,0,0,1,338.412,426.8Z" transform="translate(-306.807 -419.336)" fill="#f2c799"/>
          <path id="Trazado_169603" data-name="Trazado 169603" d="M324.244,426.218l.005-.033a1.668,1.668,0,0,1,1.939-1.34l6.105,1.114a1.665,1.665,0,0,1,1.34,1.938l-.005.033a1.666,1.666,0,0,1-1.938,1.34l-6.107-1.114A1.665,1.665,0,0,1,324.244,426.218Z" transform="translate(-305.055 -417.57)" fill="#f2c799"/>
          <path id="Rectángulo_40239" data-name="Rectángulo 40239" d="M.957,0H2.4a.96.96,0,0,1,.96.96V7.576a.958.958,0,0,1-.958.958H.959A.959.959,0,0,1,0,7.575V.957A.957.957,0,0,1,.957,0Z" transform="translate(16.573 13.183) rotate(-79.563)" fill="#f2c799"/>
          <path id="Trazado_169604" data-name="Trazado 169604" d="M322.582,429.62l.005-.028a1.478,1.478,0,0,1,1.72-1.19l4.546.829a1.478,1.478,0,0,1,1.19,1.72l-.005.03a1.482,1.482,0,0,1-1.721,1.19l-4.546-.829A1.481,1.481,0,0,1,322.582,429.62Z" transform="translate(-306.278 -414.945)" fill="#f2c799"/>
          <path id="Trazado_169605" data-name="Trazado 169605" d="M317.453,429.23l.589-3.229a4.9,4.9,0,0,1,5.7-3.941l3.943.719-2.346,12.872-3.945-.719A4.9,4.9,0,0,1,317.453,429.23Z" transform="translate(-310.104 -419.666)" fill="#ffd2a1"/>
          <path id="Trazado_169606" data-name="Trazado 169606" d="M321.613,435.248l2.933.535a1.479,1.479,0,0,0,1.72-1.19l.005-.029a1.477,1.477,0,0,0-1.19-1.721l.534.1a1.667,1.667,0,0,0,1.938-1.34l.007-.033a1.669,1.669,0,0,0-1.34-1.939l.493.09a1.665,1.665,0,0,0,1.938-1.34l.005-.033a1.666,1.666,0,0,1,.6-3.278l.007-.033a1.667,1.667,0,0,0-1.342-1.938l-3.959-.721Z" transform="translate(-306.975 -419.372)" fill="#ffd2a1"/>
        </g>
        <path id="Trazado_169607" data-name="Trazado 169607" d="M348.51,449.715s-2.358.115-6.1.292c-1.493.066-3.2.143-5.074.229h-27.02c0-.082,0-.172,0-.268-.005-.172-.01-.36-.016-.565-.023-.8-.057-1.851-.109-3.1-.009-.229-.019-.469-.028-.713-.01-.264-.019-.532-.035-.81,0-.137-.009-.281-.019-.426s-.009-.282-.019-.429c-.014-.382-.028-.78-.047-1.191-.068-1.449-.139-3.052-.216-4.774-9.37-3.53-16.563-8.065-15.894-11.92,1.053-6.055,2.4-13.526,3.808-20.8-.794,8.628-2.219,17.726-1.133,21.733a65.469,65.469,0,0,0,13.091,8.284,87.4,87.4,0,0,0,18.3,6.289q3.248.761,6.734,1.368c.123.024.243.043.368.063.229.043.454.082.683.12,1.152,1.63,2.727,2.615,6.414,4.146.186.082.377.162.579.238.259.106.526.215.8.327.207.08.417.167.636.249.322.129.652.257,1,.4a.545.545,0,0,1,.066.024C346.247,448.85,347.318,449.26,348.51,449.715Z" transform="translate(-293.883 -335.766)" fill="#1d1d1b" opacity="0.1"/>
        <path id="Trazado_169608" data-name="Trazado 169608" d="M328.5,390.285c-.005.153-.005.306-.005.45a15.155,15.155,0,0,1,.038,1.889l4.223,2.869-.076.1a20.563,20.563,0,0,1-4.329-1.362,26.524,26.524,0,0,1-5.29-2.876c-3.017-2.146-5.73-5.241-6.361-9.541.028.038.085.1.167.191.98,1.071,5.7,5.582,11.691,6.338a12.763,12.763,0,0,0,6.59-.857,3.557,3.557,0,0,1-3.017,2.569A27.814,27.814,0,0,1,328.5,390.285Z" transform="translate(-277.044 -353.05)" fill="#1d1d1b" opacity="0.1"/>
        <path id="Trazado_169609" data-name="Trazado 169609" d="M334.486,381.939l-6.731,2.3a7.231,7.231,0,0,1-9.167-4.471l-.235-.669a4.692,4.692,0,0,1,2.9-5.975l8.411-2.9,3.756.148,3.265,9.223Z" transform="translate(-276.021 -361.6)" fill="#513c3e"/>
        <path id="Trazado_169610" data-name="Trazado 169610" d="M336.079,379.533l-9.4,3.285a5.8,5.8,0,0,1-7.348-3.582l-.235-.669a3.254,3.254,0,0,1,2.019-4.147l11.7-4.11a8.787,8.787,0,0,1,2.381,3.177,12.939,12.939,0,0,1,.671,1.793A7.561,7.561,0,0,1,336.079,379.533Z" transform="translate(-275.411 -361.538)" fill="#362829"/>
        <path id="Trazado_169611" data-name="Trazado 169611" d="M326.47,378.45l-16.883,3.559a7.412,7.412,0,0,1-.963-4.324l16.828-3.488a.508.508,0,0,1,.6.375l.81,3.257A.508.508,0,0,1,326.47,378.45Z" transform="translate(-283.016 -358.678)" fill="#0ca4ca"/>
        <path id="Trazado_169612" data-name="Trazado 169612" d="M319.387,377.4a.34.34,0,0,1-.25.408h0a.34.34,0,0,1-.408-.25l-.64-2.643a.338.338,0,0,1,.25-.408h0a.34.34,0,0,1,.408.249Z" transform="translate(-276.03 -358.446)" fill="#362829"/>
        <path id="Trazado_169613" data-name="Trazado 169613" d="M332.691,373.931l-8.194,2.855a.953.953,0,0,1-1.22-.587,1.06,1.06,0,0,1-.052-.311.961.961,0,0,1,.641-.905l8.154-2.845A12.933,12.933,0,0,1,332.691,373.931Z" transform="translate(-272.234 -360.19)" fill="#0ca4ca"/>
        <path id="Trazado_169614" data-name="Trazado 169614" d="M314.008,379.932c.527,2.363,3.128,4.647,4.673,4.3s1.23-2.358.728-4.725c-.332-1.566-.716-3.74-2.52-3.856C315.309,375.552,313.236,376.468,314.008,379.932Z" transform="translate(-279.157 -357.602)" fill="#ffd2a1"/>
      </g>
      <g id="Grupo_131978" data-name="Grupo 131978" transform="translate(205.834 330.233)">
        <path id="Trazado_169615" data-name="Trazado 169615" d="M322.477,430.349c0,3.231-24.389,5.848-54.474,5.848s-54.474-2.617-54.474-5.848S237.917,424.5,268,424.5,322.477,427.12,322.477,430.349Z" transform="translate(-200.156 -243.555)" fill="#1d1d1b" opacity="0.2"/>
        <path id="Trazado_169616" data-name="Trazado 169616" d="M248.681,345.758c-2.544,5.478-5.146,10.881-7.57,15.542-1.163,2.23-2.28,4.291-3.33,6.107a55.278,55.278,0,0,1-3.549,5.5l-1.2-1.067-5.987-5.333c.521-1.608,1.057-3.159,1.614-4.68a151.864,151.864,0,0,1,8.858-19.506Z" transform="translate(-190.183 -304.19)" fill="#fad8ac"/>
        <path id="Trazado_169617" data-name="Trazado 169617" d="M250.253,345.758c2.544,5.478,5.146,10.881,7.57,15.542,1.163,2.23,2.28,4.291,3.33,6.107a54.972,54.972,0,0,0,3.549,5.5l1.2-1.067,5.985-5.333c-.521-1.608-1.055-3.159-1.614-4.68a151.594,151.594,0,0,0-8.856-19.506Z" transform="translate(-173.059 -304.19)" fill="#fad8ac"/>
        <g id="Grupo_131973" data-name="Grupo 131973" transform="translate(39.983 85.759)">
          <g id="Grupo_131972" data-name="Grupo 131972" transform="translate(0 94.122)">
            <path id="Trazado_169618" data-name="Trazado 169618" d="M249.186,424.731c.45.142,1.1.417,1.048,5.594H228.841C228.841,423.3,244.054,423.1,249.186,424.731Z" transform="translate(-228.84 -423.888)" fill="#12263f"/>
            <path id="Trazado_169619" data-name="Trazado 169619" d="M249.646,424.731c-.45.142-1.1.417-1.048,5.594h21.393C269.991,423.3,254.778,423.1,249.646,424.731Z" transform="translate(-214.265 -423.888)" fill="#12263f"/>
            <rect id="Rectángulo_40240" data-name="Rectángulo 40240" width="21.393" height="2.143" transform="translate(0 5.842)" fill="#12263f"/>
            <rect id="Rectángulo_40241" data-name="Rectángulo 40241" width="21.393" height="2.143" transform="translate(34.333 5.842)" fill="#12263f"/>
          </g>
          <path id="Trazado_169620" data-name="Trazado 169620" d="M253.294,370.6l-.073,0-.819.05-14.945-.914-4,52.25v42.3c5.768-.024,7.323,4.4,13.366,4.4,1.425-7.071,1.752-15.649,2.007-23.134.238-7.052-.115-17.568-1.176-23.376,2.407-7.528,4.59-22.781,4.889-31.365.231.01.5.009.747,0s.516.007.747,0c.3,8.583,2.482,23.836,4.889,31.365-1.062,5.808-1.415,16.323-1.176,23.376.255,7.485.58,16.063,2.007,23.134,6.042,0,7.6-4.423,13.366-4.4v-42.3l-4-52.25-14.945.914-.819-.05Z" transform="translate(-225.431 -369.728)" fill="#12263f"/>
        </g>
        <path id="Trazado_169621" data-name="Trazado 169621" d="M252.092,380.574a19.433,19.433,0,0,1-7.205-2.077c8.938,6.718,1.976,34.87-2.892,34.984,6.644,14.763,4.43,35.429-4.428,49.452a8.819,8.819,0,0,1-2.476,2.431h10.531v-1.548c.005-.6,0-1.131-.01-1.609h.014c1.425-7.071,1.752-15.649,2.007-23.134.238-7.052-.115-17.568-1.176-23.376,2.407-7.528,4.59-22.781,4.889-31.365.231.01.5.009.747,0s.516.007.747,0c.3,8.583,2.482,23.836,4.889,31.365-1.062,5.808-1.415,16.324-1.177,23.376.255,7.485.58,16.063,2.007,23.134h.014c-.012.478-.016,1.006-.01,1.609v1.548h10.531a8.818,8.818,0,0,1-2.476-2.431c-8.858-14.023-11.072-34.689-4.428-49.452-4.868-.115-11.829-28.266-2.892-34.984A19.433,19.433,0,0,1,252.092,380.574Z" transform="translate(-184.246 -277.499)" fill="#1d1d1b" opacity="0.3"/>
        <path id="Trazado_169622" data-name="Trazado 169622" d="M251.241,370.628l-14.733-.9-1.759,21.341c.507-2.668.991-5.382,1.594-8.1C238.362,373.014,245.018,371.977,251.241,370.628Z" transform="translate(-184.499 -283.969)" fill="#1d1d1b" opacity="0.3"/>
        <path id="Trazado_169623" data-name="Trazado 169623" d="M245.509,370.628l14.733-.9L262,391.069c-.509-2.668-.991-5.382-1.6-8.1C258.388,373.014,251.732,371.977,245.509,370.628Z" transform="translate(-176.559 -283.969)" fill="#1d1d1b" opacity="0.3"/>
        <path id="Trazado_169624" data-name="Trazado 169624" d="M251.647,373.515q-3.423-.005-6.854-.238-4.533-.292-9.084-1h-.014l.045-2.143.037-2.047q4.147.519,8.249.778,3.829.243,7.62.25,3.79-.008,7.62-.25,4.1-.263,8.248-.778l.038,2.047.043,2.143h-.012q-4.551.707-9.084,1Q255.068,373.509,251.647,373.515Z" transform="translate(-183.801 -285.179)"/>
        <path id="Trazado_169625" data-name="Trazado 169625" d="M242.645,362.639c-7.325,4.73-14.153,4.951-24.933,6.289l-2.068-3.279c.98-.509,1.929-1.024,2.859-1.533,6.388-3.519,11.565-6.823,16.954-7.878l5.987,5.333Z" transform="translate(-198.595 -293.922)" fill="#fad8ac"/>
        <path id="Trazado_169626" data-name="Trazado 169626" d="M258.567,362.639c7.325,4.73,14.153,4.951,24.933,6.289l2.066-3.279c-.98-.509-1.927-1.024-2.857-1.533-6.39-3.519-11.565-6.823-16.956-7.878l-5.985,5.333Z" transform="translate(-166.925 -293.922)" fill="#fad8ac"/>
        <g id="Grupo_131974" data-name="Grupo 131974" transform="translate(0 66.237)">
          <path id="Trazado_169627" data-name="Trazado 169627" d="M215.032,361.474l-.938.007-1.4.242-2.48,1.992a.9.9,0,0,1-1.107.057l-.8.646a.9.9,0,0,1-1.385-.247l-.01-.017a1.13,1.13,0,0,1-.144-.4,1.028,1.028,0,0,1-.812-.653l-.01-.023a1.375,1.375,0,0,1,.53-1.672l3.865-2.263.037-.016a1.072,1.072,0,0,1,.109-.05q.05-.021.1-.036c.033-.009.066-.014.1-.021a.9.9,0,0,1,.12-.014l.036-.005,4.253-.047a1.1,1.1,0,0,1,1.037,1.225v.024A1.233,1.233,0,0,1,215.032,361.474Z" transform="translate(-205.828 -358.156)" fill="#f2c799"/>
          <path id="Trazado_169628" data-name="Trazado 169628" d="M224.951,367.261l-2.7-.064a4.677,4.677,0,0,1-1.879-.445l-1.55-.726a1.673,1.673,0,0,0-.6-.156l-3.854-.238a1.126,1.126,0,0,1-.97-1.3l0-.024a1.217,1.217,0,0,1,1.19-1.175l2.593.148-2.259-1.482-3.861-.789-3.87,1.316a1.017,1.017,0,0,1-1.314-.824l-.005-.024a1.335,1.335,0,0,1,.794-1.543s4.633-1.442,4.645-1.439,3.222-.012,4.223.087c.189.017.441.094.7.151a21.389,21.389,0,0,1,6.355,2.449l3.284,1.329Z" transform="translate(-205.834 -358.495)" fill="#fad8ac"/>
        </g>
        <g id="Grupo_131975" data-name="Grupo 131975" transform="translate(115.654 66.237)">
          <path id="Trazado_169629" data-name="Trazado 169629" d="M279.082,361.474l.94.007,1.4.242,2.48,1.992a.9.9,0,0,0,1.107.057l.8.646a.9.9,0,0,0,1.385-.247l.01-.017a1.166,1.166,0,0,0,.144-.4,1.028,1.028,0,0,0,.812-.653l.009-.023a1.37,1.37,0,0,0-.53-1.672l-3.863-2.263-.037-.016c-.035-.019-.073-.035-.109-.05a.993.993,0,0,0-.1-.036c-.031-.009-.066-.014-.1-.021a.937.937,0,0,0-.12-.014l-.037-.005-4.252-.047a1.1,1.1,0,0,0-1.037,1.225v.024A1.233,1.233,0,0,0,279.082,361.474Z" transform="translate(-268.25 -358.156)" fill="#f2c799"/>
          <path id="Trazado_169630" data-name="Trazado 169630" d="M273.305,367.261l2.7-.064a4.677,4.677,0,0,0,1.879-.445l1.55-.726a1.665,1.665,0,0,1,.6-.156l3.855-.238a1.126,1.126,0,0,0,.97-1.3l0-.024a1.217,1.217,0,0,0-1.19-1.175l-2.593.148,2.259-1.482,3.862-.789,3.87,1.316a1.017,1.017,0,0,0,1.314-.824l.005-.024a1.335,1.335,0,0,0-.794-1.543s-4.633-1.442-4.645-1.439-3.224-.012-4.225.087c-.188.017-.44.094-.7.151a21.4,21.4,0,0,0-6.354,2.449l-3.284,1.329Z" transform="translate(-272.384 -358.495)" fill="#fad8ac"/>
        </g>
        <path id="Trazado_169631" data-name="Trazado 169631" d="M257.562,392.542q-.86,0-1.722-.033a1.1,1.1,0,0,1-.151-.007c-.075,0-.151,0-.226-.005-.214-.007-.421-.019-.634-.031a50.634,50.634,0,0,1-13.136-2.633l-2.2-21.918L238.2,370.68l-.886-.54-4.591-2.808-4.531-2.77-.514-.315c2.292-5.641,6.037-13.851,8.015-18.136a7.227,7.227,0,0,1,4.3-3.832l11.169-3.662h12.8l11.169,3.662a7.219,7.219,0,0,1,4.3,3.832c1.979,4.286,5.723,12.5,8.017,18.136l-.516.315-4.529,2.77-4.591,2.808-.886.54-1.293-2.765-2.2,21.918a50.622,50.622,0,0,1-13.135,2.633c-.214.012-.421.024-.634.031-.076.005-.151.005-.226.005a1.1,1.1,0,0,1-.151.007Q258.421,392.543,257.562,392.542Z" transform="translate(-189.716 -306.924)" fill="#255065"/>
        <path id="Trazado_169632" data-name="Trazado 169632" d="M254.1,341.784c-1.23,6.508-11.527,6.878-13-.007l.094-4.339.07-3.029h12.658l.087,3.606Z" transform="translate(-179.816 -310.029)" fill="#fad8ac"/>
        <path id="Trazado_169633" data-name="Trazado 169633" d="M263.9,386.411c-.017,0-.036.007-.056.007-4.178.615-9.1.156-14.184-.629l.037-2.047-2.2-21.918-1.293,2.765-.886-.54a55.275,55.275,0,0,1-3.549,5.5c-7.325,4.73-14.153,4.951-24.933,6.289,6.891-1.364,18.694-2.753,23.556-7.193.063-.057.12-.108.176-.163,2.784-2.683,1.9-5.3.158-7.243-.026-.024-.045-.05-.069-.075,7.7.627,6.84-10.794,7.275-14.292.169,1.891.269,6.088.716,11.068.848,9.53,2.972,21.925,9.3,26.579a9.284,9.284,0,0,0,4.887,1.854c.207.017.421.031.634.031.075.005.151.005.226.005Z" transform="translate(-197.717 -300.832)" fill="#1d1d1b" opacity="0.1"/>
        <path id="Trazado_169634" data-name="Trazado 169634" d="M245.832,386.411c.019,0,.038.007.057.007,4.178.615,9.1.156,14.184-.629l-.038-2.047,2.2-21.918,1.293,2.765.886-.54a54.983,54.983,0,0,0,3.549,5.5c7.325,4.73,14.153,4.951,24.933,6.289-6.891-1.364-18.694-2.753-23.556-7.193-.063-.057-.12-.108-.176-.163-2.784-2.683-1.9-5.3-.158-7.243.026-.024.043-.05.07-.075-7.7.627-6.84-10.794-7.275-14.292-.169,1.891-.269,6.088-.716,11.068-.848,9.53-2.972,21.925-9.3,26.579a9.29,9.29,0,0,1-4.887,1.854c-.207.017-.421.031-.634.031-.076.005-.151.005-.226.005Z" transform="translate(-176.321 -300.832)" fill="#1d1d1b" opacity="0.1"/>
        <path id="Trazado_169635" data-name="Trazado 169635" d="M253.965,338.015c-2.525,6.83-10.132,6.91-12.815-.577l.07-3.029h2.3a14.753,14.753,0,0,0,3.62.749,7.531,7.531,0,0,0,2.487-.158c.867-.226,1.665-.37,2.407-.591h1.84Z" transform="translate(-179.776 -310.029)" fill="#1d1d1b" opacity="0.1"/>
        <g id="Grupo_131976" data-name="Grupo 131976" transform="translate(56.121)">
          <path id="Trazado_169636" data-name="Trazado 169636" d="M249.685,321.057c5.789-.024,10.406,3.785,9.975,10.646a17.707,17.707,0,0,1-.3,2.358c1.288-.73,2.417.544,1.964,2.5-.318,1.375-.989,3.222-1.752,3.5-.914.334-1.19-.236-1.244-.254-.408,1.983-.573,3.754-1.279,4.805a33.544,33.544,0,0,1-2.082,2.887c-1.361,1.6-2.49,2-5.09,2.011h-.014l-.016,0c-2.6.016-3.735-.367-5.116-1.946a33.88,33.88,0,0,1-2.117-2.861c-.721-1.043-.909-2.81-1.342-4.788-.052.017-.323.591-1.241.269-.766-.268-1.46-2.106-1.8-3.479-.478-1.945.634-3.232,1.932-2.52a17.72,17.72,0,0,1-.325-2.353C239.33,324.974,243.9,321.107,249.685,321.057Z" transform="translate(-238.127 -319.881)" fill="#fad8ac"/>
          <path id="Trazado_169637" data-name="Trazado 169637" d="M257.614,323.546c2.224,2.591,2.925,5.476,2.056,10.806-.871.49-1.329,1.14-1.661,3.788-.633.177-.905.219-1.481.415,3.458-14.127-2.014-14.374-3.517-14.666a37.606,37.606,0,0,0-7.44.047c-1.5.311-6.967.629-3.33,14.709-.577-.189-.852-.226-1.484-.4-.367-2.645-.834-3.288-1.712-3.766-.935-5.32.01-8,1.919-10.832C243.613,319.721,253.64,318.917,257.614,323.546Z" transform="translate(-237.718 -320.38)" fill="#3c3c3b"/>
          <path id="Trazado_169638" data-name="Trazado 169638" d="M254.374,321.554H241.469c-.86,1.163-1.672,2.678-1.369,3.172,1.931,3.154,7.907,4.054,12.125,4.173a3.91,3.91,0,0,1-1.415-1.741,11.211,11.211,0,0,0,7.306.586c-.754-2.063-1.559-4.206-3.163-5.707A7.267,7.267,0,0,0,254.374,321.554Z" transform="translate(-236.719 -319.514)" fill="#3c3c3b"/>
        </g>
        <path id="Trazado_169639" data-name="Trazado 169639" d="M257.439,328.313l-8.78-.858-.024,0-.023,0-8.78.858a.192.192,0,0,0-.174.214l.292,6.11a.227.227,0,0,0,.09.158l1.78,1.406a.262.262,0,0,0,.162.057h13.307a.265.265,0,0,0,.162-.057l1.78-1.406a.228.228,0,0,0,.09-.158l.292-6.11A.194.194,0,0,0,257.439,328.313Z" transform="translate(-180.876 -315.161)" fill="#1d1d1b" opacity="0.1"/>
        <g id="Grupo_131977" data-name="Grupo 131977" transform="translate(58.077 10.578)">
          <path id="Trazado_169640" data-name="Trazado 169640" d="M248.935,334.327h0a.565.565,0,0,0-.574.28l-.071.082a1.893,1.893,0,0,1-1.415.582h-5.116a.308.308,0,0,1-.174-.056l-1.92-1.408a.225.225,0,0,1-.1-.158l-.315-6.11a.2.2,0,0,1,.188-.212l9.47-.859.024,0,.026,0,9.468.859a.2.2,0,0,1,.189.212l-.316,6.11a.214.214,0,0,1-.1.158l-1.919,1.408a.313.313,0,0,1-.174.056H251a1.9,1.9,0,0,1-1.416-.582l-.07-.082a.565.565,0,0,0-.573-.28Z" transform="translate(-239.253 -326.467)" fill="#ffad3b"/>
          <path id="Trazado_169641" data-name="Trazado 169641" d="M248.935,334.327h0a.565.565,0,0,1,.573.28l.07.082a1.9,1.9,0,0,0,1.416.582h5.116a.313.313,0,0,0,.174-.056l1.919-1.408a.214.214,0,0,0,.1-.158l.316-6.11a.2.2,0,0,0-.189-.212l-9.468-.859-.026,0-.024,0-9.47.859a.2.2,0,0,0-.188.212l.315,6.11a.225.225,0,0,0,.1.158l1.92,1.408a.308.308,0,0,0,.174.056h5.116a1.893,1.893,0,0,0,1.415-.582l.071-.082a.565.565,0,0,1,.574-.28Z" transform="translate(-239.253 -326.467)" fill="#ffad3b"/>
          <path id="Trazado_169642" data-name="Trazado 169642" d="M248.761,333.887h0a.952.952,0,0,0-.912.476,1.546,1.546,0,0,1-1.163.483h-5.109l-1.84-1.361-.249-5.954,9.273-.832h0l9.273.832-.249,5.954-1.84,1.361h-5.109a1.545,1.545,0,0,1-1.163-.483.953.953,0,0,0-.912-.476Z" transform="translate(-239.079 -326.296)" fill="#513c3e"/>
          <path id="Trazado_169643" data-name="Trazado 169643" d="M240.571,328.1l-1.083-.923.249,5.952.907-.226Z" transform="translate(-239.079 -325.942)" fill="#1d1d1b" opacity="0.3"/>
          <path id="Trazado_169644" data-name="Trazado 169644" d="M249.569,328.1l1.083-.923-.249,5.952-.907-.226Z" transform="translate(-231.695 -325.942)" fill="#1d1d1b" opacity="0.3"/>
          <path id="Trazado_169645" data-name="Trazado 169645" d="M241.71,331.363l-.239.7-1.839-1.361.907-.226Z" transform="translate(-238.973 -323.511)" fill="#1d1d1b" opacity="0.5"/>
          <path id="Trazado_169646" data-name="Trazado 169646" d="M248.822,331.363l.239.7L250.9,330.7l-.907-.226Z" transform="translate(-232.192 -323.511)" fill="#1d1d1b" opacity="0.5"/>
          <path id="Trazado_169647" data-name="Trazado 169647" d="M247.874,331.33h0a.953.953,0,0,0-.912.476,1.545,1.545,0,0,1-1.163.483H240.69l.238-.7a17.619,17.619,0,0,1,6.939-1.429h.016a17.619,17.619,0,0,1,6.939,1.429l.238.7h-5.109a1.545,1.545,0,0,1-1.163-.483.953.953,0,0,0-.912-.476Z" transform="translate(-238.192 -323.739)" fill="#1d1d1b" opacity="0.8"/>
          <path id="Trazado_169648" data-name="Trazado 169648" d="M248.3,332.7a1.764,1.764,0,0,0-1.621.782l-.017.021a.626.626,0,0,1-.48.2h-4.828l-1.171-.888-.073-4.8,8.19-.718,8.192.718-.075,4.8-1.17.888h-4.828a.63.63,0,0,1-.481-.2l-.016-.021A1.765,1.765,0,0,0,248.3,332.7Z" transform="translate(-238.62 -325.855)" fill="#362829"/>
          <path id="Trazado_169649" data-name="Trazado 169649" d="M247.225,331.981c-.026,0,2.574-.287,2.574-.287l.626-.53.325-1.983-.007,2.139-.858.66Z" transform="translate(-233.371 -324.464)" fill="#00a19a"/>
          <path id="Trazado_169650" data-name="Trazado 169650" d="M240.421,332.491l-.009-4.242,7.668-.664-7.067,1.157Z" transform="translate(-238.397 -325.643)" fill="#00a19a"/>
        </g>
      </g>
      <g id="Grupo_131985" data-name="Grupo 131985" transform="translate(480.865 345.112)">
        <path id="Trazado_169651" data-name="Trazado 169651" d="M461.31,430.445c0,2.881-21.763,5.217-48.607,5.217s-48.609-2.336-48.609-5.217,21.763-5.219,48.609-5.219S461.31,427.562,461.31,430.445Z" transform="translate(-364.094 -257.9)" fill="#1d1d1b" opacity="0.2"/>
        <g id="Grupo_131979" data-name="Grupo 131979" transform="translate(13.75 71.279)">
          <path id="Trazado_169652" data-name="Trazado 169652" d="M417.446,435.019c-.407,1.138-1.917,1.316-3.135,1.279h-.043c-1.482-.035-3.187-.184-4.061-1.385a4.544,4.544,0,0,1-.688-2c-.061-.335-.115-.671-.158-1.015-.151-1.015-.257-2.049-.327-3.064a3.511,3.511,0,0,0-.238-1.279c-.169-.372-.459-.671-.653-1.025a2.489,2.489,0,0,1-.238-.626,2.586,2.586,0,0,1-.08-.389c-.017-.115-.026-.229-.035-.344a2.024,2.024,0,0,1-.009-.229c-.019-.238-.009-.467-.009-.706,0-.266.009-.539.017-.8a10.551,10.551,0,0,1,.167-1.686,4.88,4.88,0,0,1,.716-1.844,2.812,2.812,0,0,1,.556-.619,3.121,3.121,0,0,1,1.562-.725.977.977,0,0,0,.167-.017,2.028,2.028,0,0,1,1.562.478,6.327,6.327,0,0,0,1,2.374v.017l.009.009c.24.407.5.822.725,1.227.141.257.282.521.4.785.106.212.195.424.283.645a20.953,20.953,0,0,1,.963,3.027c.123.469.229.928.344,1.4a.7.7,0,0,0,.035.158c.37,1.573.733,3.144,1.1,4.715A2.945,2.945,0,0,1,417.446,435.019Z" transform="translate(-345.619 -334.122)" fill="#fad8ac"/>
          <path id="Trazado_169653" data-name="Trazado 169653" d="M417.446,433.793c-.407,1.138-1.917,1.316-3.135,1.279h-.043c-1.482-.035-3.187-.184-4.061-1.385a4.544,4.544,0,0,1-.688-2c-.061-.335-.115-.671-.158-1.015-.054-.318-.1-.645-.132-.971l-.212,2.162-1.051-.106-.035-6.955a.653.653,0,0,1-.026-.123,2.59,2.59,0,0,1-.08-.389c-.017-.115-.026-.229-.035-.344a2.023,2.023,0,0,1-.009-.229c-.019-.238-.009-.467-.009-.706a2.227,2.227,0,0,1,.009-.24c0-.184.009-.379.009-.565a10.551,10.551,0,0,1,.167-1.686,1.779,1.779,0,0,1,.4.441c1.067,1.668,1.324,6.312,3.062,8.439a2.676,2.676,0,0,0,2.525,1.051c3.3-.4.679-7.8-.415-10.259.24.407.5.822.725,1.227.141.257.282.521.4.785.106.212.195.424.283.645a20.953,20.953,0,0,1,.963,3.027c.123.469.229.928.344,1.4a.7.7,0,0,0,.035.158c.37,1.573.733,3.144,1.1,4.715A2.945,2.945,0,0,1,417.446,433.793Z" transform="translate(-345.619 -332.896)" fill="#0ca4ca"/>
          <path id="Trazado_169654" data-name="Trazado 169654" d="M381.731,425.44a.14.14,0,0,0-.009.063,2.906,2.906,0,0,1-.318,1.024c-.2.355-.493.653-.662,1.025a3.692,3.692,0,0,0-.229,1.279c-.1,1.359-.255,2.729-.485,4.079a4.449,4.449,0,0,1-.7,2c-.874,1.2-2.57,1.35-4.061,1.385h-.089a5.062,5.062,0,0,1-2.136-.318,2.2,2.2,0,0,1-.344-.193,1.5,1.5,0,0,1-.6-.768,3.023,3.023,0,0,1,.063-1.651c.361-1.519.714-3.036,1.078-4.555.009-.044.017-.08.026-.123a1.046,1.046,0,0,0,.035-.16,22.5,22.5,0,0,1,1.986-5.888c.169-.3.344-.6.53-.892a.032.032,0,0,1,.009-.026c.043-.061.08-.123.123-.186v-.009l.08-.132a6.663,6.663,0,0,0,1-2.383,2.018,2.018,0,0,1,1.562-.478.97.97,0,0,0,.158.017,3.219,3.219,0,0,1,1.536.7,2.892,2.892,0,0,1,.593.645,4.934,4.934,0,0,1,.68,1.747.425.425,0,0,1,.026.1,13.953,13.953,0,0,1,.186,2.49A9.067,9.067,0,0,1,381.731,425.44Z" transform="translate(-372.006 -334.122)" fill="#fad8ac"/>
          <path id="Trazado_169655" data-name="Trazado 169655" d="M381.727,423.8c0,.132-.009.255-.017.414a.139.139,0,0,0-.009.063c-.026.177-.061.389-.115.671l-.026,6.805-1.06.106-.167-1.72c-.106.494-.212,1-.292,1.519a4.727,4.727,0,0,1-.671,2.013c-.866,1.21-2.569,1.368-4.051,1.422a1.322,1.322,0,0,0-.186.009,4.934,4.934,0,0,1-2.11-.346,2.2,2.2,0,0,1-.344-.193,1.563,1.563,0,0,1-.547-.725,3,3,0,0,1,.052-1.651c.344-1.526.69-3.071,1.034-4.6.009-.043.017-.08.026-.123a1.044,1.044,0,0,0,.035-.16,22.463,22.463,0,0,1,1.926-5.87c.229-.422.494-.838.732-1.253-.043.1-.089.2-.132.318a.032.032,0,0,0-.009.026c-1.147,2.728-3.354,9.463-.195,9.932a2.5,2.5,0,0,0,2.454-1.051,12.591,12.591,0,0,0,1.783-4.352l-.009-.089h.037a17.69,17.69,0,0,1,1.42-4.237c.071-.1.134-.177.2-.255,0,.017.009.026.009.043a12.092,12.092,0,0,1,.2,2.207v.229C381.71,423.317,381.727,423.557,381.727,423.8Z" transform="translate(-371.985 -332.899)" fill="#0ca4ca"/>
          <path id="Trazado_169656" data-name="Trazado 169656" d="M416.214,384.471l-.839.944-5.773,6.524c-.017.009-1.394.009-3.425.009h-5.922c-.415-.009-.831-.009-1.244-.009h-5.924c-1.872-.009-3.116-.009-3.1,0l-6.1-6.472-.626-.66c0-.01.009-.028.009-.036a38.966,38.966,0,0,1,6.541-14.556l.846-.009s0,.009.01,0l18.2-.238.768-.009A29.945,29.945,0,0,1,416.214,384.471Z" transform="translate(-363.702 -369.958)" fill="#255065"/>
          <path id="Trazado_169657" data-name="Trazado 169657" d="M411.065,422.2a5.653,5.653,0,0,1-1.793-1.342c-.1-.1-.2-.221-.3-.335-2.1-2.3-13.039-22.554-15.413-28.688-.169-.433-.292-.794-.37-1.077s-.151-.547-.212-.812a.937.937,0,0,1-.037-.141c-.089-.327-.158-.636-.221-.945-.106-.513-.193-.547-.264-.573s-.106-.009-.123-.424l.309-.865.29-.6,6.673-13.805.593-1.227v-.01l.608-1.253a3.441,3.441,0,0,1,.61.389c0,.009.009,0,.009,0,2.216,1.72,5.269,7.069,8.095,13.868a117.358,117.358,0,0,1,4.836,14.158c.009.009.017.017.009.026,1.783,6.515,2.914,13.065,2.755,18.326a2.545,2.545,0,0,1,0,.257C417.535,422.011,414.03,423.643,411.065,422.2Z" transform="translate(-357.008 -369.849)" fill="#255065"/>
          <path id="Trazado_169658" data-name="Trazado 169658" d="M417.777,437.459c.028.37-1.032,1.13-2.311,1.359a3.15,3.15,0,0,1-2.869-.759,2.655,2.655,0,0,1-.4-.441c-4.334-13.55-9.445-21.115-10.107-31.557a35.9,35.9,0,0,1,.035-5.05c.028-.537.08-1.085.143-1.641l1.766-.539h.009l.846-.257,5.085-1.554.026-.009c5.615,6.842,5.827,21.214,7.115,34.586.186,1.924.389,3.822.645,5.667-.009-.071-.026-.309.009.026C417.768,437.336,417.777,437.388,417.777,437.459Z" transform="translate(-349.862 -349.997)" fill="#255065"/>
          <path id="Trazado_169659" data-name="Trazado 169659" d="M403.559,387.866c-.019.415-.063.407-.123.424s-.151.061-.257.573c-.069.309-.141.619-.212.945-.017.043-.026.087-.043.141-.063.264-.132.539-.212.812s-.2.636-.37,1.069c-2.367,6.126-13.312,26.394-15.422,28.7a3.421,3.421,0,0,1-.292.327,5.71,5.71,0,0,1-1.783,1.342c-2.966,1.448-6.479-.176-6.065-5.066v-.257c.037-5.754,1.74-13.805,4.124-21.617,1.112-3.655,2.383-7.266,3.689-10.557,0-.01.009-.028.009-.037,2.755-6.911,5.693-12.438,7.883-14.167a3.151,3.151,0,0,1,.6-.389l1.2,2.49,6.673,13.805.292.6Z" transform="translate(-367.033 -369.849)" fill="#255065"/>
          <path id="Trazado_169660" data-name="Trazado 169660" d="M389.964,406.06c-.671,10.417-4.722,18.352-10.08,31.46a.415.415,0,0,1-.036.1,1.17,1.17,0,0,1-.212.212,3.078,3.078,0,0,1-3.01.759,6.728,6.728,0,0,1-2.357-1.13.087.087,0,0,1,.009-.045v-.009c.009-.043.009-.089.017-.132.248-1.844.459-3.752.636-5.676,1.3-13.373,1.51-27.745,7.123-34.586l.026.009,5.094,1.554.848.257,1.766.539c.061.556.115,1.093.141,1.632A36.039,36.039,0,0,1,389.964,406.06Z" transform="translate(-370.336 -349.997)" fill="#255065"/>
        </g>
        <path id="Trazado_169661" data-name="Trazado 169661" d="M398.045,366.255l-.181-.037c-7.113,1.415-13.811.62-12.212-4.814,3.855-13.1-2.221-21.283,3.311-28.581,2.139-2.822,5.723-3.858,8.9-3.882l.181,0,.182,0c3.179.024,6.762,1.06,8.9,3.882,5.532,7.3-.544,15.477,3.311,28.581,1.6,5.434-5.1,6.228-12.212,4.814Z" transform="translate(-348.363 -328.942)" fill="#ffad3b"/>
        <g id="Grupo_131982" data-name="Grupo 131982" transform="translate(6.253 23.77)">
          <path id="Trazado_169662" data-name="Trazado 169662" d="M390.162,365.476A126.009,126.009,0,0,1,376.3,384.587c-.3.335-.608.671-.909,1l-2.815-1.554,11.5-21.716a6.3,6.3,0,0,1,4.979,1.96A13.158,13.158,0,0,1,390.162,365.476Z" transform="translate(-364.086 -328.1)" fill="#fad8ac"/>
          <path id="Trazado_169663" data-name="Trazado 169663" d="M402.668,365.476a126.017,126.017,0,0,0,13.859,19.111c.3.335.608.671.909,1l2.815-1.554-11.5-21.716a6.3,6.3,0,0,0-4.979,1.96A12.914,12.914,0,0,0,402.668,365.476Z" transform="translate(-341.885 -328.1)" fill="#fad8ac"/>
          <path id="Trazado_169664" data-name="Trazado 169664" d="M396.916,375.222c-3.912-.149-8.223-1.587-9.822-4.108-.073-.891-.012-1.59-.149-2.374h19.944c-.136.784.142,1.573,0,2.374C405.29,373.635,400.829,375.073,396.916,375.222Z" transform="translate(-353.487 -323.348)" fill="#362829"/>
          <path id="Trazado_169665" data-name="Trazado 169665" d="M398.319,345.974c-.278,0-5.034-.016-5.323,0a63.31,63.31,0,0,1-7.954,3.451c1.348,5.519,1.017,10.948,1.218,16.045a138.436,138.436,0,0,0,2.087,20.072c1.691,2.523,5.836,3.959,9.972,4.11,4.138-.151,8.283-1.587,9.972-4.11a138.429,138.429,0,0,0,2.089-20.072c.2-5.1-.132-10.526,1.217-16.045a63.162,63.162,0,0,1-7.952-3.451C403.355,345.958,398.6,345.974,398.319,345.974Z" transform="translate(-354.891 -340.15)" fill="#0ca4ca"/>
          <path id="Trazado_169666" data-name="Trazado 169666" d="M397.8,362.973a6.943,6.943,0,0,1-6.878,7.005c-3.8,0-6.393-1.8-6.63-6.321-.247-4.68,4.878-7.69,5.862-11.817C391.038,348.146,397.8,359.1,397.8,362.973Z" transform="translate(-355.448 -336.37)" fill="#0ca4ca"/>
          <path id="Trazado_169667" data-name="Trazado 169667" d="M393.3,362.973a6.943,6.943,0,0,0,6.876,7.005c3.8,0,6.394-1.8,6.632-6.321.245-4.68-4.878-7.69-5.862-11.817C400.065,348.146,393.3,359.1,393.3,362.973Z" transform="translate(-348.797 -336.37)" fill="#0ca4ca"/>
          <path id="Trazado_169668" data-name="Trazado 169668" d="M400.266,342.62v6.524c-.212,5.8-2.833,9.956-5.323,9.867-2.489.089-5.12-4.068-5.323-9.867V342.62Z" transform="translate(-351.513 -342.62)" fill="#fad8ac"/>
          <path id="Trazado_169669" data-name="Trazado 169669" d="M391.264,359.1l-2.595,7.441-3.391,9.754c-.407-.337-.8-.653-1.21-.945a10.609,10.609,0,0,0-4.873-2.216s4.475-15.06,5.42-18.678c.573-2.224,1.986-6.55,7.441-6.825C392.544,351.35,391.264,359.1,391.264,359.1Z" transform="translate(-359.203 -338.921)" fill="#0ca4ca"/>
          <path id="Trazado_169670" data-name="Trazado 169670" d="M399.608,359.1l2.595,7.441,3.391,9.754c.407-.337.8-.653,1.21-.945a10.6,10.6,0,0,1,4.873-2.216s-4.477-15.06-5.42-18.678c-.573-2.224-1.986-6.55-7.441-6.825C398.327,351.35,399.608,359.1,399.608,359.1Z" transform="translate(-344.81 -338.921)" fill="#0ca4ca"/>
          <g id="Grupo_131980" data-name="Grupo 131980" transform="translate(0 55.338)">
            <path id="Trazado_169671" data-name="Trazado 169671" d="M368.966,385.457a1.067,1.067,0,0,0,.235-.269l2.73-4.616,1.239-.589.005,0,1.606-.761a11.109,11.109,0,0,0,3.59-1.955l.024-.021a4.422,4.422,0,0,0,.626-.786l-.005-.005.014-.01-2.012-1.978a3.34,3.34,0,0,1-.831.591l-4.468,2.252a2.172,2.172,0,0,0-.9.846l-1.644,2.819a1.021,1.021,0,0,0-.1.207l-1.361,3.98a.361.361,0,0,0,.165.447.883.883,0,0,0,.222.063l0,0,.007,0a.922.922,0,0,0,.285.017l.047-.005a.994.994,0,0,0,.245-.063.86.86,0,0,0,.118-.063A1.046,1.046,0,0,0,368.966,385.457Z" transform="translate(-367.692 -374.463)" fill="#fad8ac"/>
            <path id="Trazado_169672" data-name="Trazado 169672" d="M421.213,385.457a1.109,1.109,0,0,1-.236-.269l-2.728-4.616-1.239-.589-.005,0-1.606-.761a11.109,11.109,0,0,1-3.59-1.955l-.026-.021a4.5,4.5,0,0,1-.626-.786l.005-.005-.012-.01,2.012-1.978a3.364,3.364,0,0,0,.829.591l4.47,2.252a2.158,2.158,0,0,1,.9.846L421,380.971a.934.934,0,0,1,.1.207l1.362,3.98a.363.363,0,0,1-.165.447.9.9,0,0,1-.222.063v0l-.005,0a.925.925,0,0,1-.285.017l-.047-.005a.993.993,0,0,1-.245-.063.86.86,0,0,1-.118-.063A1.045,1.045,0,0,1,421.213,385.457Z" transform="translate(-335.628 -374.463)" fill="#fad8ac"/>
            <path id="Trazado_169673" data-name="Trazado 169673" d="M369.026,384l2.73-4.616,1.239-.589.005,0,1.606-.761a11.108,11.108,0,0,0,3.59-1.955c-1.67,1.232-5.994,2.487-6.755,2.051-.316,1.528-2.457,5.667-3.514,6.355A1.019,1.019,0,0,0,369.026,384Z" transform="translate(-367.518 -373.274)" fill="#1d1d1b" opacity="0.05"/>
            <path id="Trazado_169674" data-name="Trazado 169674" d="M420.7,384l-2.728-4.616-1.239-.589-.005,0-1.606-.761a11.107,11.107,0,0,1-3.59-1.955c1.67,1.232,5.994,2.487,6.755,2.051.316,1.528,2.456,5.667,3.514,6.355A1.021,1.021,0,0,1,420.7,384Z" transform="translate(-335.348 -373.274)" fill="#1d1d1b" opacity="0.05"/>
            <path id="Trazado_169675" data-name="Trazado 169675" d="M375.855,378.231l-1.9,1.159a4.287,4.287,0,0,0-.7.523l-1.849,1.675a.892.892,0,0,1-1.224.085.866.866,0,0,1,.132-1.184l2.247-2.313,4.357-2.8s.438.28.394.4l-.2.951A3.027,3.027,0,0,1,375.855,378.231Z" transform="translate(-365.982 -373.792)" fill="#fad8ac"/>
            <path id="Trazado_169676" data-name="Trazado 169676" d="M412.615,378.231l1.9,1.159a4.2,4.2,0,0,1,.7.523l1.851,1.675a.892.892,0,0,0,1.223.085.866.866,0,0,0-.132-1.184l-2.247-2.313-4.357-2.8s-.438.28-.4.4l.2.951A3.031,3.031,0,0,0,412.615,378.231Z" transform="translate(-335.629 -373.792)" fill="#fad8ac"/>
          </g>
          <g id="Grupo_131981" data-name="Grupo 131981" transform="translate(11.503 24.036)">
            <path id="Trazado_169677" data-name="Trazado 169677" d="M392.244,357.845a6.356,6.356,0,0,1,.092-1.394,7.37,7.37,0,0,0-.617,2.078,88.2,88.2,0,0,1-3.938,10.06c-.035.089-.071.167-.106.247v.009c-2.3,5.085-10.787,17.284-13.364,20.489a4.356,4.356,0,0,1,.714-.433,126,126,0,0,0,13.859-19.111l2.973-8.557a5.513,5.513,0,0,0,2.685,3.957c.45,4.153.911,8.253,1.722,12.617a8.407,8.407,0,0,0,3.848,2.852c-2.72-5.144-3.531-11.4,1.227-15.378a6.966,6.966,0,0,0,3-2.935,7.194,7.194,0,0,1-5.1,2.115C395.235,364.461,392.494,362.573,392.244,357.845Z" transform="translate(-374.311 -356.451)" fill="#1d1d1b" opacity="0.1"/>
            <path id="Trazado_169678" data-name="Trazado 169678" d="M405.87,357.845a6.353,6.353,0,0,0-.092-1.394,7.371,7.371,0,0,1,.617,2.078,88.219,88.219,0,0,0,3.938,10.06c.035.089.069.167.106.247v.009c2.294,5.085,10.787,17.284,13.364,20.489a4.353,4.353,0,0,0-.714-.433,126.015,126.015,0,0,1-13.859-19.111l-2.973-8.557a5.518,5.518,0,0,1-2.685,3.957c-.45,4.153-.911,8.253-1.724,12.617A8.389,8.389,0,0,1,398,380.659c2.721-5.144,3.533-11.4-1.227-15.378a6.962,6.962,0,0,1-3-2.935,7.194,7.194,0,0,0,5.1,2.115C402.88,364.461,405.62,362.573,405.87,357.845Z" transform="translate(-359.95 -356.451)" fill="#1d1d1b" opacity="0.1"/>
          </g>
        </g>
        <path id="Trazado_169679" data-name="Trazado 169679" d="M400.266,342.62v3.91a7.065,7.065,0,0,1-1.095,1.906,5.265,5.265,0,0,1-8.359,0,7.54,7.54,0,0,1-1.192-1.844V342.62Z" transform="translate(-345.26 -318.85)" fill="#1d1d1b" opacity="0.1"/>
        <path id="Trazado_169680" data-name="Trazado 169680" d="M397.156,356.605c-.1.012-.207.024-.314.033a5.162,5.162,0,0,1-3.6-1.642c-.662-.655-1.364-1.526-2.367-2.671a13.966,13.966,0,0,1-2.131-5.238.433.433,0,0,1-.141.056.722.722,0,0,1-.443-.045,3.255,3.255,0,0,1-1.453-2.48c-.273-1.566.13-2.961.905-3.123a.829.829,0,0,1,.593.122,23.712,23.712,0,0,1-.242-2.662,8.6,8.6,0,0,1,8.625-8.594c.085,0,.172,0,.257,0s.17,0,.256,0l.059,0,.059,0c.087,0,.172,0,.257,0s.17,0,.257,0a8.593,8.593,0,0,1,8.623,8.594,23.72,23.72,0,0,1-.24,2.662.825.825,0,0,1,.591-.122c.777.162,1.18,1.557.905,3.123a3.249,3.249,0,0,1-1.451,2.48.721.721,0,0,1-.443.045.458.458,0,0,1-.143-.056,13.94,13.94,0,0,1-2.129,5.238c-1,1.145-1.7,2.016-2.369,2.671a5.154,5.154,0,0,1-3.6,1.642C397.365,356.63,397.259,356.617,397.156,356.605Z" transform="translate(-347.475 -327.898)" fill="#fad8ac"/>
        <path id="Trazado_169681" data-name="Trazado 169681" d="M405.746,336.852l-9.091-.89-.026,0-.024,0-9.092.89a.2.2,0,0,0-.181.221l.3,6.327a.239.239,0,0,0,.094.165l1.844,1.456a.268.268,0,0,0,.167.059h13.783a.268.268,0,0,0,.167-.059l1.842-1.456a.227.227,0,0,0,.094-.165l.3-6.327A.2.2,0,0,0,405.746,336.852Z" transform="translate(-346.948 -323.763)" fill="#1d1d1b" opacity="0.1"/>
        <g id="Grupo_131983" data-name="Grupo 131983" transform="translate(39.97 10.745)">
          <path id="Trazado_169682" data-name="Trazado 169682" d="M396.805,343.01h0a.564.564,0,0,0-.575.282l-.071.082a1.9,1.9,0,0,1-1.418.584h-5.134a.308.308,0,0,1-.174-.056l-1.926-1.413a.212.212,0,0,1-.1-.158l-.316-6.128a.2.2,0,0,1,.188-.215l9.5-.86.026,0,.026,0,9.5.86a.2.2,0,0,1,.189.215l-.316,6.128a.222.222,0,0,1-.1.158l-1.925,1.413a.312.312,0,0,1-.174.056h-5.134a1.893,1.893,0,0,1-1.418-.584l-.071-.082a.567.567,0,0,0-.575-.282Z" transform="translate(-387.094 -335.125)" fill="#ffad3b"/>
          <path id="Trazado_169683" data-name="Trazado 169683" d="M396.805,343.01h0a.567.567,0,0,1,.575.282l.071.082a1.893,1.893,0,0,0,1.418.584h5.134a.312.312,0,0,0,.174-.056l1.925-1.413a.222.222,0,0,0,.1-.158l.316-6.128a.2.2,0,0,0-.189-.215l-9.5-.86-.026,0-.026,0-9.5.86a.2.2,0,0,0-.188.215l.316,6.128a.212.212,0,0,0,.1.158l1.926,1.413a.308.308,0,0,0,.174.056h5.134a1.9,1.9,0,0,0,1.418-.584l.071-.082a.564.564,0,0,1,.575-.282Z" transform="translate(-387.094 -335.125)" fill="#fff"/>
          <path id="Trazado_169684" data-name="Trazado 169684" d="M396.631,342.568h0a.952.952,0,0,0-.914.478,1.552,1.552,0,0,1-1.168.485h-5.125l-1.846-1.366-.249-5.973,9.3-.834h0l9.3.834-.249,5.973-1.846,1.366h-5.127a1.548,1.548,0,0,1-1.166-.485.952.952,0,0,0-.914-.478Z" transform="translate(-386.919 -334.953)" fill="#513c3e"/>
          <path id="Trazado_169685" data-name="Trazado 169685" d="M388.416,336.766l-1.086-.926.25,5.971.91-.227Z" transform="translate(-386.92 -334.598)" fill="#1d1d1b" opacity="0.3"/>
          <path id="Trazado_169686" data-name="Trazado 169686" d="M397.441,336.766l1.086-.926-.25,5.971-.91-.227Z" transform="translate(-379.513 -334.598)" fill="#1d1d1b" opacity="0.3"/>
          <path id="Trazado_169687" data-name="Trazado 169687" d="M389.558,340.037l-.24.7-1.845-1.365.91-.227Z" transform="translate(-386.814 -332.159)" fill="#1d1d1b" opacity="0.5"/>
          <path id="Trazado_169688" data-name="Trazado 169688" d="M396.692,340.037l.24.7,1.845-1.365-.91-.227Z" transform="translate(-380.012 -332.159)" fill="#1d1d1b" opacity="0.5"/>
          <path id="Trazado_169689" data-name="Trazado 169689" d="M395.742,340h0a.952.952,0,0,0-.914.478,1.552,1.552,0,0,1-1.168.485h-5.125l.24-.7a17.649,17.649,0,0,1,6.96-1.432h.016a17.661,17.661,0,0,1,6.96,1.432l.24.7h-5.127a1.548,1.548,0,0,1-1.166-.485.952.952,0,0,0-.914-.478Z" transform="translate(-386.03 -332.388)" fill="#1d1d1b" opacity="0.8"/>
          <path id="Trazado_169690" data-name="Trazado 169690" d="M396.17,341.379a1.774,1.774,0,0,0-1.627.785l-.017.021a.631.631,0,0,1-.481.2H389.2l-1.175-.893-.073-4.817,8.215-.721,8.217.721-.073,4.817-1.175.893H398.3a.635.635,0,0,1-.483-.2l-.017-.021A1.772,1.772,0,0,0,396.17,341.379Z" transform="translate(-386.458 -334.511)" fill="#362829"/>
          <path id="Trazado_169691" data-name="Trazado 169691" d="M395.09,340.656c-.026,0,2.582-.288,2.582-.288l.627-.532.327-1.988-.007,2.146-.862.662Z" transform="translate(-381.194 -333.116)" fill="#9f4c33"/>
          <path id="Trazado_169692" data-name="Trazado 169692" d="M388.265,341.168l-.009-4.255,7.692-.667-7.089,1.161Z" transform="translate(-386.236 -334.298)" fill="#9f4c33"/>
        </g>
        <path id="Trazado_169693" data-name="Trazado 169693" d="M403.6,331.688a12.1,12.1,0,0,0-2.664-1.289,9.9,9.9,0,0,0-2.238-.667,8.318,8.318,0,0,0-2.129.05,25.593,25.593,0,0,0-4.3.911,7.4,7.4,0,0,0-1.653.671,5.957,5.957,0,0,0-1.394,1.189,9.628,9.628,0,0,0-2.424,6.126,12.667,12.667,0,0,0,7.056-4.414,5.878,5.878,0,0,1-2.591,3.743c2.43-.292,4.942-1.479,5.969-3.7a5.479,5.479,0,0,1-.572,2.442,7.708,7.708,0,0,0,2.016-3.94,7.806,7.806,0,0,0,3.637,5.036,10.429,10.429,0,0,0,5.028.833,20.636,20.636,0,0,0-1.248-3.851A7.913,7.913,0,0,0,403.6,331.688Z" transform="translate(-347.34 -328.396)" fill="#ffad3b"/>
        <g id="Grupo_131984" data-name="Grupo 131984" transform="translate(16.899 71.279)">
          <path id="Trazado_169694" data-name="Trazado 169694" d="M439.361,466.239h-.043c-1.482-.035-3.187-.184-4.061-1.385a4.545,4.545,0,0,1-.688-2c-.061-.335-.115-.671-.158-1.015-.054-.318-.1-.645-.132-.971l-.212,2.162-1.051-.106-.035-6.955a.65.65,0,0,1-.026-.123,2.586,2.586,0,0,1-.08-.389c-.017-.115-.026-.229-.035-.344a2.03,2.03,0,0,1-.009-.229c-.019-.238-.009-.467-.009-.706,0-.266.009-.539.017-.8a10.557,10.557,0,0,1,.167-1.686c-4.334-13.55-9.445-21.115-10.107-31.557a35.911,35.911,0,0,1,.035-5.05c-.1-.1-.2-.221-.3-.335-2.1-2.3-13.039-22.554-15.413-28.688-.415-.009-.831-.009-1.244-.009-2.367,6.126-13.312,26.394-15.422,28.7a3.417,3.417,0,0,1-.292.327,36.04,36.04,0,0,1,.035,5.059c-.671,10.417-4.722,18.352-10.079,31.46a.431.431,0,0,1,.026.1,13.95,13.95,0,0,1,.186,2.49,9.046,9.046,0,0,1-.036,1.208.14.14,0,0,0-.009.063c-.026.177-.061.389-.115.671l-.026,6.805-1.06.106-.167-1.72c-.106.493-.212,1-.292,1.519a4.727,4.727,0,0,1-.671,2.012c-.865,1.209-2.569,1.368-4.051,1.422a1.314,1.314,0,0,0-.186.009l.026-.028a8.9,8.9,0,0,0,2.754-5c.052-.221.106-.441.141-.671a19.788,19.788,0,0,0,.275-6.206,6.145,6.145,0,0,1-.054-1.712,1.254,1.254,0,0,1,.054-.247,4.853,4.853,0,0,1,.8-1.43c.407-.582.777-1.175,1.13-1.783a55.616,55.616,0,0,0,4.643-11.988q1.827-6.118,3.655-12.226a20.815,20.815,0,0,0,1.13-5.563c.017-.8.106-1.906.106-3.01-.009-1.5-.186-3.01-.971-3.769a1.49,1.49,0,0,0,.848.257c4.07,0,10.354-16.127,11.7-26.853.433-3.557.327-6.515-.582-8.095a35.786,35.786,0,0,0,5.552,5.632,3.19,3.19,0,0,0,1.536.582.078.078,0,0,0,.044.009.057.057,0,0,0,.037-.009,3.19,3.19,0,0,0,1.534-.582,34.977,34.977,0,0,0,5.552-5.632c-.909,1.58-1.015,4.546-.582,8.1,1.342,10.717,7.619,26.827,11.7,26.844h.009a1.485,1.485,0,0,0,.846-.257c-.786.759-.961,2.27-.97,3.778,0,1.1.087,2.2.106,3a21.151,21.151,0,0,0,1.121,5.563q1.84,6.1,3.663,12.226a54.269,54.269,0,0,0,4.661,12.014c.344.6.714,1.183,1.112,1.757a5.113,5.113,0,0,1,.794,1.43,2.3,2.3,0,0,1,.089.476,7.117,7.117,0,0,1-.089,1.482,19.787,19.787,0,0,0,.282,6.2c.037.229.089.45.143.679A8.907,8.907,0,0,0,439.361,466.239Z" transform="translate(-373.818 -364.063)" fill="#1d1d1b" opacity="0.1"/>
          <path id="Trazado_169695" data-name="Trazado 169695" d="M396,372.493a5.875,5.875,0,0,0-1.484.106,8.467,8.467,0,0,0-4.81,3.079,31.785,31.785,0,0,0-4.256,9.683,7.062,7.062,0,0,0,.045,3.408c-2.136,1.554-3.328,4.044-4.36,6.489,1.112-3.655,2.383-7.266,3.689-10.557,0-.01.009-.028.009-.036a38.965,38.965,0,0,1,6.541-14.556l.846-.009s0,.009.01,0c.158.141.316.273.485.4a11.4,11.4,0,0,0,1.2.855A15.3,15.3,0,0,0,396,372.493Z" transform="translate(-368.417 -369.853)" fill="#1d1d1b" opacity="0.1"/>
          <path id="Trazado_169696" data-name="Trazado 169696" d="M411.891,398.629c-.353-.874-.714-1.748-1.078-2.621-1.112-2.648-2.32-5.439-4.633-7.134a7.063,7.063,0,0,0,.035-3.46,21.6,21.6,0,0,0-.971-3.125,22.741,22.741,0,0,0-3.283-6.506,8.476,8.476,0,0,0-4.821-3.079,5.728,5.728,0,0,0-1.465-.106,15.085,15.085,0,0,0,2.058-1.121v-.01a11.43,11.43,0,0,0,1.218-.864c0,.009.009,0,.009,0a8.315,8.315,0,0,0,.749-.636l.768-.009a29.945,29.945,0,0,1,6.578,14.513A117.373,117.373,0,0,1,411.891,398.629Z" transform="translate(-357.691 -369.958)" fill="#1d1d1b" opacity="0.1"/>
        </g>
      </g>
      <g id="Grupo_131987" data-name="Grupo 131987" transform="translate(339.365 325.431)">
        <path id="Trazado_169697" data-name="Trazado 169697" d="M343.835,339.238c-22.371,0-42.81-2.33-54.672-6.234l-2.673-.881,2.673-.879c11.866-3.9,32.3-6.234,54.672-6.234s42.8,2.33,54.672,6.234l2.673.879-2.673.881C386.643,336.907,366.2,339.238,343.835,339.238Zm-51.174-7.115c11.967,3.314,30.737,5.262,51.174,5.262s39.206-1.948,51.174-5.262c-11.97-3.312-30.741-5.26-51.174-5.26S304.63,328.811,292.661,332.123Z" transform="translate(-279.853 -312.162)" fill="#fff"/>
        <path id="Trazado_169698" data-name="Trazado 169698" d="M346.653,317.617c-35.337,0-63.982,5.855-63.982,13.076,0,2.527,3.521,4.885,9.6,6.885,11.285-3.712,31.417-6.187,54.382-6.187s43.095,2.475,54.382,6.187c6.079-2,9.6-4.359,9.6-6.885C410.635,323.472,381.989,317.617,346.653,317.617Z" transform="translate(-282.671 -317.617)" fill="#12263f"/>
        <path id="Trazado_169699" data-name="Trazado 169699" d="M346.653,338.215c-22.966,0-43.1-2.475-54.382-6.189-6.079-2-9.6-4.358-9.6-6.885v13.774c0,7.221,28.645,13.074,63.982,13.074s63.982-5.853,63.982-13.074V325.141c0,2.527-3.521,4.885-9.6,6.885C389.748,335.74,369.619,338.215,346.653,338.215Z" transform="translate(-282.671 -312.066)" fill="#12263f"/>
        <path id="Trazado_169700" data-name="Trazado 169700" d="M346.653,342.58c-35.337,0-63.982-5.853-63.982-13.074v6.188c0,7.221,28.645,13.074,63.982,13.074s63.982-5.853,63.982-13.074v-6.188C410.635,336.727,381.989,342.58,346.653,342.58Z" transform="translate(-282.671 -308.845)" fill="#1d1d1b" opacity="0.1"/>
        <g id="Grupo_131986" data-name="Grupo 131986" transform="translate(8.767 10.705)">
          <path id="Trazado_169701" data-name="Trazado 169701" d="M342.931,369.187h0c-1.919,0-2.188.318-3.314,1.641l-.412.478a10.883,10.883,0,0,1-8.19,3.429H301.395a1.687,1.687,0,0,1-1-.334l-10.964-8.257a1.253,1.253,0,0,1-.546-.926L287.716,329.9a1.151,1.151,0,0,1,1.1-1.218l53.969-4.894a1.37,1.37,0,0,1,.148-.007,1.412,1.412,0,0,1,.148.007l53.969,4.894a1.153,1.153,0,0,1,1.1,1.218l-1.171,35.322a1.264,1.264,0,0,1-.546.926L385.463,374.4a1.684,1.684,0,0,1-1,.334H354.851a10.884,10.884,0,0,1-8.192-3.429l-.41-.478c-1.128-1.323-1.4-1.639-3.316-1.641Z" transform="translate(-287.716 -323.777)" fill="#ffad3b"/>
          <path id="Trazado_169702" data-name="Trazado 169702" d="M342.931,369.187h0c1.919,0,2.188.318,3.316,1.641l.41.478a10.884,10.884,0,0,0,8.192,3.429h29.615a1.684,1.684,0,0,0,1-.334l10.966-8.257a1.264,1.264,0,0,0,.546-.926l1.171-35.322a1.153,1.153,0,0,0-1.1-1.218l-53.969-4.894a1.412,1.412,0,0,0-.148-.007,1.37,1.37,0,0,0-.148.007l-53.969,4.894a1.151,1.151,0,0,0-1.1,1.218l1.171,35.322a1.253,1.253,0,0,0,.546.926L300.4,374.4a1.687,1.687,0,0,0,1,.334h29.616a10.883,10.883,0,0,0,8.19-3.429l.412-.478c1.126-1.323,1.4-1.639,3.314-1.641Z" transform="translate(-287.716 -323.777)" fill="#ffad3b"/>
          <path id="Trazado_169703" data-name="Trazado 169703" d="M341.948,366.637h-.005c-3.231,0-3.8,1.084-5.271,2.791a8.88,8.88,0,0,1-6.731,2.838H300.38l-10.505-7.984-.827-34.43,52.893-4.755h.014l52.891,4.755-.825,34.43-10.505,7.984H353.955a8.887,8.887,0,0,1-6.732-2.838c-1.468-1.707-2.04-2.789-5.269-2.791Z" transform="translate(-286.732 -322.803)" fill="#546e7a"/>
          <path id="Trazado_169704" data-name="Trazado 169704" d="M295.142,333.127l-6.093-5.29.83,34.424,5.253-1.322Z" transform="translate(-286.732 -320.782)" fill="#1d1d1b" opacity="0.3"/>
          <path id="Trazado_169705" data-name="Trazado 169705" d="M346.421,333.127l6.093-5.29-.83,34.424-5.253-1.322Z" transform="translate(-244.401 -320.782)" fill="#1d1d1b" opacity="0.3"/>
          <path id="Trazado_169706" data-name="Trazado 169706" d="M301.464,352.092l-1.437,4.093-10.5-7.979,5.253-1.322Z" transform="translate(-286.379 -306.728)" fill="#1d1d1b" opacity="0.5"/>
          <path id="Trazado_169707" data-name="Trazado 169707" d="M342.58,352.092l1.437,4.093,10.5-7.979-5.253-1.322Z" transform="translate(-247.235 -306.728)" fill="#1d1d1b" opacity="0.5"/>
          <path id="Trazado_169708" data-name="Trazado 169708" d="M337.136,351.9h-.005c-3.231,0-3.8,1.084-5.271,2.791a8.88,8.88,0,0,1-6.731,2.838H295.569L297,353.43a100.9,100.9,0,0,1,40.088-8.354h.09a100.9,100.9,0,0,1,40.087,8.354l1.435,4.094H349.143a8.887,8.887,0,0,1-6.732-2.838c-1.469-1.707-2.04-2.789-5.269-2.791Z" transform="translate(-281.921 -308.062)" fill="#1d1d1b" opacity="0.8"/>
          <path id="Trazado_169709" data-name="Trazado 169709" d="M339.365,359.763c-.155,0-6.76-.493-9.365,4.577l-.1.118a3.614,3.614,0,0,1-2.782,1.19H299.234l-6.685-5.208.01-27.812,46.805-4.117,46.805,4.117.009,27.812-6.684,5.208H351.609a3.613,3.613,0,0,1-2.781-1.19l-.1-.118C346.123,359.269,339.519,359.763,339.365,359.763Z" transform="translate(-284.149 -320.284)" fill="#546e7a"/>
          <path id="Trazado_169710" data-name="Trazado 169710" d="M333.346,355.675c-.153,0,14.843-1.684,14.843-1.684l3.559-3.1,1.708-11.531.148,12.45-4.9,3.863Z" transform="translate(-254.048 -312.278)" fill="#fff" style="mix-blend-mode: overlay;isolation: isolate"/>
          <path id="Trazado_169711" data-name="Trazado 169711" d="M294.075,358.556l.309-24.582,43.855-3.814-40.458,6.648Z" transform="translate(-283.023 -319.067)" fill="#fff" style="mix-blend-mode: overlay;isolation: isolate"/>
        </g>
      </g>
    </g>
  </g>
</svg>
